{"glyphs":{"0":{"ha":750,"x_min":47,"x_max":703,"o":"m 375 -17 q 242 13 301 -17 q 138 101 182 43 q 71 246 94 160 q 47 444 47 332 q 71 642 47 557 q 138 784 94 728 q 242 869 182 840 q 375 897 301 897 q 508 869 447 897 q 612 783 568 840 q 679 642 656 726 q 703 444 703 557 q 679 246 703 332 q 612 101 656 160 q 508 13 568 43 q 375 -17 447 -17 m 375 167 q 415 177 396 167 q 447 218 433 188 q 469 303 461 249 q 478 444 478 357 q 469 585 478 532 q 447 667 461 638 q 415 705 433 696 q 375 714 396 714 q 335 705 354 714 q 303 667 317 696 q 281 585 289 638 q 272 444 272 532 q 281 303 272 357 q 303 218 289 249 q 335 177 317 188 q 375 167 354 167 z "},"1":{"ha":750,"x_min":92,"x_max":678,"o":"m 92 0 l 92 192 l 281 192 l 281 647 l 114 647 l 114 794 q 242 829 189 810 q 344 881 294 849 l 519 881 l 519 192 l 678 192 l 678 0 l 92 0 z "},"2":{"ha":750,"x_min":39,"x_max":689,"o":"m 50 0 l 50 136 q 195 272 128 208 q 313 392 263 336 q 391 499 363 449 q 419 594 419 550 q 390 683 419 654 q 311 711 360 711 q 233 685 267 711 q 167 628 199 660 l 39 756 q 107 819 74 792 q 177 863 140 846 q 255 889 214 881 q 344 897 296 897 q 467 876 411 897 q 563 818 522 856 q 625 727 603 781 q 647 608 647 674 q 624 501 647 556 q 565 392 601 446 q 484 286 529 338 q 394 189 439 235 q 470 197 428 193 q 542 200 513 200 l 689 200 l 689 0 l 50 0 z "},"3":{"ha":750,"x_min":28,"x_max":683,"o":"m 342 -17 q 156 17 233 -17 q 28 108 78 50 l 136 258 q 223 198 176 221 q 317 175 269 175 q 410 196 375 175 q 444 258 444 217 q 436 303 444 283 q 404 336 428 322 q 338 357 381 350 q 225 364 294 364 l 225 531 q 317 538 281 531 q 376 558 354 544 q 408 589 399 571 q 417 631 417 607 q 325 711 417 711 q 246 693 281 711 q 169 639 211 675 l 50 783 q 185 867 115 838 q 336 897 254 897 q 569 833 482 897 q 656 649 656 768 q 514 458 656 521 l 514 453 q 636 377 589 429 q 683 242 683 325 q 656 131 683 179 q 581 50 628 83 q 472 0 535 17 q 342 -17 410 -17 z "},"4":{"ha":750,"x_min":28,"x_max":719,"o":"m 403 0 l 403 197 l 28 197 l 28 364 l 328 881 l 625 881 l 625 378 l 719 378 l 719 197 l 625 197 l 625 0 l 403 0 m 253 378 l 403 378 l 403 478 q 403 527 403 500 q 406 582 404 554 q 408 637 407 610 q 411 686 410 664 l 406 686 q 371 607 389 646 q 333 528 353 568 l 253 378 z "},"5":{"ha":750,"x_min":31,"x_max":683,"o":"m 350 -17 q 163 19 242 -17 q 31 108 85 54 l 136 258 q 221 199 176 222 q 314 175 265 175 q 410 203 376 175 q 444 289 444 231 q 411 374 444 346 q 325 403 378 403 q 293 401 307 403 q 266 394 279 399 q 238 382 253 390 q 203 361 222 374 l 100 428 l 122 881 l 644 881 l 644 681 l 328 681 l 317 553 q 359 564 340 561 q 400 567 378 567 q 508 550 457 567 q 599 500 560 533 q 660 415 638 467 q 683 294 683 364 q 656 163 683 221 q 583 65 629 104 q 477 4 538 25 q 350 -17 417 -17 z "},"6":{"ha":750,"x_min":53,"x_max":703,"o":"m 397 -17 q 272 8 333 -17 q 161 85 210 32 q 83 222 113 138 q 53 425 53 306 q 83 633 53 544 q 164 781 114 722 q 280 868 214 839 q 417 897 346 897 q 579 864 511 897 q 692 786 647 831 l 567 644 q 508 687 546 668 q 433 706 471 706 q 373 694 401 706 q 323 653 344 682 q 288 580 301 625 q 271 468 275 535 q 308 506 288 489 q 352 533 329 522 q 397 550 375 544 q 436 556 418 556 q 541 540 492 556 q 626 490 590 524 q 682 406 661 457 q 703 283 703 354 q 678 157 703 213 q 613 63 654 101 q 515 3 571 24 q 397 -17 460 -17 m 392 161 q 458 188 429 161 q 486 283 486 214 q 478 335 486 315 q 456 367 469 356 q 425 384 443 379 q 389 389 407 389 q 327 372 357 389 q 276 314 297 354 q 297 238 283 268 q 325 191 310 208 q 358 167 340 174 q 392 161 375 161 z "},"7":{"ha":750,"x_min":61,"x_max":692,"o":"m 211 0 q 231 192 217 104 q 270 360 244 279 q 337 518 296 440 q 439 681 378 596 l 61 681 l 61 881 l 692 881 l 692 733 q 571 567 615 644 q 501 406 526 489 q 466 226 476 324 q 450 0 456 129 l 211 0 z "},"8":{"ha":750,"x_min":58,"x_max":694,"o":"m 372 -17 q 248 1 306 -17 q 148 50 190 18 q 82 126 106 82 q 58 225 58 171 q 99 351 58 303 q 203 433 140 400 l 203 439 q 118 528 150 479 q 86 647 86 578 q 108 752 86 706 q 169 831 129 799 q 262 880 208 863 q 381 897 315 897 q 492 880 442 897 q 579 831 543 863 q 635 754 615 800 q 656 653 656 708 q 623 545 656 592 q 543 468 590 499 l 543 463 q 651 373 608 428 q 694 231 694 318 q 672 133 694 178 q 606 54 649 88 q 504 2 564 21 q 372 -17 444 -17 m 425 525 q 464 636 464 581 q 440 708 464 682 q 375 733 417 733 q 319 713 343 733 q 294 647 294 693 q 328 576 294 603 q 425 525 363 550 m 378 147 q 446 168 418 147 q 474 239 474 189 q 463 281 474 263 q 430 313 451 299 q 378 342 408 328 q 308 372 347 356 q 276 317 289 349 q 263 253 263 286 q 297 174 263 200 q 378 147 332 147 z "},"9":{"ha":750,"x_min":44,"x_max":694,"o":"m 358 492 q 420 509 390 492 q 471 567 450 526 q 451 642 464 613 q 422 690 438 672 q 390 713 407 707 q 356 719 372 719 q 290 693 318 719 q 261 597 261 667 q 269 545 261 565 q 291 513 278 525 q 322 497 304 501 q 358 492 339 492 m 331 -17 q 168 17 236 -17 q 56 94 100 50 l 181 236 q 239 194 201 213 q 314 175 276 175 q 375 187 347 175 q 424 227 403 199 q 460 301 446 256 q 476 413 474 346 q 439 375 460 392 q 395 347 418 358 q 351 331 372 336 q 311 325 329 325 q 206 341 254 325 q 122 390 157 357 q 65 475 86 424 q 44 597 44 526 q 69 724 44 668 q 135 818 93 779 q 232 877 176 857 q 350 897 288 897 q 476 873 414 897 q 586 796 538 849 q 665 659 635 743 q 694 456 694 575 q 664 247 694 336 q 583 100 633 158 q 467 13 533 42 q 331 -17 401 -17 z "}," ":{"ha":278,"x_min":0,"x_max":0,"o":""},"A":{"ha":811,"x_min":-14,"x_max":825,"o":"m 333 439 l 318 376 l 485 376 l 469 439 q 436 581 453 504 q 403 725 419 657 l 397 725 q 366 580 382 656 q 333 439 350 504 m -14 0 l 261 903 l 550 903 l 825 0 l 572 0 l 528 192 l 275 192 l 231 0 l -14 0 z "},"B":{"ha":850,"x_min":100,"x_max":808,"o":"m 100 0 l 100 903 l 425 903 q 558 892 496 903 q 667 857 621 882 q 740 788 713 832 q 767 678 767 744 q 758 619 767 649 q 735 562 750 589 q 700 514 721 535 q 653 483 679 493 l 653 478 q 763 408 718 458 q 808 267 808 357 q 780 147 808 197 q 703 63 751 96 q 590 15 656 31 q 453 0 525 0 l 100 0 m 339 550 l 419 550 q 506 575 478 550 q 533 642 533 600 q 506 701 533 683 q 419 719 478 719 l 339 719 l 339 550 m 339 183 l 436 183 q 575 283 575 183 q 541 354 575 333 q 436 375 507 375 l 339 375 l 339 183 z "},"C":{"ha":814,"x_min":61,"x_max":789,"o":"m 492 -17 q 327 12 406 -17 q 190 98 249 40 q 96 242 131 156 q 61 444 61 329 q 97 647 61 558 q 194 795 133 735 q 333 888 254 856 q 497 919 411 919 q 658 884 588 919 q 778 800 729 849 l 653 647 q 584 695 619 676 q 503 714 549 714 q 427 696 463 714 q 365 644 392 678 q 322 563 338 611 q 306 453 306 514 q 359 257 306 325 q 500 189 413 189 q 594 212 553 189 q 664 267 635 235 l 789 117 q 655 17 731 50 q 492 -17 579 -17 z "},"D":{"ha":892,"x_min":100,"x_max":831,"o":"m 100 0 l 100 903 l 367 903 q 555 878 469 903 q 701 799 640 853 q 797 660 763 744 q 831 456 831 575 q 797 250 831 336 q 703 108 764 164 q 560 26 643 53 q 381 0 478 0 l 100 0 m 339 192 l 353 192 q 444 203 401 192 q 519 244 488 215 q 568 325 550 274 q 586 456 586 376 q 568 585 586 535 q 519 663 550 635 q 444 701 488 690 q 353 711 401 711 l 339 711 l 339 192 z "},"E":{"ha":772,"x_min":100,"x_max":697,"o":"m 100 0 l 100 903 l 683 903 l 683 703 l 339 703 l 339 561 l 633 561 l 633 361 l 339 361 l 339 200 l 697 200 l 697 0 l 100 0 z "},"F":{"ha":744,"x_min":100,"x_max":689,"o":"m 100 0 l 100 903 l 689 903 l 689 703 l 339 703 l 339 531 l 639 531 l 639 331 l 339 331 l 339 0 l 100 0 z "},"G":{"ha":897,"x_min":61,"x_max":822,"o":"m 517 -17 q 339 12 422 -17 q 194 98 256 40 q 97 242 132 156 q 61 444 61 329 q 97 647 61 558 q 195 795 133 735 q 339 888 257 856 q 511 919 421 919 q 684 884 611 919 q 806 800 757 849 l 681 647 q 610 695 647 676 q 519 714 574 714 q 435 696 474 714 q 367 644 396 678 q 322 563 338 611 q 306 453 306 514 q 363 257 306 325 q 542 189 419 189 q 580 193 561 189 q 611 206 599 197 l 611 331 l 478 331 l 478 525 l 822 525 l 822 94 q 693 16 774 49 q 517 -17 613 -17 z "},"H":{"ha":947,"x_min":100,"x_max":847,"o":"m 100 0 l 100 903 l 339 903 l 339 567 l 608 567 l 608 903 l 847 903 l 847 0 l 608 0 l 608 358 l 339 358 l 339 0 l 100 0 z "},"I":{"ha":439,"x_min":100,"x_max":339,"o":"m 100 0 l 100 903 l 339 903 l 339 0 l 100 0 z "},"J":{"ha":722,"x_min":14,"x_max":628,"o":"m 322 -17 q 138 25 211 -17 q 14 154 64 67 l 175 275 q 229 210 199 231 q 289 189 260 189 q 331 195 313 189 q 363 218 350 201 q 382 263 375 235 q 389 333 389 290 l 389 903 l 628 903 l 628 314 q 609 186 628 246 q 553 81 590 126 q 458 10 515 36 q 322 -17 400 -17 z "},"K":{"ha":872,"x_min":100,"x_max":886,"o":"m 100 0 l 100 903 l 339 903 l 339 567 l 344 567 l 572 903 l 833 903 l 564 536 l 886 0 l 625 0 l 425 347 l 339 225 l 339 0 l 100 0 z "},"L":{"ha":736,"x_min":100,"x_max":681,"o":"m 100 0 l 100 903 l 339 903 l 339 200 l 681 200 l 681 0 l 100 0 z "},"M":{"ha":1078,"x_min":100,"x_max":978,"o":"m 100 0 l 100 903 l 356 903 l 492 533 q 515 456 504 496 q 539 375 526 415 l 544 375 q 568 456 557 415 q 592 533 579 496 l 722 903 l 978 903 l 978 0 l 761 0 l 761 267 q 765 343 761 301 q 772 428 768 385 q 782 514 776 472 q 792 589 788 556 l 786 589 l 711 372 l 600 74 l 472 74 l 361 372 l 289 589 l 283 589 q 293 514 288 556 q 303 428 299 472 q 310 343 307 385 q 314 267 314 301 l 314 0 l 100 0 z "},"N":{"ha":933,"x_min":100,"x_max":833,"o":"m 100 0 l 100 903 l 344 903 l 544 500 l 631 297 l 636 297 q 626 376 632 333 q 617 465 621 419 q 609 555 613 510 q 606 642 606 600 l 606 903 l 833 903 l 833 0 l 589 0 l 389 404 l 303 606 l 297 606 q 317 436 306 528 q 328 261 328 344 l 328 0 l 100 0 z "},"O":{"ha":961,"x_min":61,"x_max":900,"o":"m 481 -17 q 309 15 386 -17 q 177 108 232 47 q 92 256 122 168 q 61 456 61 344 q 92 653 61 567 q 177 799 122 740 q 309 889 232 858 q 481 919 386 919 q 651 889 574 919 q 784 799 729 858 q 869 653 839 739 q 900 456 900 567 q 869 256 900 344 q 784 108 839 168 q 651 15 729 47 q 481 -17 574 -17 m 481 189 q 609 260 563 189 q 656 456 656 332 q 609 647 656 579 q 481 714 563 714 q 352 647 399 714 q 306 456 306 579 q 352 260 306 332 q 481 189 399 189 z "},"P":{"ha":844,"x_min":100,"x_max":797,"o":"m 100 0 l 100 903 l 431 903 q 571 888 504 903 q 688 838 638 874 q 767 745 738 803 q 797 603 797 688 q 767 460 797 519 q 688 362 738 400 q 572 305 638 324 q 436 286 507 286 l 339 286 l 339 0 l 100 0 m 339 475 l 425 475 q 530 508 496 475 q 564 603 564 542 q 526 689 564 664 q 419 714 489 714 l 339 714 l 339 475 z "},"Q":{"ha":961,"x_min":61,"x_max":958,"o":"m 481 178 q 609 249 563 178 q 656 456 656 321 q 609 647 656 579 q 481 714 563 714 q 352 647 399 714 q 306 456 306 579 q 352 249 306 321 q 481 178 399 178 m 786 -261 q 645 -242 710 -261 q 528 -189 581 -224 q 438 -108 476 -154 q 372 -4 399 -61 q 244 51 301 13 q 146 147 186 89 q 83 283 106 206 q 61 456 61 361 q 92 653 61 567 q 177 799 122 740 q 309 889 232 858 q 481 919 386 919 q 651 889 574 919 q 784 799 729 858 q 869 653 839 739 q 900 456 900 567 q 826 163 900 278 q 624 6 751 47 q 709 -56 656 -39 q 814 -72 763 -72 q 869 -67 843 -72 q 917 -56 896 -62 l 958 -228 q 888 -252 931 -243 q 786 -261 844 -261 z "},"R":{"ha":875,"x_min":100,"x_max":853,"o":"m 100 0 l 100 903 l 442 903 q 580 889 514 903 q 695 842 646 875 q 774 752 744 808 q 803 611 803 696 q 763 450 803 514 q 657 350 724 386 l 853 0 l 586 0 l 431 303 l 339 303 l 339 0 l 100 0 m 339 492 l 425 492 q 569 611 569 492 q 533 692 569 669 q 425 714 496 714 l 339 714 l 339 492 z "},"S":{"ha":783,"x_min":44,"x_max":739,"o":"m 386 -17 q 209 15 300 -17 q 44 113 118 46 l 181 276 q 285 213 229 238 q 392 189 342 189 q 470 206 446 189 q 494 253 494 222 q 486 281 494 269 q 462 301 478 292 q 424 320 446 311 q 372 340 401 329 l 260 388 q 190 424 224 401 q 132 478 157 447 q 92 550 107 510 q 78 639 78 590 q 103 748 78 697 q 172 837 128 799 q 278 897 217 875 q 414 919 340 919 q 572 890 492 919 q 714 799 651 861 l 594 649 q 506 697 549 681 q 414 714 464 714 q 344 699 369 714 q 319 653 319 683 q 355 603 319 621 q 453 563 390 586 l 563 519 q 693 426 647 486 q 739 272 739 367 q 715 163 739 215 q 647 70 692 110 q 536 7 601 31 q 386 -17 471 -17 z "},"T":{"ha":783,"x_min":33,"x_max":750,"o":"m 272 0 l 272 703 l 33 703 l 33 903 l 750 903 l 750 703 l 511 703 l 511 0 l 272 0 z "},"U":{"ha":933,"x_min":94,"x_max":839,"o":"m 469 -17 q 187 94 279 -17 q 94 436 94 204 l 94 903 l 333 903 l 333 408 q 366 238 333 288 q 469 189 399 189 q 574 238 540 189 q 608 408 608 288 l 608 903 l 839 903 l 839 436 q 749 94 839 204 q 469 -17 658 -17 z "},"V":{"ha":794,"x_min":-14,"x_max":808,"o":"m 253 0 l -14 903 l 239 903 l 333 508 q 367 366 353 436 q 400 222 381 296 l 406 222 q 440 366 425 296 q 472 508 454 436 l 564 903 l 808 903 l 542 0 l 253 0 z "},"W":{"ha":1144,"x_min":14,"x_max":1131,"o":"m 172 0 l 14 903 l 258 903 l 308 508 q 324 367 315 438 q 339 225 332 296 l 344 225 q 369 367 357 296 q 394 508 382 438 l 481 903 l 681 903 l 767 508 q 792 369 779 440 q 817 225 804 297 l 822 225 q 838 368 829 297 q 853 508 846 439 l 903 903 l 1131 903 l 981 0 l 678 0 l 608 358 q 590 465 597 411 q 575 569 582 519 l 569 569 q 555 465 563 519 q 536 358 547 411 l 469 0 l 172 0 z "},"X":{"ha":817,"x_min":14,"x_max":803,"o":"m 14 0 l 258 464 l 28 903 l 294 903 l 356 756 q 385 687 371 724 q 419 606 400 650 l 425 606 q 454 687 440 650 q 481 756 468 724 l 533 903 l 789 903 l 558 453 l 803 0 l 536 0 l 464 161 q 432 233 447 197 q 400 311 417 269 l 394 311 q 365 233 379 269 q 336 161 351 197 l 269 0 l 14 0 z "},"Y":{"ha":756,"x_min":-14,"x_max":769,"o":"m 258 0 l 258 311 l -14 903 l 242 903 l 308 714 q 342 614 325 663 q 376 513 358 565 l 382 513 q 417 614 400 565 q 453 714 435 663 l 519 903 l 769 903 l 497 311 l 497 0 l 258 0 z "},"Z":{"ha":753,"x_min":44,"x_max":711,"o":"m 44 0 l 44 144 l 414 703 l 81 703 l 81 903 l 708 903 l 708 758 l 339 200 l 711 200 l 711 0 l 44 0 z "},"a":{"ha":744,"x_min":53,"x_max":669,"o":"m 261 -17 q 174 1 213 -17 q 108 47 135 18 q 67 115 81 76 q 53 197 53 154 q 142 367 53 306 q 431 450 231 429 q 333 522 422 522 q 254 508 296 522 q 158 464 213 493 l 75 619 q 224 688 149 664 q 381 711 299 711 q 592 634 515 711 q 669 386 669 557 l 669 0 l 475 0 l 458 67 l 453 67 q 365 6 411 29 q 261 -17 318 -17 m 344 167 q 392 180 374 167 q 431 214 411 193 l 431 308 q 313 271 344 296 q 281 217 281 246 q 344 167 281 167 z "},"b":{"ha":806,"x_min":81,"x_max":756,"o":"m 467 -17 q 376 6 421 -17 q 292 75 332 29 l 286 75 l 267 0 l 81 0 l 81 967 l 319 967 l 319 742 l 314 642 q 394 693 350 675 q 485 711 439 711 q 596 686 546 711 q 681 615 646 661 q 736 504 717 569 q 756 360 756 439 q 731 199 756 269 q 667 81 707 129 q 574 8 626 33 q 467 -17 522 -17 m 408 178 q 481 217 450 178 q 511 356 511 256 q 487 479 511 442 q 414 517 463 517 q 365 506 386 517 q 319 467 343 494 l 319 211 q 363 185 340 192 q 408 178 385 178 z "},"c":{"ha":656,"x_min":44,"x_max":625,"o":"m 394 -17 q 257 8 321 -17 q 146 78 193 32 q 72 193 99 125 q 44 347 44 261 q 75 501 44 433 q 157 616 106 569 q 276 687 208 663 q 417 711 343 711 q 529 692 479 711 q 619 639 579 672 l 508 486 q 467 513 485 506 q 431 519 450 519 q 326 473 364 519 q 289 347 289 426 q 327 222 289 268 q 422 175 365 175 q 480 188 451 175 q 533 219 508 200 l 625 64 q 510 1 572 18 q 394 -17 449 -17 z "},"d":{"ha":806,"x_min":50,"x_max":725,"o":"m 333 -17 q 216 8 268 -17 q 127 81 164 33 q 70 195 90 128 q 50 347 50 263 q 74 500 50 432 q 138 615 99 568 q 229 686 178 661 q 333 711 281 711 q 426 692 390 711 q 494 642 463 674 l 486 742 l 486 967 l 725 967 l 725 0 l 531 0 l 514 64 l 508 64 q 426 6 472 28 q 333 -17 379 -17 m 397 178 q 446 188 425 178 q 486 228 467 199 l 486 483 q 440 510 465 503 q 392 517 415 517 q 324 479 354 517 q 294 350 294 442 q 322 217 294 256 q 397 178 349 178 z "},"e":{"ha":731,"x_min":44,"x_max":681,"o":"m 403 -17 q 261 8 326 -17 q 148 78 196 32 q 72 193 100 125 q 44 347 44 261 q 73 499 44 432 q 148 614 101 567 q 254 686 194 661 q 378 711 314 711 q 511 685 454 711 q 606 613 568 658 q 662 506 643 567 q 681 375 681 444 q 677 315 681 343 q 671 275 674 288 l 275 275 q 335 188 292 213 q 436 164 378 164 q 506 174 472 164 q 578 206 540 185 l 656 64 q 530 3 599 24 q 403 -17 461 -17 m 272 431 l 478 431 q 458 501 478 471 q 383 531 438 531 q 313 507 343 531 q 272 431 283 483 z "},"f":{"ha":500,"x_min":31,"x_max":544,"o":"m 122 0 l 122 508 l 31 508 l 31 686 l 122 693 l 122 703 q 136 809 122 758 q 183 899 150 860 q 267 960 215 938 q 397 983 319 983 q 483 975 446 983 q 544 958 521 967 l 503 783 q 468 794 486 790 q 433 797 450 797 q 381 778 400 797 q 361 711 361 760 l 361 694 l 478 694 l 478 508 l 361 508 l 361 0 l 122 0 z "},"g":{"ha":758,"x_min":42,"x_max":736,"o":"m 333 -286 q 221 -277 274 -286 q 128 -247 168 -268 q 65 -194 89 -226 q 42 -114 42 -161 q 139 19 42 -32 l 139 25 q 93 72 111 44 q 75 144 75 100 q 96 215 75 181 q 153 275 117 250 l 153 281 q 87 351 115 306 q 58 458 58 397 q 83 570 58 522 q 150 649 108 618 q 245 696 192 681 q 356 711 299 711 q 467 694 417 711 l 725 694 l 725 522 l 625 522 q 633 490 629 510 q 636 450 636 471 q 614 345 636 389 q 554 274 592 301 q 465 233 517 246 q 356 219 414 219 q 278 229 321 219 q 264 212 267 219 q 261 189 261 204 q 283 156 261 165 q 358 147 306 147 l 463 147 q 665 105 593 147 q 736 -33 736 63 q 708 -137 736 -90 q 627 -217 679 -183 q 501 -268 575 -250 q 333 -286 426 -286 m 356 361 q 410 385 389 361 q 431 458 431 408 q 410 530 431 507 q 356 553 389 553 q 301 530 322 553 q 281 458 281 507 q 301 385 281 408 q 356 361 322 361 m 372 -139 q 469 -122 431 -139 q 508 -75 508 -104 q 484 -40 508 -47 q 415 -33 460 -33 l 361 -33 q 298 -31 319 -33 q 261 -25 276 -29 q 242 -49 249 -37 q 236 -75 236 -60 q 274 -124 236 -108 q 372 -139 311 -139 z "},"h":{"ha":808,"x_min":81,"x_max":733,"o":"m 81 0 l 81 967 l 319 967 l 319 742 l 308 622 q 395 683 344 654 q 517 711 446 711 q 682 634 631 711 q 733 428 733 557 l 733 0 l 494 0 l 494 397 q 478 486 494 464 q 425 508 461 508 q 369 494 392 508 q 319 456 347 481 l 319 0 l 81 0 z "},"i":{"ha":400,"x_min":67,"x_max":333,"o":"m 81 0 l 81 694 l 319 694 l 319 0 l 81 0 m 200 781 q 104 814 142 781 q 67 900 67 847 q 104 986 67 953 q 200 1019 142 1019 q 296 986 258 1019 q 333 900 333 953 q 296 814 333 847 q 200 781 258 781 z "},"j":{"ha":403,"x_min":-78,"x_max":336,"o":"m 53 -261 q -25 -256 4 -261 q -78 -242 -54 -250 l -36 -67 q -10 -73 -21 -71 q 14 -75 1 -75 q 67 -52 51 -75 q 83 28 83 -29 l 83 694 l 322 694 l 322 36 q 310 -76 322 -22 q 266 -171 297 -129 q 183 -237 235 -212 q 53 -261 131 -261 m 203 781 q 107 814 144 781 q 69 900 69 847 q 107 986 69 953 q 203 1019 144 1019 q 299 986 261 1019 q 336 900 336 953 q 299 814 336 847 q 203 781 261 781 z "},"k":{"ha":789,"x_min":81,"x_max":783,"o":"m 81 0 l 81 967 l 314 967 l 314 453 l 319 453 l 511 694 l 769 694 l 522 406 l 783 0 l 525 0 l 386 247 l 314 167 l 314 0 l 81 0 z "},"l":{"ha":414,"x_min":81,"x_max":411,"o":"m 294 -17 q 192 2 233 -17 q 126 56 151 21 q 91 138 101 90 q 81 244 81 186 l 81 967 l 319 967 l 319 236 q 333 188 319 200 q 358 175 346 175 q 370 175 365 175 q 383 178 375 175 l 411 3 q 363 -11 392 -6 q 294 -17 335 -17 z "},"m":{"ha":1206,"x_min":81,"x_max":1131,"o":"m 81 0 l 81 694 l 275 694 l 292 610 l 297 610 q 387 681 339 650 q 506 711 435 711 q 623 683 576 711 q 697 600 669 654 q 790 678 740 644 q 911 711 840 711 q 1078 634 1025 711 q 1131 428 1131 557 l 1131 0 l 892 0 l 892 397 q 875 486 892 464 q 822 508 858 508 q 725 456 778 508 l 725 0 l 486 0 l 486 397 q 469 486 486 464 q 417 508 453 508 q 319 456 372 508 l 319 0 l 81 0 z "},"n":{"ha":808,"x_min":81,"x_max":733,"o":"m 81 0 l 81 694 l 275 694 l 292 611 l 297 611 q 392 681 339 651 q 517 711 446 711 q 682 634 631 711 q 733 428 733 557 l 733 0 l 494 0 l 494 397 q 478 486 494 464 q 425 508 461 508 q 369 494 392 508 q 319 456 347 481 l 319 0 l 81 0 z "},"o":{"ha":778,"x_min":44,"x_max":733,"o":"m 389 -17 q 260 8 322 -17 q 149 78 197 32 q 73 193 101 125 q 44 347 44 261 q 73 501 44 433 q 149 616 101 569 q 260 687 197 663 q 389 711 322 711 q 517 687 456 711 q 627 616 579 663 q 704 501 675 569 q 733 347 733 433 q 704 193 733 261 q 627 78 675 125 q 517 8 579 32 q 389 -17 456 -17 m 389 175 q 466 222 443 175 q 489 347 489 268 q 466 473 489 426 q 389 519 443 519 q 312 473 335 519 q 289 347 289 426 q 312 222 289 268 q 389 175 335 175 z "},"p":{"ha":806,"x_min":81,"x_max":756,"o":"m 81 -244 l 81 694 l 275 694 l 292 631 l 297 631 q 385 689 336 667 q 486 711 433 711 q 597 686 547 711 q 683 615 647 661 q 737 504 718 569 q 756 358 756 439 q 731 199 756 268 q 667 81 707 129 q 574 8 626 33 q 467 -17 522 -17 q 311 53 381 -17 l 319 -53 l 319 -244 l 81 -244 m 408 178 q 481 217 450 178 q 511 356 511 256 q 487 479 511 442 q 414 517 463 517 q 365 506 386 517 q 319 467 343 494 l 319 211 q 363 185 340 192 q 408 178 385 178 z "},"q":{"ha":806,"x_min":50,"x_max":725,"o":"m 486 -244 l 486 -46 l 494 53 q 419 2 463 21 q 333 -17 375 -17 q 216 8 268 -17 q 127 81 164 33 q 70 195 90 128 q 50 347 50 263 q 74 500 50 432 q 138 615 99 568 q 229 686 178 661 q 333 711 281 711 q 431 691 389 711 q 514 625 474 671 l 519 625 l 539 694 l 725 694 l 725 -244 l 486 -244 m 397 178 q 446 188 425 178 q 486 228 467 199 l 486 483 q 440 510 465 503 q 392 517 415 517 q 324 479 354 517 q 294 350 294 442 q 322 217 294 256 q 397 178 349 178 z "},"r":{"ha":581,"x_min":81,"x_max":581,"o":"m 81 0 l 81 694 l 275 694 l 292 575 l 297 575 q 390 678 336 646 q 494 711 443 711 q 546 708 526 711 q 581 697 565 704 l 542 492 q 505 499 522 496 q 464 503 488 503 q 385 477 426 503 q 319 386 344 451 l 319 0 l 81 0 z "},"s":{"ha":628,"x_min":25,"x_max":592,"o":"m 294 -17 q 153 10 228 -17 q 25 81 79 36 l 131 228 q 300 158 225 158 q 353 169 338 158 q 369 200 369 179 q 358 224 369 214 q 328 244 347 235 q 286 261 310 253 q 236 281 263 269 q 174 310 206 293 q 118 353 143 328 q 77 410 93 378 q 61 486 61 443 q 81 579 61 538 q 138 650 101 621 q 224 695 174 679 q 336 711 275 711 q 484 683 422 711 q 592 619 546 654 l 486 478 q 413 521 449 506 q 344 536 376 536 q 283 497 283 536 q 294 474 283 483 q 322 456 304 464 q 364 440 340 447 q 414 422 388 432 q 476 394 444 411 q 534 353 508 378 q 576 295 560 329 q 592 214 592 261 q 572 123 592 165 q 515 49 553 81 q 422 1 478 18 q 294 -17 367 -17 z "},"t":{"ha":556,"x_min":19,"x_max":531,"o":"m 367 -17 q 251 3 299 -17 q 172 61 203 24 q 126 151 140 99 q 111 267 111 203 l 111 508 l 19 508 l 19 686 l 125 694 l 153 875 l 350 875 l 350 694 l 508 694 l 508 508 l 350 508 l 350 271 q 375 191 350 213 q 433 169 400 169 q 466 173 450 169 q 494 181 482 176 l 531 8 q 464 -8 503 0 q 367 -17 425 -17 z "},"u":{"ha":803,"x_min":75,"x_max":722,"o":"m 292 -17 q 194 3 235 -17 q 126 60 153 24 q 88 149 100 97 q 75 267 75 201 l 75 694 l 314 694 l 314 297 q 331 208 314 231 q 383 186 347 186 q 438 200 417 186 q 483 247 460 214 l 483 694 l 722 694 l 722 0 l 528 0 l 511 92 l 506 92 q 413 13 464 42 q 292 -17 363 -17 z "},"v":{"ha":756,"x_min":17,"x_max":739,"o":"m 244 0 l 17 694 l 256 694 l 331 392 q 381 175 356 288 l 386 175 q 436 392 411 288 l 511 694 l 739 694 l 519 0 l 244 0 z "},"w":{"ha":1108,"x_min":33,"x_max":1075,"o":"m 200 0 l 33 694 l 269 694 l 322 403 q 336 298 331 350 q 350 192 342 246 l 356 192 q 373 299 364 246 q 394 403 382 353 l 458 694 l 661 694 l 728 403 q 749 298 740 350 q 769 192 758 246 l 775 192 q 789 298 783 246 q 803 403 794 350 l 856 694 l 1075 694 l 917 0 l 639 0 l 589 242 q 572 339 581 290 q 556 446 564 388 l 550 446 q 535 339 542 388 q 519 242 528 290 l 472 0 l 200 0 z "},"x":{"ha":750,"x_min":19,"x_max":731,"o":"m 19 0 l 228 361 l 31 694 l 286 694 l 336 597 q 364 538 350 568 q 392 478 378 507 l 397 478 q 418 538 407 507 q 439 597 429 568 l 472 694 l 719 694 l 522 333 l 731 0 l 475 0 l 419 97 q 389 157 404 126 q 358 217 374 188 l 353 217 q 329 158 342 188 q 306 97 317 128 l 267 0 l 19 0 z "},"y":{"ha":753,"x_min":17,"x_max":736,"o":"m 183 -261 q 124 -258 147 -261 q 78 -247 101 -254 l 119 -67 q 141 -72 129 -69 q 164 -75 153 -75 q 237 -56 213 -75 q 272 -6 261 -37 l 281 25 l 17 694 l 256 694 l 339 428 q 365 331 354 379 q 389 231 376 283 l 394 231 q 416 329 406 281 q 439 428 426 378 l 508 694 l 736 694 l 503 11 q 447 -111 475 -60 q 381 -196 418 -162 q 295 -245 343 -229 q 183 -261 247 -261 z "},"z":{"ha":658,"x_min":56,"x_max":625,"o":"m 56 0 l 56 128 l 319 508 l 86 508 l 86 694 l 617 694 l 617 567 l 353 186 l 625 186 l 625 0 l 56 0 z "},"À":{"ha":811,"x_min":-14,"x_max":825,"o":"m 333 439 l 318 376 l 485 376 l 469 439 q 436 581 453 504 q 403 725 419 657 l 397 725 q 366 580 382 656 q 333 439 350 504 m -14 0 l 261 903 l 550 903 l 825 0 l 572 0 l 528 192 l 275 192 l 231 0 l -14 0 m 411 936 l 139 1103 l 264 1256 l 517 1056 l 411 936 z "},"Á":{"ha":811,"x_min":-14,"x_max":825,"o":"m 333 439 l 318 376 l 485 376 l 469 439 q 436 581 453 504 q 403 725 419 657 l 397 725 q 366 580 382 656 q 333 439 350 504 m -14 0 l 261 903 l 550 903 l 825 0 l 572 0 l 528 192 l 275 192 l 231 0 l -14 0 m 389 936 l 283 1056 l 536 1256 l 661 1103 l 389 936 z "},"Â":{"ha":811,"x_min":-14,"x_max":825,"o":"m 333 439 l 318 376 l 485 376 l 469 439 q 436 581 453 504 q 403 725 419 657 l 397 725 q 366 580 382 656 q 333 439 350 504 m -14 0 l 261 903 l 550 903 l 825 0 l 572 0 l 528 192 l 275 192 l 231 0 l -14 0 m 153 1006 l 269 1158 l 531 1158 l 647 1006 l 544 944 l 403 1056 l 397 1056 l 256 944 l 153 1006 z "},"Ã":{"ha":811,"x_min":-14,"x_max":825,"o":"m 333 439 l 318 376 l 485 376 l 469 439 q 436 581 453 504 q 403 725 419 657 l 397 725 q 366 580 382 656 q 333 439 350 504 m -14 0 l 261 903 l 550 903 l 825 0 l 572 0 l 528 192 l 275 192 l 231 0 l -14 0 m 497 953 q 433 964 461 953 q 382 989 404 975 q 342 1014 360 1003 q 311 1025 325 1025 q 283 1014 294 1025 q 267 967 271 1003 l 114 978 q 133 1075 117 1035 q 174 1140 149 1115 q 232 1177 199 1165 q 303 1189 265 1189 q 367 1178 339 1189 q 418 1153 396 1167 q 457 1128 440 1139 q 489 1117 474 1117 q 517 1128 506 1117 q 533 1175 529 1139 l 686 1164 q 667 1067 683 1107 q 626 1001 651 1026 q 568 965 601 976 q 497 953 535 953 z "},"Ä":{"ha":811,"x_min":-14,"x_max":825,"o":"m 333 439 l 318 376 l 485 376 l 469 439 q 436 581 453 504 q 403 725 419 657 l 397 725 q 366 580 382 656 q 333 439 350 504 m -14 0 l 261 903 l 550 903 l 825 0 l 572 0 l 528 192 l 275 192 l 231 0 l -14 0 m 242 964 q 163 995 193 964 q 133 1072 133 1026 q 163 1149 133 1118 q 242 1181 193 1181 q 320 1149 290 1181 q 350 1072 350 1118 q 320 995 350 1026 q 242 964 290 964 m 558 964 q 480 995 510 964 q 450 1072 450 1026 q 480 1149 450 1118 q 558 1181 510 1181 q 637 1149 607 1181 q 667 1072 667 1118 q 637 995 667 1026 q 558 964 607 964 z "},"Ā":{"ha":811,"x_min":-14,"x_max":825,"o":"m 333 439 l 318 376 l 485 376 l 469 439 q 436 581 453 504 q 403 725 419 657 l 397 725 q 366 580 382 656 q 333 439 350 504 m -14 0 l 261 903 l 550 903 l 825 0 l 572 0 l 528 192 l 275 192 l 231 0 l -14 0 m 181 994 l 181 1144 l 619 1144 l 619 994 l 181 994 z "},"Ă":{"ha":811,"x_min":-14,"x_max":825,"o":"m 333 439 l 318 376 l 485 376 l 469 439 q 436 581 453 504 q 403 725 419 657 l 397 725 q 366 580 382 656 q 333 439 350 504 m -14 0 l 261 903 l 550 903 l 825 0 l 572 0 l 528 192 l 275 192 l 231 0 l -14 0 m 400 964 q 234 1011 293 964 q 164 1158 175 1058 l 292 1181 q 330 1120 301 1140 q 400 1100 358 1100 q 470 1120 442 1100 q 508 1181 499 1140 l 636 1158 q 566 1011 625 1058 q 400 964 507 964 z "},"Å":{"ha":811,"x_min":-14,"x_max":825,"o":"m 333 439 l 318 376 l 485 376 l 469 439 q 436 581 453 504 q 403 725 419 657 l 397 725 q 366 580 382 656 q 333 439 350 504 m -14 0 l 261 903 l 550 903 l 825 0 l 572 0 l 528 192 l 275 192 l 231 0 l -14 0 m 400 967 q 279 1005 325 967 q 233 1108 233 1043 q 279 1212 233 1174 q 400 1250 325 1250 q 521 1212 475 1250 q 567 1108 567 1174 q 521 1005 567 1043 q 400 967 475 967 m 400 1053 q 438 1068 422 1053 q 453 1108 453 1083 q 438 1149 453 1133 q 400 1164 422 1164 q 363 1149 378 1164 q 347 1108 347 1133 q 363 1068 347 1083 q 400 1053 378 1053 z "},"Ǎ":{"ha":811,"x_min":-14,"x_max":825,"o":"m 333 439 l 318 376 l 485 376 l 469 439 q 436 581 453 504 q 403 725 419 657 l 397 725 q 366 580 382 656 q 333 439 350 504 m -14 0 l 261 903 l 550 903 l 825 0 l 572 0 l 528 192 l 275 192 l 231 0 l -14 0 m 269 972 l 153 1125 l 256 1186 l 397 1075 l 403 1075 l 544 1186 l 647 1125 l 531 972 l 269 972 z "},"Ạ":{"ha":811,"x_min":-14,"x_max":825,"o":"m 333 439 l 318 376 l 485 376 l 469 439 q 436 581 453 504 q 403 725 419 657 l 397 725 q 366 580 382 656 q 333 439 350 504 m -14 0 l 261 903 l 550 903 l 825 0 l 572 0 l 528 192 l 275 192 l 231 0 l -14 0 m 400 -324 q 308 -290 343 -324 q 272 -204 272 -257 q 308 -118 272 -151 q 400 -85 343 -85 q 492 -118 457 -85 q 528 -204 528 -151 q 492 -290 528 -257 q 400 -324 457 -324 z "},"Ả":{"ha":811,"x_min":-14,"x_max":825,"o":"m 333 439 l 318 376 l 485 376 l 469 439 q 436 581 453 504 q 403 725 419 657 l 397 725 q 366 580 382 656 q 333 439 350 504 m -14 0 l 261 903 l 550 903 l 825 0 l 572 0 l 528 192 l 275 192 l 231 0 l -14 0 m 333 956 l 317 1047 q 356 1057 340 1050 q 372 1081 372 1064 q 349 1108 372 1097 q 264 1122 325 1118 l 292 1239 q 412 1226 364 1236 q 489 1198 460 1215 q 530 1157 518 1181 q 542 1106 542 1133 q 525 1041 542 1068 q 480 995 508 1014 q 414 967 451 976 q 333 956 376 957 z "},"Ấ":{"ha":811,"x_min":-14,"x_max":825,"o":"m 333 439 l 318 376 l 485 376 l 469 439 q 436 581 453 504 q 403 725 419 657 l 397 725 q 366 580 382 656 q 333 439 350 504 m -14 0 l 261 903 l 550 903 l 825 0 l 572 0 l 528 192 l 275 192 l 231 0 l -14 0 m 269 944 l 175 1006 l 297 1150 l 503 1150 l 625 1006 l 531 944 l 403 1044 l 397 1044 l 269 944 m 628 1053 l 558 1131 l 700 1247 l 775 1153 l 628 1053 z "},"Ầ":{"ha":811,"x_min":-14,"x_max":825,"o":"m 333 439 l 318 376 l 485 376 l 469 439 q 436 581 453 504 q 403 725 419 657 l 397 725 q 366 580 382 656 q 333 439 350 504 m -14 0 l 261 903 l 550 903 l 825 0 l 572 0 l 528 192 l 275 192 l 231 0 l -14 0 m 269 944 l 175 1006 l 297 1150 l 503 1150 l 625 1006 l 531 944 l 403 1044 l 397 1044 l 269 944 m 242 1131 l 172 1053 l 25 1153 l 100 1247 l 242 1131 z "},"Ẩ":{"ha":811,"x_min":-14,"x_max":825,"o":"m 333 439 l 318 376 l 485 376 l 469 439 q 436 581 453 504 q 403 725 419 657 l 397 725 q 366 580 382 656 q 333 439 350 504 m -14 0 l 261 903 l 550 903 l 825 0 l 572 0 l 528 192 l 275 192 l 231 0 l -14 0 m 269 944 l 175 1006 l 297 1150 l 503 1150 l 625 1006 l 531 944 l 403 1044 l 397 1044 l 269 944 m 603 1039 l 586 1111 q 614 1121 603 1114 q 625 1144 625 1128 q 607 1172 625 1161 q 536 1186 589 1182 l 558 1281 q 664 1268 622 1278 q 731 1243 706 1258 q 765 1207 756 1228 q 775 1164 775 1186 q 726 1071 775 1099 q 603 1039 676 1043 z "},"Ẫ":{"ha":811,"x_min":-14,"x_max":825,"o":"m 333 439 l 318 376 l 485 376 l 469 439 q 436 581 453 504 q 403 725 419 657 l 397 725 q 366 580 382 656 q 333 439 350 504 m -14 0 l 261 903 l 550 903 l 825 0 l 572 0 l 528 192 l 275 192 l 231 0 l -14 0 m 269 944 l 175 1006 l 297 1136 l 503 1136 l 625 1006 l 531 944 l 403 1031 l 397 1031 l 269 944 m 183 1186 q 224 1313 188 1275 q 319 1350 261 1350 q 368 1341 346 1350 q 408 1321 390 1332 q 439 1301 425 1310 q 464 1292 453 1292 q 491 1303 481 1292 q 506 1342 501 1314 l 617 1328 q 576 1201 613 1239 q 481 1164 539 1164 q 431 1173 453 1164 q 392 1193 410 1182 q 361 1213 375 1204 q 336 1222 347 1222 q 309 1211 319 1222 q 294 1172 299 1200 l 183 1186 z "},"Ậ":{"ha":811,"x_min":-14,"x_max":825,"o":"m 333 439 l 318 376 l 485 376 l 469 439 q 436 581 453 504 q 403 725 419 657 l 397 725 q 366 580 382 656 q 333 439 350 504 m -14 0 l 261 903 l 550 903 l 825 0 l 572 0 l 528 192 l 275 192 l 231 0 l -14 0 m 153 1006 l 269 1158 l 531 1158 l 647 1006 l 544 944 l 403 1056 l 397 1056 l 256 944 l 153 1006 m 400 -324 q 308 -290 343 -324 q 272 -204 272 -257 q 308 -118 272 -151 q 400 -85 343 -85 q 492 -118 457 -85 q 528 -204 528 -151 q 492 -290 528 -257 q 400 -324 457 -324 z "},"Ắ":{"ha":811,"x_min":-14,"x_max":825,"o":"m 333 439 l 318 376 l 485 376 l 469 439 q 436 581 453 504 q 403 725 419 657 l 397 725 q 366 580 382 656 q 333 439 350 504 m -14 0 l 261 903 l 550 903 l 825 0 l 572 0 l 528 192 l 275 192 l 231 0 l -14 0 m 314 1194 l 447 1394 l 594 1306 l 431 1119 l 314 1194 m 400 964 q 234 1011 293 964 q 164 1158 175 1058 l 278 1181 q 321 1109 289 1132 q 400 1086 353 1086 q 479 1109 447 1086 q 522 1181 511 1132 l 636 1158 q 566 1011 625 1058 q 400 964 507 964 z "},"Ằ":{"ha":811,"x_min":-14,"x_max":825,"o":"m 333 439 l 318 376 l 485 376 l 469 439 q 436 581 453 504 q 403 725 419 657 l 397 725 q 366 580 382 656 q 333 439 350 504 m -14 0 l 261 903 l 550 903 l 825 0 l 572 0 l 528 192 l 275 192 l 231 0 l -14 0 m 486 1194 l 369 1119 l 206 1306 l 353 1394 l 486 1194 m 400 964 q 234 1011 293 964 q 164 1158 175 1058 l 278 1181 q 321 1109 289 1132 q 400 1086 353 1086 q 479 1109 447 1086 q 522 1181 511 1132 l 636 1158 q 566 1011 625 1058 q 400 964 507 964 z "},"Ẳ":{"ha":811,"x_min":-14,"x_max":825,"o":"m 333 439 l 318 376 l 485 376 l 469 439 q 436 581 453 504 q 403 725 419 657 l 397 725 q 366 580 382 656 q 333 439 350 504 m -14 0 l 261 903 l 550 903 l 825 0 l 572 0 l 528 192 l 275 192 l 231 0 l -14 0 m 350 1122 l 333 1194 q 361 1204 350 1197 q 372 1228 372 1211 q 354 1255 372 1244 q 283 1269 336 1265 l 306 1364 q 411 1351 369 1361 q 478 1326 453 1342 q 513 1290 503 1311 q 522 1247 522 1269 q 473 1154 522 1182 q 350 1122 424 1126 m 400 964 q 234 1011 293 964 q 164 1158 175 1058 l 278 1181 q 321 1109 289 1132 q 400 1086 353 1086 q 479 1109 447 1086 q 522 1181 511 1132 l 636 1158 q 566 1011 625 1058 q 400 964 507 964 z "},"Ẵ":{"ha":811,"x_min":-14,"x_max":825,"o":"m 333 439 l 318 376 l 485 376 l 469 439 q 436 581 453 504 q 403 725 419 657 l 397 725 q 366 580 382 656 q 333 439 350 504 m -14 0 l 261 903 l 550 903 l 825 0 l 572 0 l 528 192 l 275 192 l 231 0 l -14 0 m 400 972 q 238 1014 293 972 q 175 1131 183 1056 l 286 1150 q 321 1103 296 1122 q 400 1083 346 1083 q 479 1103 454 1083 q 514 1150 504 1122 l 625 1131 q 562 1014 617 1056 q 400 972 507 972 m 183 1200 q 224 1326 188 1289 q 319 1364 261 1364 q 368 1355 346 1364 q 408 1335 390 1346 q 439 1315 425 1324 q 464 1306 453 1306 q 491 1317 481 1306 q 506 1356 501 1328 l 617 1342 q 576 1215 613 1253 q 481 1178 539 1178 q 431 1187 453 1178 q 392 1207 410 1196 q 361 1227 375 1218 q 336 1236 347 1236 q 309 1225 319 1236 q 294 1186 299 1214 l 183 1200 z "},"Ặ":{"ha":811,"x_min":-14,"x_max":825,"o":"m 333 439 l 318 376 l 485 376 l 469 439 q 436 581 453 504 q 403 725 419 657 l 397 725 q 366 580 382 656 q 333 439 350 504 m -14 0 l 261 903 l 550 903 l 825 0 l 572 0 l 528 192 l 275 192 l 231 0 l -14 0 m 400 964 q 234 1011 293 964 q 164 1158 175 1058 l 292 1181 q 330 1120 301 1140 q 400 1100 358 1100 q 470 1120 442 1100 q 508 1181 499 1140 l 636 1158 q 566 1011 625 1058 q 400 964 507 964 m 400 -324 q 308 -290 343 -324 q 272 -204 272 -257 q 308 -118 272 -151 q 400 -85 343 -85 q 492 -118 457 -85 q 528 -204 528 -151 q 492 -290 528 -257 q 400 -324 457 -324 z "},"Ą":{"ha":811,"x_min":-14,"x_max":850,"o":"m 692 -317 q 572 -281 621 -317 q 522 -181 522 -246 q 534 -118 522 -147 q 564 -65 546 -89 q 602 -25 582 -42 q 639 0 622 -8 l 572 0 l 528 192 l 275 192 l 231 0 l -14 0 l 261 903 l 550 903 l 825 0 q 770 -10 794 0 q 729 -37 746 -21 q 703 -75 713 -54 q 694 -117 694 -96 q 709 -152 694 -140 q 744 -164 724 -164 q 774 -158 760 -164 q 797 -144 788 -151 l 850 -264 q 776 -302 821 -287 q 692 -317 732 -317 m 333 439 l 318 376 l 485 376 l 469 439 q 436 581 453 504 q 403 725 419 657 l 397 725 q 366 580 382 656 q 333 439 350 504 z "},"Æ":{"ha":1186,"x_min":-31,"x_max":1111,"o":"m 428 483 l 378 368 l 528 368 l 528 725 l 522 725 q 474 599 497 660 q 428 483 451 538 m -31 0 l 381 903 l 1097 903 l 1097 703 l 767 703 l 767 561 l 1047 561 l 1047 361 l 767 361 l 767 200 l 1111 200 l 1111 0 l 528 0 l 528 183 l 299 183 l 219 0 l -31 0 z "},"Ǽ":{"ha":1186,"x_min":-31,"x_max":1111,"o":"m 428 483 l 378 368 l 528 368 l 528 725 l 522 725 q 474 599 497 660 q 428 483 451 538 m -31 0 l 381 903 l 1097 903 l 1097 703 l 767 703 l 767 561 l 1047 561 l 1047 361 l 767 361 l 767 200 l 1111 200 l 1111 0 l 528 0 l 528 183 l 299 183 l 219 0 l -31 0 m 719 967 l 614 1086 l 867 1286 l 992 1133 l 719 967 z "},"Ǣ":{"ha":1186,"x_min":-31,"x_max":1111,"o":"m 428 483 l 378 368 l 528 368 l 528 725 l 522 725 q 474 599 497 660 q 428 483 451 538 m -31 0 l 381 903 l 1097 903 l 1097 703 l 767 703 l 767 561 l 1047 561 l 1047 361 l 767 361 l 767 200 l 1111 200 l 1111 0 l 528 0 l 528 183 l 299 183 l 219 0 l -31 0 m 511 1025 l 511 1175 l 950 1175 l 950 1025 l 511 1025 z "},"Ƀ":{"ha":886,"x_min":33,"x_max":844,"o":"m 136 0 l 136 242 l 33 242 l 33 344 l 136 353 l 136 903 l 461 903 q 594 892 532 903 q 703 857 657 882 q 776 790 749 832 q 803 686 803 749 q 794 632 803 658 q 767 582 786 606 q 720 540 749 558 q 653 511 692 521 l 653 506 q 797 431 749 486 q 844 281 844 376 q 816 154 844 207 q 740 67 788 101 q 626 16 692 32 q 489 0 561 0 l 136 0 m 375 561 l 456 561 q 544 588 514 561 q 575 656 575 614 q 544 715 575 697 q 456 733 514 733 l 375 733 l 375 561 m 375 169 l 472 169 q 580 203 543 169 q 617 300 617 238 q 580 394 617 365 q 472 422 543 422 l 375 422 l 375 353 l 536 353 l 536 242 l 375 242 l 375 169 z "},"Ḇ":{"ha":850,"x_min":100,"x_max":808,"o":"m 100 0 l 100 903 l 425 903 q 558 892 496 903 q 667 857 621 882 q 740 788 713 832 q 767 678 767 744 q 758 619 767 649 q 735 562 750 589 q 700 514 721 535 q 653 483 679 493 l 653 478 q 763 408 718 458 q 808 267 808 357 q 780 147 808 197 q 703 63 751 96 q 590 15 656 31 q 453 0 525 0 l 100 0 m 339 550 l 419 550 q 506 575 478 550 q 533 642 533 600 q 506 701 533 683 q 419 719 478 719 l 339 719 l 339 550 m 339 183 l 436 183 q 575 283 575 183 q 541 354 575 333 q 436 375 507 375 l 339 375 l 339 183 m 231 -271 l 231 -121 l 658 -121 l 658 -271 l 231 -271 z "},"Ç":{"ha":814,"x_min":61,"x_max":789,"o":"m 492 -17 q 327 12 406 -17 q 190 98 249 40 q 96 242 131 156 q 61 444 61 329 q 97 647 61 558 q 194 795 133 735 q 333 888 254 856 q 497 919 411 919 q 658 884 588 919 q 778 800 729 849 l 653 647 q 584 695 619 676 q 503 714 549 714 q 427 696 463 714 q 365 644 392 678 q 322 563 338 611 q 306 453 306 514 q 359 257 306 325 q 500 189 413 189 q 594 212 553 189 q 664 267 635 235 l 789 117 q 655 17 731 50 q 492 -17 579 -17 m 339 -339 l 322 -247 q 431 -231 401 -243 q 461 -189 461 -218 q 440 -156 461 -171 q 356 -133 419 -142 l 425 6 l 561 6 l 522 -83 q 603 -120 576 -96 q 631 -189 631 -144 q 554 -299 631 -264 q 339 -339 478 -335 z "},"Ć":{"ha":814,"x_min":61,"x_max":789,"o":"m 492 -17 q 327 12 406 -17 q 190 98 249 40 q 96 242 131 156 q 61 444 61 329 q 97 647 61 558 q 194 795 133 735 q 333 888 254 856 q 497 919 411 919 q 658 884 588 919 q 778 800 729 849 l 653 647 q 584 695 619 676 q 503 714 549 714 q 427 696 463 714 q 365 644 392 678 q 322 563 338 611 q 306 453 306 514 q 359 257 306 325 q 500 189 413 189 q 594 212 553 189 q 664 267 635 235 l 789 117 q 655 17 731 50 q 492 -17 579 -17 m 472 936 l 367 1056 l 619 1256 l 744 1103 l 472 936 z "},"Ĉ":{"ha":814,"x_min":61,"x_max":789,"o":"m 492 -17 q 327 12 406 -17 q 190 98 249 40 q 96 242 131 156 q 61 444 61 329 q 97 647 61 558 q 194 795 133 735 q 333 888 254 856 q 497 919 411 919 q 658 884 588 919 q 778 800 729 849 l 653 647 q 584 695 619 676 q 503 714 549 714 q 427 696 463 714 q 365 644 392 678 q 322 563 338 611 q 306 453 306 514 q 359 257 306 325 q 500 189 413 189 q 594 212 553 189 q 664 267 635 235 l 789 117 q 655 17 731 50 q 492 -17 579 -17 m 236 1006 l 353 1158 l 614 1158 l 731 1006 l 628 944 l 486 1056 l 481 1056 l 339 944 l 236 1006 z "},"Č":{"ha":814,"x_min":61,"x_max":789,"o":"m 492 -17 q 327 12 406 -17 q 190 98 249 40 q 96 242 131 156 q 61 444 61 329 q 97 647 61 558 q 194 795 133 735 q 333 888 254 856 q 497 919 411 919 q 658 884 588 919 q 778 800 729 849 l 653 647 q 584 695 619 676 q 503 714 549 714 q 427 696 463 714 q 365 644 392 678 q 322 563 338 611 q 306 453 306 514 q 359 257 306 325 q 500 189 413 189 q 594 212 553 189 q 664 267 635 235 l 789 117 q 655 17 731 50 q 492 -17 579 -17 m 353 972 l 236 1125 l 339 1186 l 481 1075 l 486 1075 l 628 1186 l 731 1125 l 614 972 l 353 972 z "},"Ċ":{"ha":814,"x_min":61,"x_max":789,"o":"m 492 -17 q 327 12 406 -17 q 190 98 249 40 q 96 242 131 156 q 61 444 61 329 q 97 647 61 558 q 194 795 133 735 q 333 888 254 856 q 497 919 411 919 q 658 884 588 919 q 778 800 729 849 l 653 647 q 584 695 619 676 q 503 714 549 714 q 427 696 463 714 q 365 644 392 678 q 322 563 338 611 q 306 453 306 514 q 359 257 306 325 q 500 189 413 189 q 594 212 553 189 q 664 267 635 235 l 789 117 q 655 17 731 50 q 492 -17 579 -17 m 483 967 q 388 1000 425 967 q 350 1086 350 1033 q 388 1172 350 1139 q 483 1206 425 1206 q 579 1172 542 1206 q 617 1086 617 1139 q 579 1000 617 1033 q 483 967 542 967 z "},"Ď":{"ha":892,"x_min":100,"x_max":831,"o":"m 100 0 l 100 903 l 367 903 q 555 878 469 903 q 701 799 640 853 q 797 660 763 744 q 831 456 831 575 q 797 250 831 336 q 703 108 764 164 q 560 26 643 53 q 381 0 478 0 l 100 0 m 339 192 l 353 192 q 444 203 401 192 q 519 244 488 215 q 568 325 550 274 q 586 456 586 376 q 568 585 586 535 q 519 663 550 635 q 444 701 488 690 q 353 711 401 711 l 339 711 l 339 192 m 317 972 l 200 1125 l 303 1186 l 444 1075 l 450 1075 l 592 1186 l 694 1125 l 578 972 l 317 972 z "},"Ḍ":{"ha":892,"x_min":100,"x_max":831,"o":"m 100 0 l 100 903 l 367 903 q 555 878 469 903 q 701 799 640 853 q 797 660 763 744 q 831 456 831 575 q 797 250 831 336 q 703 108 764 164 q 560 26 643 53 q 381 0 478 0 l 100 0 m 339 192 l 353 192 q 444 203 401 192 q 519 244 488 215 q 568 325 550 274 q 586 456 586 376 q 568 585 586 535 q 519 663 550 635 q 444 701 488 690 q 353 711 401 711 l 339 711 l 339 192 m 439 -324 q 347 -290 382 -324 q 311 -204 311 -257 q 347 -118 311 -151 q 439 -85 382 -85 q 531 -118 496 -85 q 567 -204 567 -151 q 531 -290 567 -257 q 439 -324 496 -324 z "},"Ḏ":{"ha":892,"x_min":100,"x_max":831,"o":"m 100 0 l 100 903 l 367 903 q 555 878 469 903 q 701 799 640 853 q 797 660 763 744 q 831 456 831 575 q 797 250 831 336 q 703 108 764 164 q 560 26 643 53 q 381 0 478 0 l 100 0 m 339 192 l 353 192 q 444 203 401 192 q 519 244 488 215 q 568 325 550 274 q 586 456 586 376 q 568 585 586 535 q 519 663 550 635 q 444 701 488 690 q 353 711 401 711 l 339 711 l 339 192 m 225 -271 l 225 -121 l 653 -121 l 653 -271 l 225 -271 z "},"Đ":{"ha":928,"x_min":33,"x_max":867,"o":"m 33 408 l 33 511 l 136 519 l 136 903 l 403 903 q 591 878 506 903 q 738 799 676 853 q 833 660 799 744 q 867 456 867 575 q 833 250 867 336 q 740 108 800 164 q 597 26 679 53 q 417 0 514 0 l 136 0 l 136 408 l 33 408 m 375 192 l 389 192 q 481 203 438 192 q 555 244 524 215 q 604 325 586 274 q 622 456 622 376 q 604 585 622 535 q 555 663 586 635 q 481 701 524 690 q 389 711 438 711 l 375 711 l 375 519 l 536 519 l 536 408 l 375 408 l 375 192 z "},"È":{"ha":772,"x_min":100,"x_max":697,"o":"m 100 0 l 100 903 l 683 903 l 683 703 l 339 703 l 339 561 l 633 561 l 633 361 l 339 361 l 339 200 l 697 200 l 697 0 l 100 0 m 414 936 l 142 1103 l 267 1256 l 519 1056 l 414 936 z "},"É":{"ha":772,"x_min":100,"x_max":697,"o":"m 100 0 l 100 903 l 683 903 l 683 703 l 339 703 l 339 561 l 633 561 l 633 361 l 339 361 l 339 200 l 697 200 l 697 0 l 100 0 m 392 936 l 286 1056 l 539 1256 l 664 1103 l 392 936 z "},"Ê":{"ha":772,"x_min":100,"x_max":697,"o":"m 100 0 l 100 903 l 683 903 l 683 703 l 339 703 l 339 561 l 633 561 l 633 361 l 339 361 l 339 200 l 697 200 l 697 0 l 100 0 m 156 1006 l 272 1158 l 533 1158 l 650 1006 l 547 944 l 406 1056 l 400 1056 l 258 944 l 156 1006 z "},"Ě":{"ha":772,"x_min":100,"x_max":697,"o":"m 100 0 l 100 903 l 683 903 l 683 703 l 339 703 l 339 561 l 633 561 l 633 361 l 339 361 l 339 200 l 697 200 l 697 0 l 100 0 m 272 972 l 156 1125 l 258 1186 l 400 1075 l 406 1075 l 547 1186 l 650 1125 l 533 972 l 272 972 z "},"Ë":{"ha":772,"x_min":100,"x_max":697,"o":"m 100 0 l 100 903 l 683 903 l 683 703 l 339 703 l 339 561 l 633 561 l 633 361 l 339 361 l 339 200 l 697 200 l 697 0 l 100 0 m 244 964 q 166 995 196 964 q 136 1072 136 1026 q 166 1149 136 1118 q 244 1181 196 1181 q 323 1149 293 1181 q 353 1072 353 1118 q 323 995 353 1026 q 244 964 293 964 m 561 964 q 483 995 513 964 q 453 1072 453 1026 q 483 1149 453 1118 q 561 1181 513 1181 q 640 1149 610 1181 q 669 1072 669 1118 q 640 995 669 1026 q 561 964 610 964 z "},"Ē":{"ha":772,"x_min":100,"x_max":697,"o":"m 100 0 l 100 903 l 683 903 l 683 703 l 339 703 l 339 561 l 633 561 l 633 361 l 339 361 l 339 200 l 697 200 l 697 0 l 100 0 m 183 994 l 183 1144 l 622 1144 l 622 994 l 183 994 z "},"Ĕ":{"ha":772,"x_min":100,"x_max":697,"o":"m 100 0 l 100 903 l 683 903 l 683 703 l 339 703 l 339 561 l 633 561 l 633 361 l 339 361 l 339 200 l 697 200 l 697 0 l 100 0 m 403 964 q 237 1011 296 964 q 167 1158 178 1058 l 294 1181 q 333 1120 304 1140 q 403 1100 361 1100 q 473 1120 444 1100 q 511 1181 501 1140 l 639 1158 q 569 1011 628 1058 q 403 964 510 964 z "},"Ė":{"ha":772,"x_min":100,"x_max":697,"o":"m 100 0 l 100 903 l 683 903 l 683 703 l 339 703 l 339 561 l 633 561 l 633 361 l 339 361 l 339 200 l 697 200 l 697 0 l 100 0 m 403 967 q 307 1000 344 967 q 269 1086 269 1033 q 307 1172 269 1139 q 403 1206 344 1206 q 499 1172 461 1206 q 536 1086 536 1139 q 499 1000 536 1033 q 403 967 461 967 z "},"Ẹ":{"ha":772,"x_min":100,"x_max":697,"o":"m 100 0 l 100 903 l 683 903 l 683 703 l 339 703 l 339 561 l 633 561 l 633 361 l 339 361 l 339 200 l 697 200 l 697 0 l 100 0 m 408 -324 q 316 -290 351 -324 q 281 -204 281 -257 q 316 -118 281 -151 q 408 -85 351 -85 q 501 -118 465 -85 q 536 -204 536 -151 q 501 -290 536 -257 q 408 -324 465 -324 z "},"Ẻ":{"ha":772,"x_min":100,"x_max":697,"o":"m 100 0 l 100 903 l 683 903 l 683 703 l 339 703 l 339 561 l 633 561 l 633 361 l 339 361 l 339 200 l 697 200 l 697 0 l 100 0 m 336 956 l 319 1047 q 359 1057 343 1050 q 375 1081 375 1064 q 351 1108 375 1097 q 267 1122 328 1118 l 294 1239 q 415 1226 367 1236 q 492 1198 463 1215 q 533 1157 521 1181 q 544 1106 544 1133 q 528 1041 544 1068 q 483 995 511 1014 q 417 967 454 976 q 336 956 379 957 z "},"Ẽ":{"ha":772,"x_min":100,"x_max":697,"o":"m 100 0 l 100 903 l 683 903 l 683 703 l 339 703 l 339 561 l 633 561 l 633 361 l 339 361 l 339 200 l 697 200 l 697 0 l 100 0 m 500 953 q 435 964 464 953 q 385 989 407 975 q 345 1014 363 1003 q 314 1025 328 1025 q 285 1014 297 1025 q 269 967 274 1003 l 117 978 q 135 1075 119 1035 q 176 1140 151 1115 q 235 1177 201 1165 q 306 1189 268 1189 q 370 1178 342 1189 q 421 1153 399 1167 q 460 1128 443 1139 q 492 1117 476 1117 q 520 1128 508 1117 q 536 1175 532 1139 l 689 1164 q 670 1067 686 1107 q 629 1001 654 1026 q 571 965 604 976 q 500 953 538 953 z "},"Ế":{"ha":772,"x_min":100,"x_max":778,"o":"m 100 0 l 100 903 l 683 903 l 683 703 l 339 703 l 339 561 l 633 561 l 633 361 l 339 361 l 339 200 l 697 200 l 697 0 l 100 0 m 272 944 l 178 1006 l 300 1150 l 506 1150 l 628 1006 l 533 944 l 406 1044 l 400 1044 l 272 944 m 631 1053 l 561 1131 l 703 1247 l 778 1153 l 631 1053 z "},"Ề":{"ha":772,"x_min":28,"x_max":697,"o":"m 100 0 l 100 903 l 683 903 l 683 703 l 339 703 l 339 561 l 633 561 l 633 361 l 339 361 l 339 200 l 697 200 l 697 0 l 100 0 m 272 944 l 178 1006 l 300 1150 l 506 1150 l 628 1006 l 533 944 l 406 1044 l 400 1044 l 272 944 m 244 1131 l 175 1053 l 28 1153 l 103 1247 l 244 1131 z "},"Ể":{"ha":772,"x_min":100,"x_max":778,"o":"m 100 0 l 100 903 l 683 903 l 683 703 l 339 703 l 339 561 l 633 561 l 633 361 l 339 361 l 339 200 l 697 200 l 697 0 l 100 0 m 272 944 l 178 1006 l 300 1150 l 506 1150 l 628 1006 l 533 944 l 406 1044 l 400 1044 l 272 944 m 606 1039 l 589 1111 q 617 1121 606 1114 q 628 1144 628 1128 q 610 1172 628 1161 q 539 1186 592 1182 l 561 1281 q 667 1268 625 1278 q 733 1243 708 1258 q 768 1207 758 1228 q 778 1164 778 1186 q 728 1071 778 1099 q 606 1039 679 1043 z "},"Ễ":{"ha":772,"x_min":100,"x_max":697,"o":"m 100 0 l 100 903 l 683 903 l 683 703 l 339 703 l 339 561 l 633 561 l 633 361 l 339 361 l 339 200 l 697 200 l 697 0 l 100 0 m 272 944 l 178 1006 l 300 1136 l 506 1136 l 628 1006 l 533 944 l 406 1031 l 400 1031 l 272 944 m 186 1186 q 227 1313 190 1275 q 322 1350 264 1350 q 371 1341 349 1350 q 410 1321 393 1332 q 442 1301 428 1310 q 467 1292 456 1292 q 494 1303 483 1292 q 508 1342 504 1314 l 619 1328 q 578 1201 615 1239 q 483 1164 542 1164 q 434 1173 456 1164 q 395 1193 413 1182 q 364 1213 378 1204 q 339 1222 350 1222 q 312 1211 322 1222 q 297 1172 301 1200 l 186 1186 z "},"Ệ":{"ha":772,"x_min":100,"x_max":697,"o":"m 100 0 l 100 903 l 683 903 l 683 703 l 339 703 l 339 561 l 633 561 l 633 361 l 339 361 l 339 200 l 697 200 l 697 0 l 100 0 m 156 1006 l 272 1158 l 533 1158 l 650 1006 l 547 944 l 406 1056 l 400 1056 l 258 944 l 156 1006 m 408 -324 q 316 -290 351 -324 q 281 -204 281 -257 q 316 -118 281 -151 q 408 -85 351 -85 q 501 -118 465 -85 q 536 -204 536 -151 q 501 -290 536 -257 q 408 -324 465 -324 z "},"Ę":{"ha":772,"x_min":100,"x_max":728,"o":"m 569 -317 q 449 -281 499 -317 q 400 -181 400 -246 q 411 -119 400 -147 q 439 -67 422 -90 q 475 -28 456 -44 q 511 0 494 -11 l 100 0 l 100 903 l 683 903 l 683 703 l 339 703 l 339 561 l 633 561 l 633 361 l 339 361 l 339 200 l 697 200 l 697 0 l 689 0 q 644 -10 665 0 q 606 -37 622 -21 q 581 -75 590 -54 q 572 -117 572 -96 q 590 -153 572 -142 q 628 -164 607 -164 q 653 -158 640 -164 q 675 -144 665 -151 l 728 -264 q 654 -302 699 -287 q 569 -317 610 -317 z "},"Ḗ":{"ha":772,"x_min":100,"x_max":697,"o":"m 100 0 l 100 903 l 683 903 l 683 703 l 339 703 l 339 561 l 633 561 l 633 361 l 339 361 l 339 200 l 697 200 l 697 0 l 100 0 m 353 1161 l 275 1269 l 508 1419 l 603 1289 l 353 1161 m 183 994 l 183 1144 l 622 1144 l 622 994 l 183 994 z "},"Ǵ":{"ha":897,"x_min":61,"x_max":822,"o":"m 517 -17 q 339 12 422 -17 q 194 98 256 40 q 97 242 132 156 q 61 444 61 329 q 97 647 61 558 q 195 795 133 735 q 339 888 257 856 q 511 919 421 919 q 684 884 611 919 q 806 800 757 849 l 681 647 q 610 695 647 676 q 519 714 574 714 q 435 696 474 714 q 367 644 396 678 q 322 563 338 611 q 306 453 306 514 q 363 257 306 325 q 542 189 419 189 q 580 193 561 189 q 611 206 599 197 l 611 331 l 478 331 l 478 525 l 822 525 l 822 94 q 693 16 774 49 q 517 -17 613 -17 m 506 936 l 400 1056 l 653 1256 l 778 1103 l 506 936 z "},"Ĝ":{"ha":897,"x_min":61,"x_max":822,"o":"m 517 -17 q 339 12 422 -17 q 194 98 256 40 q 97 242 132 156 q 61 444 61 329 q 97 647 61 558 q 195 795 133 735 q 339 888 257 856 q 511 919 421 919 q 684 884 611 919 q 806 800 757 849 l 681 647 q 610 695 647 676 q 519 714 574 714 q 435 696 474 714 q 367 644 396 678 q 322 563 338 611 q 306 453 306 514 q 363 257 306 325 q 542 189 419 189 q 580 193 561 189 q 611 206 599 197 l 611 331 l 478 331 l 478 525 l 822 525 l 822 94 q 693 16 774 49 q 517 -17 613 -17 m 269 1006 l 386 1158 l 647 1158 l 764 1006 l 661 944 l 519 1056 l 514 1056 l 372 944 l 269 1006 z "},"Ğ":{"ha":897,"x_min":61,"x_max":822,"o":"m 517 -17 q 339 12 422 -17 q 194 98 256 40 q 97 242 132 156 q 61 444 61 329 q 97 647 61 558 q 195 795 133 735 q 339 888 257 856 q 511 919 421 919 q 684 884 611 919 q 806 800 757 849 l 681 647 q 610 695 647 676 q 519 714 574 714 q 435 696 474 714 q 367 644 396 678 q 322 563 338 611 q 306 453 306 514 q 363 257 306 325 q 542 189 419 189 q 580 193 561 189 q 611 206 599 197 l 611 331 l 478 331 l 478 525 l 822 525 l 822 94 q 693 16 774 49 q 517 -17 613 -17 m 517 964 q 351 1011 410 964 q 281 1158 292 1058 l 408 1181 q 447 1120 418 1140 q 517 1100 475 1100 q 587 1120 558 1100 q 625 1181 615 1140 l 753 1158 q 683 1011 742 1058 q 517 964 624 964 z "},"Ġ":{"ha":897,"x_min":61,"x_max":822,"o":"m 517 -17 q 339 12 422 -17 q 194 98 256 40 q 97 242 132 156 q 61 444 61 329 q 97 647 61 558 q 195 795 133 735 q 339 888 257 856 q 511 919 421 919 q 684 884 611 919 q 806 800 757 849 l 681 647 q 610 695 647 676 q 519 714 574 714 q 435 696 474 714 q 367 644 396 678 q 322 563 338 611 q 306 453 306 514 q 363 257 306 325 q 542 189 419 189 q 580 193 561 189 q 611 206 599 197 l 611 331 l 478 331 l 478 525 l 822 525 l 822 94 q 693 16 774 49 q 517 -17 613 -17 m 517 967 q 421 1000 458 967 q 383 1086 383 1033 q 421 1172 383 1139 q 517 1206 458 1206 q 613 1172 575 1206 q 650 1086 650 1139 q 613 1000 650 1033 q 517 967 575 967 z "},"Ģ":{"ha":897,"x_min":61,"x_max":822,"o":"m 517 -17 q 339 12 422 -17 q 194 98 256 40 q 97 242 132 156 q 61 444 61 329 q 97 647 61 558 q 195 795 133 735 q 339 888 257 856 q 511 919 421 919 q 684 884 611 919 q 806 800 757 849 l 681 647 q 610 695 647 676 q 519 714 574 714 q 435 696 474 714 q 367 644 396 678 q 322 563 338 611 q 306 453 306 514 q 363 257 306 325 q 542 189 419 189 q 580 193 561 189 q 611 206 599 197 l 611 331 l 478 331 l 478 525 l 822 525 l 822 94 q 693 16 774 49 q 517 -17 613 -17 m 361 -339 l 344 -247 q 453 -232 424 -243 q 483 -197 483 -221 q 465 -169 483 -181 q 400 -153 446 -157 l 444 -69 q 544 -83 504 -74 q 608 -108 583 -93 q 642 -142 632 -122 q 653 -189 653 -162 q 576 -299 653 -264 q 361 -339 500 -335 z "},"Ǧ":{"ha":897,"x_min":61,"x_max":822,"o":"m 517 -17 q 339 12 422 -17 q 194 98 256 40 q 97 242 132 156 q 61 444 61 329 q 97 647 61 558 q 195 795 133 735 q 339 888 257 856 q 511 919 421 919 q 684 884 611 919 q 806 800 757 849 l 681 647 q 610 695 647 676 q 519 714 574 714 q 435 696 474 714 q 367 644 396 678 q 322 563 338 611 q 306 453 306 514 q 363 257 306 325 q 542 189 419 189 q 580 193 561 189 q 611 206 599 197 l 611 331 l 478 331 l 478 525 l 822 525 l 822 94 q 693 16 774 49 q 517 -17 613 -17 m 386 972 l 269 1125 l 372 1186 l 514 1075 l 519 1075 l 661 1186 l 764 1125 l 647 972 l 386 972 z "},"Ḡ":{"ha":897,"x_min":61,"x_max":822,"o":"m 517 -17 q 339 12 422 -17 q 194 98 256 40 q 97 242 132 156 q 61 444 61 329 q 97 647 61 558 q 195 795 133 735 q 339 888 257 856 q 511 919 421 919 q 684 884 611 919 q 806 800 757 849 l 681 647 q 610 695 647 676 q 519 714 574 714 q 435 696 474 714 q 367 644 396 678 q 322 563 338 611 q 306 453 306 514 q 363 257 306 325 q 542 189 419 189 q 580 193 561 189 q 611 206 599 197 l 611 331 l 478 331 l 478 525 l 822 525 l 822 94 q 693 16 774 49 q 517 -17 613 -17 m 297 994 l 297 1144 l 736 1144 l 736 994 l 297 994 z "},"Ɠ":{"ha":897,"x_min":61,"x_max":911,"o":"m 517 -17 q 339 12 422 -17 q 194 98 256 40 q 97 242 132 156 q 61 444 61 329 q 97 647 61 558 q 195 795 133 735 q 339 888 257 856 q 511 919 421 919 q 538 919 525 919 q 565 917 551 918 q 564 931 564 921 q 578 1013 564 974 q 620 1081 593 1051 q 688 1127 647 1110 q 781 1144 728 1144 q 858 1138 829 1144 q 911 1125 888 1132 l 869 950 q 851 956 858 954 q 833 958 844 958 q 784 943 804 958 q 764 894 764 928 q 777 850 764 869 q 806 814 790 831 l 681 661 q 610 699 647 685 q 519 714 574 714 q 435 696 474 714 q 367 644 396 678 q 322 563 338 611 q 306 453 306 514 q 363 257 306 325 q 542 189 419 189 q 580 193 561 189 q 611 206 599 197 l 611 331 l 478 331 l 478 525 l 822 525 l 822 94 q 693 16 774 49 q 517 -17 613 -17 z "},"Ĥ":{"ha":947,"x_min":100,"x_max":847,"o":"m 100 0 l 100 903 l 339 903 l 339 567 l 608 567 l 608 903 l 847 903 l 847 0 l 608 0 l 608 358 l 339 358 l 339 0 l 100 0 m 225 1006 l 342 1158 l 603 1158 l 719 1006 l 617 944 l 475 1056 l 469 1056 l 328 944 l 225 1006 z "},"Ḥ":{"ha":947,"x_min":100,"x_max":847,"o":"m 100 0 l 100 903 l 339 903 l 339 567 l 608 567 l 608 903 l 847 903 l 847 0 l 608 0 l 608 358 l 339 358 l 339 0 l 100 0 m 472 -324 q 380 -290 415 -324 q 344 -204 344 -257 q 380 -118 344 -151 q 472 -85 415 -85 q 565 -118 529 -85 q 600 -204 600 -151 q 565 -290 600 -257 q 472 -324 529 -324 z "},"Ḫ":{"ha":947,"x_min":100,"x_max":847,"o":"m 100 0 l 100 903 l 339 903 l 339 567 l 608 567 l 608 903 l 847 903 l 847 0 l 608 0 l 608 358 l 339 358 l 339 0 l 100 0 m 472 -324 q 292 -262 350 -324 q 231 -101 233 -200 l 364 -79 q 397 -149 371 -121 q 472 -176 422 -176 q 548 -149 522 -176 q 581 -79 574 -121 l 714 -101 q 653 -262 711 -200 q 472 -324 594 -324 z "},"Ħ":{"ha":1003,"x_min":31,"x_max":972,"o":"m 31 672 l 31 775 l 128 783 l 128 903 l 367 903 l 367 783 l 636 783 l 636 903 l 875 903 l 875 783 l 972 783 l 972 672 l 875 672 l 875 0 l 636 0 l 636 358 l 367 358 l 367 0 l 128 0 l 128 672 l 31 672 m 367 567 l 636 567 l 636 672 l 367 672 l 367 567 z "},"Ì":{"ha":439,"x_min":-42,"x_max":339,"o":"m 100 0 l 100 903 l 339 903 l 339 0 l 100 0 m 231 936 l -42 1103 l 83 1256 l 336 1056 l 231 936 z "},"Í":{"ha":439,"x_min":100,"x_max":481,"o":"m 100 0 l 100 903 l 339 903 l 339 0 l 100 0 m 208 936 l 103 1056 l 356 1256 l 481 1103 l 208 936 z "},"Î":{"ha":439,"x_min":-28,"x_max":467,"o":"m 100 0 l 100 903 l 339 903 l 339 0 l 100 0 m -28 1006 l 89 1158 l 350 1158 l 467 1006 l 364 944 l 222 1056 l 217 1056 l 75 944 l -28 1006 z "},"Ĩ":{"ha":439,"x_min":-67,"x_max":506,"o":"m 100 0 l 100 903 l 339 903 l 339 0 l 100 0 m 317 953 q 252 964 281 953 q 201 989 224 975 q 162 1014 179 1003 q 131 1025 144 1025 q 102 1014 114 1025 q 86 967 90 1003 l -67 978 q -48 1075 -64 1035 q -7 1140 -32 1115 q 51 1177 18 1165 q 122 1189 85 1189 q 187 1178 158 1189 q 238 1153 215 1167 q 276 1128 260 1139 q 308 1117 293 1117 q 337 1128 325 1117 q 353 1175 349 1139 l 506 1164 q 487 1067 503 1107 q 446 1001 471 1026 q 388 965 421 976 q 317 953 354 953 z "},"Ï":{"ha":439,"x_min":-47,"x_max":486,"o":"m 100 0 l 100 903 l 339 903 l 339 0 l 100 0 m 61 964 q -17 995 13 964 q -47 1072 -47 1026 q -17 1149 -47 1118 q 61 1181 13 1181 q 140 1149 110 1181 q 169 1072 169 1118 q 140 995 169 1026 q 61 964 110 964 m 378 964 q 299 995 329 964 q 269 1072 269 1026 q 299 1149 269 1118 q 378 1181 329 1181 q 456 1149 426 1181 q 486 1072 486 1118 q 456 995 486 1026 q 378 964 426 964 z "},"Ī":{"ha":439,"x_min":0,"x_max":439,"o":"m 100 0 l 100 903 l 339 903 l 339 0 l 100 0 m 0 994 l 0 1144 l 439 1144 l 439 994 l 0 994 z "},"İ":{"ha":439,"x_min":86,"x_max":353,"o":"m 100 0 l 100 903 l 339 903 l 339 0 l 100 0 m 219 967 q 124 1000 161 967 q 86 1086 86 1033 q 124 1172 86 1139 q 219 1206 161 1206 q 315 1172 278 1206 q 353 1086 353 1139 q 315 1000 353 1033 q 219 967 278 967 z "},"Ǐ":{"ha":439,"x_min":-28,"x_max":467,"o":"m 100 0 l 100 903 l 339 903 l 339 0 l 100 0 m 89 972 l -28 1125 l 75 1186 l 217 1075 l 222 1075 l 364 1186 l 467 1125 l 350 972 l 89 972 z "},"Ỉ":{"ha":439,"x_min":83,"x_max":361,"o":"m 100 0 l 100 903 l 339 903 l 339 0 l 100 0 m 153 956 l 136 1047 q 176 1057 160 1050 q 192 1081 192 1064 q 168 1108 192 1097 q 83 1122 144 1118 l 111 1239 q 231 1226 183 1236 q 308 1198 279 1215 q 349 1157 338 1181 q 361 1106 361 1133 q 344 1041 361 1068 q 299 995 328 1014 q 233 967 271 976 q 153 956 196 957 z "},"Ị":{"ha":439,"x_min":92,"x_max":347,"o":"m 100 0 l 100 903 l 339 903 l 339 0 l 100 0 m 219 -324 q 127 -290 163 -324 q 92 -204 92 -257 q 127 -118 92 -151 q 219 -85 163 -85 q 312 -118 276 -85 q 347 -204 347 -151 q 312 -290 347 -257 q 219 -324 276 -324 z "},"Į":{"ha":439,"x_min":58,"x_max":386,"o":"m 228 -317 q 108 -281 157 -317 q 58 -181 58 -246 q 69 -117 58 -146 q 97 -66 81 -89 q 132 -26 114 -43 q 165 0 150 -10 l 100 0 l 100 903 l 339 903 l 339 0 q 254 -51 278 -19 q 231 -117 231 -83 q 248 -153 231 -142 q 285 -164 265 -164 q 312 -158 299 -164 q 333 -144 325 -151 l 386 -264 q 313 -302 357 -287 q 228 -317 268 -317 z "},"Ĭ":{"ha":439,"x_min":-17,"x_max":456,"o":"m 100 0 l 100 903 l 339 903 l 339 0 l 100 0 m 219 964 q 53 1011 113 964 q -17 1158 -6 1058 l 111 1181 q 149 1120 121 1140 q 219 1100 178 1100 q 290 1120 261 1100 q 328 1181 318 1140 l 456 1158 q 385 1011 444 1058 q 219 964 326 964 z "},"Ĵ":{"ha":722,"x_min":14,"x_max":753,"o":"m 322 -17 q 138 25 211 -17 q 14 154 64 67 l 175 275 q 229 210 199 231 q 289 189 260 189 q 331 195 313 189 q 363 218 350 201 q 382 263 375 235 q 389 333 389 290 l 389 903 l 628 903 l 628 314 q 609 186 628 246 q 553 81 590 126 q 458 10 515 36 q 322 -17 400 -17 m 258 1006 l 375 1158 l 636 1158 l 753 1006 l 650 944 l 508 1056 l 503 1056 l 361 944 l 258 1006 z "},"Ķ":{"ha":872,"x_min":100,"x_max":886,"o":"m 100 0 l 100 903 l 339 903 l 339 567 l 344 567 l 572 903 l 833 903 l 564 536 l 886 0 l 625 0 l 425 347 l 339 225 l 339 0 l 100 0 m 314 -339 l 297 -247 q 406 -232 376 -243 q 436 -197 436 -221 q 417 -169 436 -181 q 353 -153 399 -157 l 397 -69 q 497 -83 457 -74 q 560 -108 536 -93 q 595 -142 585 -122 q 606 -189 606 -162 q 529 -299 606 -264 q 314 -339 453 -335 z "},"Ḳ":{"ha":872,"x_min":100,"x_max":886,"o":"m 100 0 l 100 903 l 339 903 l 339 567 l 344 567 l 572 903 l 833 903 l 564 536 l 886 0 l 625 0 l 425 347 l 339 225 l 339 0 l 100 0 m 464 -324 q 372 -290 407 -324 q 336 -204 336 -257 q 372 -118 336 -151 q 464 -85 407 -85 q 556 -118 521 -85 q 592 -204 592 -151 q 556 -290 592 -257 q 464 -324 521 -324 z "},"Ḵ":{"ha":872,"x_min":100,"x_max":886,"o":"m 100 0 l 100 903 l 339 903 l 339 567 l 344 567 l 572 903 l 833 903 l 564 536 l 886 0 l 625 0 l 425 347 l 339 225 l 339 0 l 100 0 m 250 -271 l 250 -121 l 678 -121 l 678 -271 l 250 -271 z "},"Ĺ":{"ha":736,"x_min":100,"x_max":681,"o":"m 100 0 l 100 903 l 339 903 l 339 200 l 681 200 l 681 0 l 100 0 m 214 936 l 108 1056 l 361 1256 l 486 1103 l 214 936 z "},"Ľ":{"ha":736,"x_min":100,"x_max":681,"o":"m 100 0 l 100 903 l 339 903 l 339 200 l 681 200 l 681 0 l 100 0 m 500 707 l 492 1021 l 642 1021 l 639 918 l 600 707 l 500 707 z "},"Ļ":{"ha":736,"x_min":100,"x_max":681,"o":"m 100 0 l 100 903 l 339 903 l 339 200 l 681 200 l 681 0 l 100 0 m 254 -339 l 238 -247 q 347 -232 317 -243 q 376 -197 376 -221 q 358 -169 376 -181 q 293 -153 339 -157 l 338 -69 q 437 -83 397 -74 q 501 -108 476 -93 q 535 -142 525 -122 q 546 -189 546 -162 q 469 -299 546 -264 q 254 -339 393 -335 z "},"Ŀ":{"ha":736,"x_min":100,"x_max":726,"o":"m 100 0 l 100 903 l 339 903 l 339 200 l 681 200 l 681 0 l 100 0 m 588 314 q 488 356 526 314 q 449 458 449 397 q 488 561 449 519 q 588 603 526 603 q 688 561 649 603 q 726 458 726 519 q 688 356 726 397 q 588 314 649 314 z "},"Ḷ":{"ha":736,"x_min":100,"x_max":681,"o":"m 100 0 l 100 903 l 339 903 l 339 200 l 681 200 l 681 0 l 100 0 m 404 -324 q 312 -290 347 -324 q 276 -204 276 -257 q 312 -118 276 -151 q 404 -85 347 -85 q 497 -118 461 -85 q 532 -204 532 -151 q 497 -290 532 -257 q 404 -324 461 -324 z "},"Ḹ":{"ha":736,"x_min":6,"x_max":681,"o":"m 100 0 l 100 903 l 339 903 l 339 200 l 681 200 l 681 0 l 100 0 m 6 994 l 6 1144 l 444 1144 l 444 994 l 6 994 m 404 -324 q 312 -290 347 -324 q 276 -204 276 -257 q 312 -118 276 -151 q 404 -85 347 -85 q 497 -118 461 -85 q 532 -204 532 -151 q 497 -290 532 -257 q 404 -324 461 -324 z "},"Ḻ":{"ha":736,"x_min":100,"x_max":681,"o":"m 100 0 l 100 903 l 339 903 l 339 200 l 681 200 l 681 0 l 100 0 m 190 -271 l 190 -121 l 618 -121 l 618 -271 l 190 -271 z "},"Ł":{"ha":747,"x_min":-42,"x_max":692,"o":"m 39 231 l -42 372 l 111 460 l 111 903 l 350 903 l 350 569 l 558 686 l 639 544 l 350 385 l 350 200 l 692 200 l 692 0 l 111 0 l 111 275 l 39 231 z "},"Ḿ":{"ha":1078,"x_min":100,"x_max":978,"o":"m 100 0 l 100 903 l 356 903 l 492 533 q 515 456 504 496 q 539 375 526 415 l 544 375 q 568 456 557 415 q 592 533 579 496 l 722 903 l 978 903 l 978 0 l 761 0 l 761 267 q 765 343 761 301 q 772 428 768 385 q 782 514 776 472 q 792 589 788 556 l 786 589 l 711 372 l 600 74 l 472 74 l 361 372 l 289 589 l 283 589 q 293 514 288 556 q 303 428 299 472 q 310 343 307 385 q 314 267 314 301 l 314 0 l 100 0 m 528 936 l 422 1056 l 675 1256 l 800 1103 l 528 936 z "},"Ṁ":{"ha":1078,"x_min":100,"x_max":978,"o":"m 100 0 l 100 903 l 356 903 l 492 533 q 515 456 504 496 q 539 375 526 415 l 544 375 q 568 456 557 415 q 592 533 579 496 l 722 903 l 978 903 l 978 0 l 761 0 l 761 267 q 765 343 761 301 q 772 428 768 385 q 782 514 776 472 q 792 589 788 556 l 786 589 l 711 372 l 600 74 l 472 74 l 361 372 l 289 589 l 283 589 q 293 514 288 556 q 303 428 299 472 q 310 343 307 385 q 314 267 314 301 l 314 0 l 100 0 m 539 967 q 443 1000 481 967 q 406 1086 406 1033 q 443 1172 406 1139 q 539 1206 481 1206 q 635 1172 597 1206 q 672 1086 672 1139 q 635 1000 672 1033 q 539 967 597 967 z "},"Ṃ":{"ha":1078,"x_min":100,"x_max":978,"o":"m 100 0 l 100 903 l 356 903 l 492 533 q 515 456 504 496 q 539 375 526 415 l 544 375 q 568 456 557 415 q 592 533 579 496 l 722 903 l 978 903 l 978 0 l 761 0 l 761 267 q 765 343 761 301 q 772 428 768 385 q 782 514 776 472 q 792 589 788 556 l 786 589 l 711 372 l 600 74 l 472 74 l 361 372 l 289 589 l 283 589 q 293 514 288 556 q 303 428 299 472 q 310 343 307 385 q 314 267 314 301 l 314 0 l 100 0 m 542 -324 q 449 -290 485 -324 q 414 -204 414 -257 q 449 -118 414 -151 q 542 -85 485 -85 q 634 -118 599 -85 q 669 -204 669 -151 q 634 -290 669 -257 q 542 -324 599 -324 z "},"Ń":{"ha":933,"x_min":100,"x_max":833,"o":"m 100 0 l 100 903 l 344 903 l 544 500 l 631 297 l 636 297 q 626 376 632 333 q 617 465 621 419 q 609 555 613 510 q 606 642 606 600 l 606 903 l 833 903 l 833 0 l 589 0 l 389 404 l 303 606 l 297 606 q 317 436 306 528 q 328 261 328 344 l 328 0 l 100 0 m 456 936 l 350 1056 l 603 1256 l 728 1103 l 456 936 z "},"Ǹ":{"ha":933,"x_min":100,"x_max":833,"o":"m 100 0 l 100 903 l 344 903 l 544 500 l 631 297 l 636 297 q 626 376 632 333 q 617 465 621 419 q 609 555 613 510 q 606 642 606 600 l 606 903 l 833 903 l 833 0 l 589 0 l 389 404 l 303 606 l 297 606 q 317 436 306 528 q 328 261 328 344 l 328 0 l 100 0 m 478 936 l 206 1103 l 331 1256 l 583 1056 l 478 936 z "},"Ň":{"ha":933,"x_min":100,"x_max":833,"o":"m 100 0 l 100 903 l 344 903 l 544 500 l 631 297 l 636 297 q 626 376 632 333 q 617 465 621 419 q 609 555 613 510 q 606 642 606 600 l 606 903 l 833 903 l 833 0 l 589 0 l 389 404 l 303 606 l 297 606 q 317 436 306 528 q 328 261 328 344 l 328 0 l 100 0 m 336 972 l 219 1125 l 322 1186 l 464 1075 l 469 1075 l 611 1186 l 714 1125 l 597 972 l 336 972 z "},"Ñ":{"ha":933,"x_min":100,"x_max":833,"o":"m 100 0 l 100 903 l 344 903 l 544 500 l 631 297 l 636 297 q 626 376 632 333 q 617 465 621 419 q 609 555 613 510 q 606 642 606 600 l 606 903 l 833 903 l 833 0 l 589 0 l 389 404 l 303 606 l 297 606 q 317 436 306 528 q 328 261 328 344 l 328 0 l 100 0 m 564 953 q 499 964 528 953 q 449 989 471 975 q 409 1014 426 1003 q 378 1025 392 1025 q 349 1014 361 1025 q 333 967 338 1003 l 181 978 q 199 1075 183 1035 q 240 1140 215 1115 q 299 1177 265 1165 q 369 1189 332 1189 q 434 1178 406 1189 q 485 1153 463 1167 q 524 1128 507 1139 q 556 1117 540 1117 q 584 1128 572 1117 q 600 1175 596 1139 l 753 1164 q 734 1067 750 1107 q 693 1001 718 1026 q 635 965 668 976 q 564 953 601 953 z "},"Ņ":{"ha":933,"x_min":100,"x_max":833,"o":"m 100 0 l 100 903 l 344 903 l 544 500 l 631 297 l 636 297 q 626 376 632 333 q 617 465 621 419 q 609 555 613 510 q 606 642 606 600 l 606 903 l 833 903 l 833 0 l 589 0 l 389 404 l 303 606 l 297 606 q 317 436 306 528 q 328 261 328 344 l 328 0 l 100 0 m 336 -339 l 319 -247 q 428 -232 399 -243 q 458 -197 458 -221 q 440 -169 458 -181 q 375 -153 421 -157 l 419 -69 q 519 -83 479 -74 q 583 -108 558 -93 q 617 -142 607 -122 q 628 -189 628 -162 q 551 -299 628 -264 q 336 -339 475 -335 z "},"Ṅ":{"ha":933,"x_min":100,"x_max":833,"o":"m 100 0 l 100 903 l 344 903 l 544 500 l 631 297 l 636 297 q 626 376 632 333 q 617 465 621 419 q 609 555 613 510 q 606 642 606 600 l 606 903 l 833 903 l 833 0 l 589 0 l 389 404 l 303 606 l 297 606 q 317 436 306 528 q 328 261 328 344 l 328 0 l 100 0 m 467 967 q 371 1000 408 967 q 333 1086 333 1033 q 371 1172 333 1139 q 467 1206 408 1206 q 563 1172 525 1206 q 600 1086 600 1139 q 563 1000 600 1033 q 467 967 525 967 z "},"Ṇ":{"ha":933,"x_min":100,"x_max":833,"o":"m 100 0 l 100 903 l 344 903 l 544 500 l 631 297 l 636 297 q 626 376 632 333 q 617 465 621 419 q 609 555 613 510 q 606 642 606 600 l 606 903 l 833 903 l 833 0 l 589 0 l 389 404 l 303 606 l 297 606 q 317 436 306 528 q 328 261 328 344 l 328 0 l 100 0 m 486 -324 q 394 -290 429 -324 q 358 -204 358 -257 q 394 -118 358 -151 q 486 -85 429 -85 q 578 -118 543 -85 q 614 -204 614 -151 q 578 -290 614 -257 q 486 -324 543 -324 z "},"Ṉ":{"ha":933,"x_min":100,"x_max":833,"o":"m 100 0 l 100 903 l 344 903 l 544 500 l 631 297 l 636 297 q 626 376 632 333 q 617 465 621 419 q 609 555 613 510 q 606 642 606 600 l 606 903 l 833 903 l 833 0 l 589 0 l 389 404 l 303 606 l 297 606 q 317 436 306 528 q 328 261 328 344 l 328 0 l 100 0 m 272 -271 l 272 -121 l 700 -121 l 700 -271 l 272 -271 z "},"Ò":{"ha":961,"x_min":61,"x_max":900,"o":"m 481 -17 q 309 15 386 -17 q 177 108 232 47 q 92 256 122 168 q 61 456 61 344 q 92 653 61 567 q 177 799 122 740 q 309 889 232 858 q 481 919 386 919 q 651 889 574 919 q 784 799 729 858 q 869 653 839 739 q 900 456 900 567 q 869 256 900 344 q 784 108 839 168 q 651 15 729 47 q 481 -17 574 -17 m 481 189 q 609 260 563 189 q 656 456 656 332 q 609 647 656 579 q 481 714 563 714 q 352 647 399 714 q 306 456 306 579 q 352 260 306 332 q 481 189 399 189 m 492 936 l 219 1103 l 344 1256 l 597 1056 l 492 936 z "},"Ó":{"ha":961,"x_min":61,"x_max":900,"o":"m 481 -17 q 309 15 386 -17 q 177 108 232 47 q 92 256 122 168 q 61 456 61 344 q 92 653 61 567 q 177 799 122 740 q 309 889 232 858 q 481 919 386 919 q 651 889 574 919 q 784 799 729 858 q 869 653 839 739 q 900 456 900 567 q 869 256 900 344 q 784 108 839 168 q 651 15 729 47 q 481 -17 574 -17 m 481 189 q 609 260 563 189 q 656 456 656 332 q 609 647 656 579 q 481 714 563 714 q 352 647 399 714 q 306 456 306 579 q 352 260 306 332 q 481 189 399 189 m 469 936 l 364 1056 l 617 1256 l 742 1103 l 469 936 z "},"Ô":{"ha":961,"x_min":61,"x_max":900,"o":"m 481 -17 q 309 15 386 -17 q 177 108 232 47 q 92 256 122 168 q 61 456 61 344 q 92 653 61 567 q 177 799 122 740 q 309 889 232 858 q 481 919 386 919 q 651 889 574 919 q 784 799 729 858 q 869 653 839 739 q 900 456 900 567 q 869 256 900 344 q 784 108 839 168 q 651 15 729 47 q 481 -17 574 -17 m 481 189 q 609 260 563 189 q 656 456 656 332 q 609 647 656 579 q 481 714 563 714 q 352 647 399 714 q 306 456 306 579 q 352 260 306 332 q 481 189 399 189 m 233 1006 l 350 1158 l 611 1158 l 728 1006 l 625 944 l 483 1056 l 478 1056 l 336 944 l 233 1006 z "},"Õ":{"ha":961,"x_min":61,"x_max":900,"o":"m 481 -17 q 309 15 386 -17 q 177 108 232 47 q 92 256 122 168 q 61 456 61 344 q 92 653 61 567 q 177 799 122 740 q 309 889 232 858 q 481 919 386 919 q 651 889 574 919 q 784 799 729 858 q 869 653 839 739 q 900 456 900 567 q 869 256 900 344 q 784 108 839 168 q 651 15 729 47 q 481 -17 574 -17 m 481 189 q 609 260 563 189 q 656 456 656 332 q 609 647 656 579 q 481 714 563 714 q 352 647 399 714 q 306 456 306 579 q 352 260 306 332 q 481 189 399 189 m 578 953 q 513 964 542 953 q 463 989 485 975 q 423 1014 440 1003 q 392 1025 406 1025 q 363 1014 375 1025 q 347 967 351 1003 l 194 978 q 213 1075 197 1035 q 254 1140 229 1115 q 313 1177 279 1165 q 383 1189 346 1189 q 448 1178 419 1189 q 499 1153 476 1167 q 538 1128 521 1139 q 569 1117 554 1117 q 598 1128 586 1117 q 614 1175 610 1139 l 767 1164 q 748 1067 764 1107 q 707 1001 732 1026 q 649 965 682 976 q 578 953 615 953 z "},"Ö":{"ha":961,"x_min":61,"x_max":900,"o":"m 481 -17 q 309 15 386 -17 q 177 108 232 47 q 92 256 122 168 q 61 456 61 344 q 92 653 61 567 q 177 799 122 740 q 309 889 232 858 q 481 919 386 919 q 651 889 574 919 q 784 799 729 858 q 869 653 839 739 q 900 456 900 567 q 869 256 900 344 q 784 108 839 168 q 651 15 729 47 q 481 -17 574 -17 m 481 189 q 609 260 563 189 q 656 456 656 332 q 609 647 656 579 q 481 714 563 714 q 352 647 399 714 q 306 456 306 579 q 352 260 306 332 q 481 189 399 189 m 322 964 q 244 995 274 964 q 214 1072 214 1026 q 244 1149 214 1118 q 322 1181 274 1181 q 401 1149 371 1181 q 431 1072 431 1118 q 401 995 431 1026 q 322 964 371 964 m 639 964 q 560 995 590 964 q 531 1072 531 1026 q 560 1149 531 1118 q 639 1181 590 1181 q 717 1149 688 1181 q 747 1072 747 1118 q 717 995 747 1026 q 639 964 688 964 z "},"Ō":{"ha":961,"x_min":61,"x_max":900,"o":"m 481 -17 q 309 15 386 -17 q 177 108 232 47 q 92 256 122 168 q 61 456 61 344 q 92 653 61 567 q 177 799 122 740 q 309 889 232 858 q 481 919 386 919 q 651 889 574 919 q 784 799 729 858 q 869 653 839 739 q 900 456 900 567 q 869 256 900 344 q 784 108 839 168 q 651 15 729 47 q 481 -17 574 -17 m 481 189 q 609 260 563 189 q 656 456 656 332 q 609 647 656 579 q 481 714 563 714 q 352 647 399 714 q 306 456 306 579 q 352 260 306 332 q 481 189 399 189 m 261 994 l 261 1144 l 700 1144 l 700 994 l 261 994 z "},"Ő":{"ha":961,"x_min":61,"x_max":900,"o":"m 481 -17 q 309 15 386 -17 q 177 108 232 47 q 92 256 122 168 q 61 456 61 344 q 92 653 61 567 q 177 799 122 740 q 309 889 232 858 q 481 919 386 919 q 651 889 574 919 q 784 799 729 858 q 869 653 839 739 q 900 456 900 567 q 869 256 900 344 q 784 108 839 168 q 651 15 729 47 q 481 -17 574 -17 m 481 189 q 609 260 563 189 q 656 456 656 332 q 609 647 656 579 q 481 714 563 714 q 352 647 399 714 q 306 456 306 579 q 352 260 306 332 q 481 189 399 189 m 275 1014 l 419 1242 l 569 1158 l 392 958 l 275 1014 m 550 1014 l 694 1242 l 844 1158 l 667 958 l 550 1014 z "},"Ǒ":{"ha":961,"x_min":61,"x_max":900,"o":"m 481 -17 q 309 15 386 -17 q 177 108 232 47 q 92 256 122 168 q 61 456 61 344 q 92 653 61 567 q 177 799 122 740 q 309 889 232 858 q 481 919 386 919 q 651 889 574 919 q 784 799 729 858 q 869 653 839 739 q 900 456 900 567 q 869 256 900 344 q 784 108 839 168 q 651 15 729 47 q 481 -17 574 -17 m 481 189 q 609 260 563 189 q 656 456 656 332 q 609 647 656 579 q 481 714 563 714 q 352 647 399 714 q 306 456 306 579 q 352 260 306 332 q 481 189 399 189 m 350 972 l 233 1125 l 336 1186 l 478 1075 l 483 1075 l 625 1186 l 728 1125 l 611 972 l 350 972 z "},"Ọ":{"ha":961,"x_min":61,"x_max":900,"o":"m 481 -17 q 309 15 386 -17 q 177 108 232 47 q 92 256 122 168 q 61 456 61 344 q 92 653 61 567 q 177 799 122 740 q 309 889 232 858 q 481 919 386 919 q 651 889 574 919 q 784 799 729 858 q 869 653 839 739 q 900 456 900 567 q 869 256 900 344 q 784 108 839 168 q 651 15 729 47 q 481 -17 574 -17 m 481 189 q 609 260 563 189 q 656 456 656 332 q 609 647 656 579 q 481 714 563 714 q 352 647 399 714 q 306 456 306 579 q 352 260 306 332 q 481 189 399 189 m 481 -324 q 388 -290 424 -324 q 353 -204 353 -257 q 388 -118 353 -151 q 481 -85 424 -85 q 573 -118 538 -85 q 608 -204 608 -151 q 573 -290 608 -257 q 481 -324 538 -324 z "},"Ỏ":{"ha":961,"x_min":61,"x_max":900,"o":"m 481 -17 q 309 15 386 -17 q 177 108 232 47 q 92 256 122 168 q 61 456 61 344 q 92 653 61 567 q 177 799 122 740 q 309 889 232 858 q 481 919 386 919 q 651 889 574 919 q 784 799 729 858 q 869 653 839 739 q 900 456 900 567 q 869 256 900 344 q 784 108 839 168 q 651 15 729 47 q 481 -17 574 -17 m 481 189 q 609 260 563 189 q 656 456 656 332 q 609 647 656 579 q 481 714 563 714 q 352 647 399 714 q 306 456 306 579 q 352 260 306 332 q 481 189 399 189 m 414 956 l 397 1047 q 437 1057 421 1050 q 453 1081 453 1064 q 429 1108 453 1097 q 344 1122 406 1118 l 372 1239 q 492 1226 444 1236 q 569 1198 540 1215 q 610 1157 599 1181 q 622 1106 622 1133 q 606 1041 622 1068 q 560 995 589 1014 q 494 967 532 976 q 414 956 457 957 z "},"Ố":{"ha":961,"x_min":61,"x_max":900,"o":"m 481 -17 q 309 15 386 -17 q 177 108 232 47 q 92 256 122 168 q 61 456 61 344 q 92 653 61 567 q 177 799 122 740 q 309 889 232 858 q 481 919 386 919 q 651 889 574 919 q 784 799 729 858 q 869 653 839 739 q 900 456 900 567 q 869 256 900 344 q 784 108 839 168 q 651 15 729 47 q 481 -17 574 -17 m 481 189 q 609 260 563 189 q 656 456 656 332 q 609 647 656 579 q 481 714 563 714 q 352 647 399 714 q 306 456 306 579 q 352 260 306 332 q 481 189 399 189 m 350 944 l 256 1006 l 378 1150 l 583 1150 l 706 1006 l 611 944 l 483 1044 l 478 1044 l 350 944 m 708 1053 l 639 1131 l 781 1247 l 856 1153 l 708 1053 z "},"Ồ":{"ha":961,"x_min":61,"x_max":900,"o":"m 481 -17 q 309 15 386 -17 q 177 108 232 47 q 92 256 122 168 q 61 456 61 344 q 92 653 61 567 q 177 799 122 740 q 309 889 232 858 q 481 919 386 919 q 651 889 574 919 q 784 799 729 858 q 869 653 839 739 q 900 456 900 567 q 869 256 900 344 q 784 108 839 168 q 651 15 729 47 q 481 -17 574 -17 m 481 189 q 609 260 563 189 q 656 456 656 332 q 609 647 656 579 q 481 714 563 714 q 352 647 399 714 q 306 456 306 579 q 352 260 306 332 q 481 189 399 189 m 350 944 l 256 1006 l 378 1150 l 583 1150 l 706 1006 l 611 944 l 483 1044 l 478 1044 l 350 944 m 322 1131 l 253 1053 l 106 1153 l 181 1247 l 322 1131 z "},"Ổ":{"ha":961,"x_min":61,"x_max":900,"o":"m 481 -17 q 309 15 386 -17 q 177 108 232 47 q 92 256 122 168 q 61 456 61 344 q 92 653 61 567 q 177 799 122 740 q 309 889 232 858 q 481 919 386 919 q 651 889 574 919 q 784 799 729 858 q 869 653 839 739 q 900 456 900 567 q 869 256 900 344 q 784 108 839 168 q 651 15 729 47 q 481 -17 574 -17 m 481 189 q 609 260 563 189 q 656 456 656 332 q 609 647 656 579 q 481 714 563 714 q 352 647 399 714 q 306 456 306 579 q 352 260 306 332 q 481 189 399 189 m 350 944 l 256 1006 l 378 1150 l 583 1150 l 706 1006 l 611 944 l 483 1044 l 478 1044 l 350 944 m 683 1039 l 667 1111 q 694 1121 683 1114 q 706 1144 706 1128 q 688 1172 706 1161 q 617 1186 669 1182 l 639 1281 q 744 1268 703 1278 q 811 1243 786 1258 q 846 1207 836 1228 q 856 1164 856 1186 q 806 1071 856 1099 q 683 1039 757 1043 z "},"Ỗ":{"ha":961,"x_min":61,"x_max":900,"o":"m 481 -17 q 309 15 386 -17 q 177 108 232 47 q 92 256 122 168 q 61 456 61 344 q 92 653 61 567 q 177 799 122 740 q 309 889 232 858 q 481 919 386 919 q 651 889 574 919 q 784 799 729 858 q 869 653 839 739 q 900 456 900 567 q 869 256 900 344 q 784 108 839 168 q 651 15 729 47 q 481 -17 574 -17 m 481 189 q 609 260 563 189 q 656 456 656 332 q 609 647 656 579 q 481 714 563 714 q 352 647 399 714 q 306 456 306 579 q 352 260 306 332 q 481 189 399 189 m 350 944 l 256 1006 l 378 1136 l 583 1136 l 706 1006 l 611 944 l 483 1031 l 478 1031 l 350 944 m 264 1186 q 305 1313 268 1275 q 400 1350 342 1350 q 449 1341 426 1350 q 488 1321 471 1332 q 519 1301 506 1310 q 544 1292 533 1292 q 572 1303 561 1292 q 586 1342 582 1314 l 697 1328 q 656 1201 693 1239 q 561 1164 619 1164 q 512 1173 533 1164 q 473 1193 490 1182 q 442 1213 456 1204 q 417 1222 428 1222 q 390 1211 400 1222 q 375 1172 379 1200 l 264 1186 z "},"Ộ":{"ha":961,"x_min":61,"x_max":900,"o":"m 481 -17 q 309 15 386 -17 q 177 108 232 47 q 92 256 122 168 q 61 456 61 344 q 92 653 61 567 q 177 799 122 740 q 309 889 232 858 q 481 919 386 919 q 651 889 574 919 q 784 799 729 858 q 869 653 839 739 q 900 456 900 567 q 869 256 900 344 q 784 108 839 168 q 651 15 729 47 q 481 -17 574 -17 m 481 189 q 609 260 563 189 q 656 456 656 332 q 609 647 656 579 q 481 714 563 714 q 352 647 399 714 q 306 456 306 579 q 352 260 306 332 q 481 189 399 189 m 233 1006 l 350 1158 l 611 1158 l 728 1006 l 625 944 l 483 1056 l 478 1056 l 336 944 l 233 1006 m 481 -324 q 388 -290 424 -324 q 353 -204 353 -257 q 388 -118 353 -151 q 481 -85 424 -85 q 573 -118 538 -85 q 608 -204 608 -151 q 573 -290 608 -257 q 481 -324 538 -324 z "},"Ŏ":{"ha":961,"x_min":61,"x_max":900,"o":"m 481 -17 q 309 15 386 -17 q 177 108 232 47 q 92 256 122 168 q 61 456 61 344 q 92 653 61 567 q 177 799 122 740 q 309 889 232 858 q 481 919 386 919 q 651 889 574 919 q 784 799 729 858 q 869 653 839 739 q 900 456 900 567 q 869 256 900 344 q 784 108 839 168 q 651 15 729 47 q 481 -17 574 -17 m 481 189 q 609 260 563 189 q 656 456 656 332 q 609 647 656 579 q 481 714 563 714 q 352 647 399 714 q 306 456 306 579 q 352 260 306 332 q 481 189 399 189 m 481 964 q 315 1011 374 964 q 244 1158 256 1058 l 372 1181 q 410 1120 382 1140 q 481 1100 439 1100 q 551 1120 522 1100 q 589 1181 579 1140 l 717 1158 q 647 1011 706 1058 q 481 964 588 964 z "},"Ṓ":{"ha":961,"x_min":61,"x_max":900,"o":"m 481 -17 q 309 15 386 -17 q 177 108 232 47 q 92 256 122 168 q 61 456 61 344 q 92 653 61 567 q 177 799 122 740 q 309 889 232 858 q 481 919 386 919 q 651 889 574 919 q 784 799 729 858 q 869 653 839 739 q 900 456 900 567 q 869 256 900 344 q 784 108 839 168 q 651 15 729 47 q 481 -17 574 -17 m 481 189 q 609 260 563 189 q 656 456 656 332 q 609 647 656 579 q 481 714 563 714 q 352 647 399 714 q 306 456 306 579 q 352 260 306 332 q 481 189 399 189 m 431 1161 l 353 1269 l 586 1419 l 681 1289 l 431 1161 m 261 994 l 261 1144 l 700 1144 l 700 994 l 261 994 z "},"Ø":{"ha":961,"x_min":50,"x_max":939,"o":"m 481 -17 q 258 42 351 -17 l 172 -64 l 50 31 l 146 147 q 83 283 106 206 q 61 456 61 360 q 92 653 61 567 q 177 799 122 740 q 309 889 232 858 q 481 919 386 919 q 722 851 619 919 l 817 967 l 939 872 l 829 739 q 882 613 864 683 q 900 456 900 542 q 869 256 900 344 q 784 108 839 168 q 651 15 729 47 q 481 -17 574 -17 m 306 456 q 315 354 306 397 l 581 678 q 481 714 538 714 q 352 647 399 714 q 306 456 306 579 m 481 189 q 609 260 563 189 q 656 456 656 332 q 651 521 656 492 l 399 213 q 481 189 435 189 z "},"Œ":{"ha":1222,"x_min":61,"x_max":1147,"o":"m 519 0 q 342 26 425 0 q 196 108 258 53 q 97 250 133 164 q 61 456 61 336 q 98 660 61 575 q 199 799 135 744 q 349 878 263 853 q 533 903 435 903 l 1133 903 l 1133 703 l 806 703 l 806 561 l 1083 561 l 1083 361 l 806 361 l 806 200 l 1147 200 l 1147 0 l 519 0 m 547 192 l 567 192 l 567 711 l 547 711 q 453 701 497 711 q 376 664 408 692 q 324 586 343 636 q 306 456 306 536 q 324 324 306 375 q 376 243 343 272 q 453 203 408 214 q 547 192 497 192 z "},"Ơ":{"ha":961,"x_min":61,"x_max":947,"o":"m 481 -17 q 309 15 386 -17 q 177 108 232 47 q 92 256 122 168 q 61 456 61 344 q 92 653 61 567 q 177 799 122 740 q 309 889 232 858 q 481 919 386 919 q 679 876 589 919 q 731 908 713 889 q 750 972 750 928 q 742 1026 750 1001 q 728 1067 735 1051 l 903 1136 q 933 1074 919 1113 q 947 989 947 1035 q 907 867 947 911 q 782 800 867 824 q 869 654 839 740 q 900 456 900 568 q 869 256 900 344 q 784 108 839 168 q 651 15 729 47 q 481 -17 574 -17 m 481 189 q 609 260 563 189 q 656 456 656 332 q 609 647 656 579 q 481 714 563 714 q 352 647 399 714 q 306 456 306 579 q 352 260 306 332 q 481 189 399 189 z "},"Ớ":{"ha":961,"x_min":61,"x_max":947,"o":"m 481 -17 q 309 15 386 -17 q 177 108 232 47 q 92 256 122 168 q 61 456 61 344 q 92 653 61 567 q 177 799 122 740 q 309 889 232 858 q 481 919 386 919 q 679 876 589 919 q 731 908 713 889 q 750 972 750 928 q 742 1026 750 1001 q 728 1067 735 1051 l 903 1136 q 933 1074 919 1113 q 947 989 947 1035 q 907 867 947 911 q 782 800 867 824 q 869 654 839 740 q 900 456 900 568 q 869 256 900 344 q 784 108 839 168 q 651 15 729 47 q 481 -17 574 -17 m 481 189 q 609 260 563 189 q 656 456 656 332 q 609 647 656 579 q 481 714 563 714 q 352 647 399 714 q 306 456 306 579 q 352 260 306 332 q 481 189 399 189 m 469 936 l 364 1056 l 617 1256 l 742 1103 l 469 936 z "},"Ờ":{"ha":961,"x_min":61,"x_max":947,"o":"m 481 -17 q 309 15 386 -17 q 177 108 232 47 q 92 256 122 168 q 61 456 61 344 q 92 653 61 567 q 177 799 122 740 q 309 889 232 858 q 481 919 386 919 q 679 876 589 919 q 731 908 713 889 q 750 972 750 928 q 742 1026 750 1001 q 728 1067 735 1051 l 903 1136 q 933 1074 919 1113 q 947 989 947 1035 q 907 867 947 911 q 782 800 867 824 q 869 654 839 740 q 900 456 900 568 q 869 256 900 344 q 784 108 839 168 q 651 15 729 47 q 481 -17 574 -17 m 481 189 q 609 260 563 189 q 656 456 656 332 q 609 647 656 579 q 481 714 563 714 q 352 647 399 714 q 306 456 306 579 q 352 260 306 332 q 481 189 399 189 m 492 936 l 219 1103 l 344 1256 l 597 1056 l 492 936 z "},"Ở":{"ha":961,"x_min":61,"x_max":947,"o":"m 481 -17 q 309 15 386 -17 q 177 108 232 47 q 92 256 122 168 q 61 456 61 344 q 92 653 61 567 q 177 799 122 740 q 309 889 232 858 q 481 919 386 919 q 679 876 589 919 q 731 908 713 889 q 750 972 750 928 q 742 1026 750 1001 q 728 1067 735 1051 l 903 1136 q 933 1074 919 1113 q 947 989 947 1035 q 907 867 947 911 q 782 800 867 824 q 869 654 839 740 q 900 456 900 568 q 869 256 900 344 q 784 108 839 168 q 651 15 729 47 q 481 -17 574 -17 m 481 189 q 609 260 563 189 q 656 456 656 332 q 609 647 656 579 q 481 714 563 714 q 352 647 399 714 q 306 456 306 579 q 352 260 306 332 q 481 189 399 189 m 414 956 l 397 1047 q 437 1057 421 1050 q 453 1081 453 1064 q 429 1108 453 1097 q 344 1122 406 1118 l 372 1239 q 492 1226 444 1236 q 569 1198 540 1215 q 610 1157 599 1181 q 622 1106 622 1133 q 606 1041 622 1068 q 560 995 589 1014 q 494 967 532 976 q 414 956 457 957 z "},"Ỡ":{"ha":961,"x_min":61,"x_max":947,"o":"m 481 -17 q 309 15 386 -17 q 177 108 232 47 q 92 256 122 168 q 61 456 61 344 q 92 653 61 567 q 177 799 122 740 q 309 889 232 858 q 481 919 386 919 q 679 876 589 919 q 731 908 713 889 q 750 972 750 928 q 742 1026 750 1001 q 728 1067 735 1051 l 903 1136 q 933 1074 919 1113 q 947 989 947 1035 q 907 867 947 911 q 782 800 867 824 q 869 654 839 740 q 900 456 900 568 q 869 256 900 344 q 784 108 839 168 q 651 15 729 47 q 481 -17 574 -17 m 481 189 q 609 260 563 189 q 656 456 656 332 q 609 647 656 579 q 481 714 563 714 q 352 647 399 714 q 306 456 306 579 q 352 260 306 332 q 481 189 399 189 m 550 953 q 485 964 514 953 q 435 989 457 975 q 395 1014 413 1003 q 364 1025 378 1025 q 335 1014 347 1025 q 319 967 324 1003 l 167 978 q 185 1075 169 1035 q 226 1140 201 1115 q 285 1177 251 1165 q 356 1189 318 1189 q 420 1178 392 1189 q 471 1153 449 1167 q 510 1128 493 1139 q 542 1117 526 1117 q 570 1128 558 1117 q 586 1175 582 1139 l 739 1164 q 720 1067 736 1107 q 679 1001 704 1026 q 621 965 654 976 q 550 953 588 953 z "},"Ợ":{"ha":961,"x_min":61,"x_max":947,"o":"m 481 -17 q 309 15 386 -17 q 177 108 232 47 q 92 256 122 168 q 61 456 61 344 q 92 653 61 567 q 177 799 122 740 q 309 889 232 858 q 481 919 386 919 q 679 876 589 919 q 731 908 713 889 q 750 972 750 928 q 742 1026 750 1001 q 728 1067 735 1051 l 903 1136 q 933 1074 919 1113 q 947 989 947 1035 q 907 867 947 911 q 782 800 867 824 q 869 654 839 740 q 900 456 900 568 q 869 256 900 344 q 784 108 839 168 q 651 15 729 47 q 481 -17 574 -17 m 481 189 q 609 260 563 189 q 656 456 656 332 q 609 647 656 579 q 481 714 563 714 q 352 647 399 714 q 306 456 306 579 q 352 260 306 332 q 481 189 399 189 m 481 -324 q 388 -290 424 -324 q 353 -204 353 -257 q 388 -118 353 -151 q 481 -85 424 -85 q 573 -118 538 -85 q 608 -204 608 -151 q 573 -290 608 -257 q 481 -324 538 -324 z "},"Ǫ":{"ha":961,"x_min":61,"x_max":900,"o":"m 514 -317 q 394 -281 443 -317 q 344 -181 344 -246 q 374 -81 344 -124 q 433 -14 404 -39 q 278 30 347 -6 q 162 126 210 65 q 88 269 114 186 q 61 456 61 351 q 92 653 61 567 q 177 799 122 740 q 309 889 232 858 q 481 919 386 919 q 651 889 574 919 q 784 799 729 858 q 869 653 839 739 q 900 456 900 567 q 880 285 900 358 q 822 158 860 213 q 731 65 785 104 q 611 -6 678 25 q 539 -59 561 -29 q 517 -117 517 -89 q 534 -153 517 -142 q 572 -164 551 -164 q 597 -158 585 -164 q 619 -144 610 -151 l 672 -264 q 599 -302 643 -287 q 514 -317 554 -317 m 481 189 q 609 260 563 189 q 656 456 656 332 q 609 647 656 579 q 481 714 563 714 q 352 647 399 714 q 306 456 306 579 q 352 260 306 332 q 481 189 399 189 z "},"Ŕ":{"ha":875,"x_min":100,"x_max":853,"o":"m 100 0 l 100 903 l 442 903 q 580 889 514 903 q 695 842 646 875 q 774 752 744 808 q 803 611 803 696 q 763 450 803 514 q 657 350 724 386 l 853 0 l 586 0 l 431 303 l 339 303 l 339 0 l 100 0 m 339 492 l 425 492 q 569 611 569 492 q 533 692 569 669 q 425 714 496 714 l 339 714 l 339 492 m 428 936 l 322 1056 l 575 1256 l 700 1103 l 428 936 z "},"Ř":{"ha":875,"x_min":100,"x_max":853,"o":"m 100 0 l 100 903 l 442 903 q 580 889 514 903 q 695 842 646 875 q 774 752 744 808 q 803 611 803 696 q 763 450 803 514 q 657 350 724 386 l 853 0 l 586 0 l 431 303 l 339 303 l 339 0 l 100 0 m 339 492 l 425 492 q 569 611 569 492 q 533 692 569 669 q 425 714 496 714 l 339 714 l 339 492 m 308 972 l 192 1125 l 294 1186 l 436 1075 l 442 1075 l 583 1186 l 686 1125 l 569 972 l 308 972 z "},"Ṙ":{"ha":875,"x_min":100,"x_max":853,"o":"m 100 0 l 100 903 l 442 903 q 580 889 514 903 q 695 842 646 875 q 774 752 744 808 q 803 611 803 696 q 763 450 803 514 q 657 350 724 386 l 853 0 l 586 0 l 431 303 l 339 303 l 339 0 l 100 0 m 339 492 l 425 492 q 569 611 569 492 q 533 692 569 669 q 425 714 496 714 l 339 714 l 339 492 m 439 967 q 343 1000 381 967 q 306 1086 306 1033 q 343 1172 306 1139 q 439 1206 381 1206 q 535 1172 497 1206 q 572 1086 572 1139 q 535 1000 572 1033 q 439 967 497 967 z "},"Ŗ":{"ha":875,"x_min":100,"x_max":853,"o":"m 100 0 l 100 903 l 442 903 q 580 889 514 903 q 695 842 646 875 q 774 752 744 808 q 803 611 803 696 q 763 450 803 514 q 657 350 724 386 l 853 0 l 586 0 l 431 303 l 339 303 l 339 0 l 100 0 m 339 492 l 425 492 q 569 611 569 492 q 533 692 569 669 q 425 714 496 714 l 339 714 l 339 492 m 314 -339 l 297 -247 q 406 -232 376 -243 q 436 -197 436 -221 q 417 -169 436 -181 q 353 -153 399 -157 l 397 -69 q 497 -83 457 -74 q 560 -108 536 -93 q 595 -142 585 -122 q 606 -189 606 -162 q 529 -299 606 -264 q 314 -339 453 -335 z "},"Ṛ":{"ha":875,"x_min":100,"x_max":853,"o":"m 100 0 l 100 903 l 442 903 q 580 889 514 903 q 695 842 646 875 q 774 752 744 808 q 803 611 803 696 q 763 450 803 514 q 657 350 724 386 l 853 0 l 586 0 l 431 303 l 339 303 l 339 0 l 100 0 m 339 492 l 425 492 q 569 611 569 492 q 533 692 569 669 q 425 714 496 714 l 339 714 l 339 492 m 464 -324 q 372 -290 407 -324 q 336 -204 336 -257 q 372 -118 336 -151 q 464 -85 407 -85 q 556 -118 521 -85 q 592 -204 592 -151 q 556 -290 592 -257 q 464 -324 521 -324 z "},"Ṝ":{"ha":875,"x_min":100,"x_max":853,"o":"m 100 0 l 100 903 l 442 903 q 580 889 514 903 q 695 842 646 875 q 774 752 744 808 q 803 611 803 696 q 763 450 803 514 q 657 350 724 386 l 853 0 l 586 0 l 431 303 l 339 303 l 339 0 l 100 0 m 339 492 l 425 492 q 569 611 569 492 q 533 692 569 669 q 425 714 496 714 l 339 714 l 339 492 m 219 994 l 219 1144 l 658 1144 l 658 994 l 219 994 m 464 -324 q 372 -290 407 -324 q 336 -204 336 -257 q 372 -118 336 -151 q 464 -85 407 -85 q 556 -118 521 -85 q 592 -204 592 -151 q 556 -290 592 -257 q 464 -324 521 -324 z "},"Ṟ":{"ha":875,"x_min":100,"x_max":853,"o":"m 100 0 l 100 903 l 442 903 q 580 889 514 903 q 695 842 646 875 q 774 752 744 808 q 803 611 803 696 q 763 450 803 514 q 657 350 724 386 l 853 0 l 586 0 l 431 303 l 339 303 l 339 0 l 100 0 m 339 492 l 425 492 q 569 611 569 492 q 533 692 569 669 q 425 714 496 714 l 339 714 l 339 492 m 250 -271 l 250 -121 l 678 -121 l 678 -271 l 250 -271 z "},"Ś":{"ha":783,"x_min":44,"x_max":739,"o":"m 386 -17 q 209 15 300 -17 q 44 113 118 46 l 181 276 q 285 213 229 238 q 392 189 342 189 q 470 206 446 189 q 494 253 494 222 q 486 281 494 269 q 462 301 478 292 q 424 320 446 311 q 372 340 401 329 l 260 388 q 190 424 224 401 q 132 478 157 447 q 92 550 107 510 q 78 639 78 590 q 103 748 78 697 q 172 837 128 799 q 278 897 217 875 q 414 919 340 919 q 572 890 492 919 q 714 799 651 861 l 594 649 q 506 697 549 681 q 414 714 464 714 q 344 699 369 714 q 319 653 319 683 q 355 603 319 621 q 453 563 390 586 l 563 519 q 693 426 647 486 q 739 272 739 367 q 715 163 739 215 q 647 70 692 110 q 536 7 601 31 q 386 -17 471 -17 m 400 936 l 294 1056 l 547 1256 l 672 1103 l 400 936 z "},"Ŝ":{"ha":783,"x_min":44,"x_max":739,"o":"m 386 -17 q 209 15 300 -17 q 44 113 118 46 l 181 276 q 285 213 229 238 q 392 189 342 189 q 470 206 446 189 q 494 253 494 222 q 486 281 494 269 q 462 301 478 292 q 424 320 446 311 q 372 340 401 329 l 260 388 q 190 424 224 401 q 132 478 157 447 q 92 550 107 510 q 78 639 78 590 q 103 748 78 697 q 172 837 128 799 q 278 897 217 875 q 414 919 340 919 q 572 890 492 919 q 714 799 651 861 l 594 649 q 506 697 549 681 q 414 714 464 714 q 344 699 369 714 q 319 653 319 683 q 355 603 319 621 q 453 563 390 586 l 563 519 q 693 426 647 486 q 739 272 739 367 q 715 163 739 215 q 647 70 692 110 q 536 7 601 31 q 386 -17 471 -17 m 164 1006 l 281 1158 l 542 1158 l 658 1006 l 556 944 l 414 1056 l 408 1056 l 267 944 l 164 1006 z "},"Š":{"ha":783,"x_min":44,"x_max":739,"o":"m 386 -17 q 209 15 300 -17 q 44 113 118 46 l 181 276 q 285 213 229 238 q 392 189 342 189 q 470 206 446 189 q 494 253 494 222 q 486 281 494 269 q 462 301 478 292 q 424 320 446 311 q 372 340 401 329 l 260 388 q 190 424 224 401 q 132 478 157 447 q 92 550 107 510 q 78 639 78 590 q 103 748 78 697 q 172 837 128 799 q 278 897 217 875 q 414 919 340 919 q 572 890 492 919 q 714 799 651 861 l 594 649 q 506 697 549 681 q 414 714 464 714 q 344 699 369 714 q 319 653 319 683 q 355 603 319 621 q 453 563 390 586 l 563 519 q 693 426 647 486 q 739 272 739 367 q 715 163 739 215 q 647 70 692 110 q 536 7 601 31 q 386 -17 471 -17 m 281 972 l 164 1125 l 267 1186 l 408 1075 l 414 1075 l 556 1186 l 658 1125 l 542 972 l 281 972 z "},"Ş":{"ha":783,"x_min":44,"x_max":739,"o":"m 386 -17 q 209 15 300 -17 q 44 113 118 46 l 181 276 q 285 213 229 238 q 392 189 342 189 q 470 206 446 189 q 494 253 494 222 q 486 281 494 269 q 462 301 478 292 q 424 320 446 311 q 372 340 401 329 l 260 388 q 190 424 224 401 q 132 478 157 447 q 92 550 107 510 q 78 639 78 590 q 103 748 78 697 q 172 837 128 799 q 278 897 217 875 q 414 919 340 919 q 572 890 492 919 q 714 799 651 861 l 594 649 q 506 697 549 681 q 414 714 464 714 q 344 699 369 714 q 319 653 319 683 q 355 603 319 621 q 453 563 390 586 l 563 519 q 693 426 647 486 q 739 272 739 367 q 715 163 739 215 q 647 70 692 110 q 536 7 601 31 q 386 -17 471 -17 m 242 -339 l 225 -247 q 334 -231 304 -243 q 364 -189 364 -218 q 343 -156 364 -171 q 258 -133 322 -142 l 328 6 l 464 6 l 425 -83 q 506 -120 479 -96 q 533 -189 533 -144 q 457 -299 533 -264 q 242 -339 381 -335 z "},"Ș":{"ha":783,"x_min":44,"x_max":739,"o":"m 386 -17 q 209 15 300 -17 q 44 113 118 46 l 181 276 q 285 213 229 238 q 392 189 342 189 q 470 206 446 189 q 494 253 494 222 q 486 281 494 269 q 462 301 478 292 q 424 320 446 311 q 372 340 401 329 l 260 388 q 190 424 224 401 q 132 478 157 447 q 92 550 107 510 q 78 639 78 590 q 103 748 78 697 q 172 837 128 799 q 278 897 217 875 q 414 919 340 919 q 572 890 492 919 q 714 799 651 861 l 594 649 q 506 697 549 681 q 414 714 464 714 q 344 699 369 714 q 319 653 319 683 q 355 603 319 621 q 453 563 390 586 l 563 519 q 693 426 647 486 q 739 272 739 367 q 715 163 739 215 q 647 70 692 110 q 536 7 601 31 q 386 -17 471 -17 m 242 -339 l 225 -247 q 334 -232 304 -243 q 364 -197 364 -221 q 345 -169 364 -181 q 281 -153 326 -157 l 325 -69 q 424 -83 385 -74 q 488 -108 464 -93 q 523 -142 513 -122 q 533 -189 533 -162 q 457 -299 533 -264 q 242 -339 381 -335 z "},"Ṡ":{"ha":783,"x_min":44,"x_max":739,"o":"m 386 -17 q 209 15 300 -17 q 44 113 118 46 l 181 276 q 285 213 229 238 q 392 189 342 189 q 470 206 446 189 q 494 253 494 222 q 486 281 494 269 q 462 301 478 292 q 424 320 446 311 q 372 340 401 329 l 260 388 q 190 424 224 401 q 132 478 157 447 q 92 550 107 510 q 78 639 78 590 q 103 748 78 697 q 172 837 128 799 q 278 897 217 875 q 414 919 340 919 q 572 890 492 919 q 714 799 651 861 l 594 649 q 506 697 549 681 q 414 714 464 714 q 344 699 369 714 q 319 653 319 683 q 355 603 319 621 q 453 563 390 586 l 563 519 q 693 426 647 486 q 739 272 739 367 q 715 163 739 215 q 647 70 692 110 q 536 7 601 31 q 386 -17 471 -17 m 411 967 q 315 1000 353 967 q 278 1086 278 1033 q 315 1172 278 1139 q 411 1206 353 1206 q 507 1172 469 1206 q 544 1086 544 1139 q 507 1000 544 1033 q 411 967 469 967 z "},"Ṣ":{"ha":783,"x_min":44,"x_max":739,"o":"m 386 -17 q 209 15 300 -17 q 44 113 118 46 l 181 276 q 285 213 229 238 q 392 189 342 189 q 470 206 446 189 q 494 253 494 222 q 486 281 494 269 q 462 301 478 292 q 424 320 446 311 q 372 340 401 329 l 260 388 q 190 424 224 401 q 132 478 157 447 q 92 550 107 510 q 78 639 78 590 q 103 748 78 697 q 172 837 128 799 q 278 897 217 875 q 414 919 340 919 q 572 890 492 919 q 714 799 651 861 l 594 649 q 506 697 549 681 q 414 714 464 714 q 344 699 369 714 q 319 653 319 683 q 355 603 319 621 q 453 563 390 586 l 563 519 q 693 426 647 486 q 739 272 739 367 q 715 163 739 215 q 647 70 692 110 q 536 7 601 31 q 386 -17 471 -17 m 392 -324 q 299 -290 335 -324 q 264 -204 264 -257 q 299 -118 264 -151 q 392 -85 335 -85 q 484 -118 449 -85 q 519 -204 519 -151 q 484 -290 519 -257 q 392 -324 449 -324 z "},"ẞ":{"ha":1000,"x_min":106,"x_max":947,"o":"m 658 -17 q 499 14 564 -17 q 397 81 435 44 l 519 225 q 578 185 551 196 q 628 175 604 175 q 682 196 661 175 q 703 253 703 217 q 658 315 703 286 q 515 363 613 344 l 500 500 l 636 658 q 588 707 621 686 q 503 728 554 728 q 383 678 421 728 q 344 533 344 629 l 344 0 l 106 0 l 106 564 q 128 703 106 638 q 200 816 151 768 q 325 892 249 864 q 508 919 401 919 q 640 900 581 919 q 746 845 700 881 q 823 760 792 810 q 869 650 854 710 l 736 497 q 817 459 779 481 q 885 408 856 438 q 931 340 914 379 q 947 250 947 301 q 929 144 947 193 q 875 60 911 96 q 785 4 839 25 q 658 -17 731 -17 z "},"Ť":{"ha":783,"x_min":33,"x_max":750,"o":"m 272 0 l 272 703 l 33 703 l 33 903 l 750 903 l 750 703 l 511 703 l 511 0 l 272 0 m 261 972 l 144 1125 l 247 1186 l 389 1075 l 394 1075 l 536 1186 l 639 1125 l 522 972 l 261 972 z "},"Ţ":{"ha":783,"x_min":33,"x_max":750,"o":"m 272 0 l 272 703 l 33 703 l 33 903 l 750 903 l 750 703 l 511 703 l 511 0 l 272 0 m 247 -339 l 231 -247 q 340 -231 310 -243 q 369 -189 369 -218 q 349 -156 369 -171 q 264 -133 328 -142 l 333 6 l 469 6 l 431 -83 q 512 -120 485 -96 q 539 -189 539 -144 q 463 -299 539 -264 q 247 -339 386 -335 z "},"Ț":{"ha":783,"x_min":33,"x_max":750,"o":"m 272 0 l 272 703 l 33 703 l 33 903 l 750 903 l 750 703 l 511 703 l 511 0 l 272 0 m 242 -339 l 225 -247 q 334 -232 304 -243 q 364 -197 364 -221 q 345 -169 364 -181 q 281 -153 326 -157 l 325 -69 q 424 -83 385 -74 q 488 -108 464 -93 q 523 -142 513 -122 q 533 -189 533 -162 q 457 -299 533 -264 q 242 -339 381 -335 z "},"Ṭ":{"ha":783,"x_min":33,"x_max":750,"o":"m 272 0 l 272 703 l 33 703 l 33 903 l 750 903 l 750 703 l 511 703 l 511 0 l 272 0 m 392 -324 q 299 -290 335 -324 q 264 -204 264 -257 q 299 -118 264 -151 q 392 -85 335 -85 q 484 -118 449 -85 q 519 -204 519 -151 q 484 -290 519 -257 q 392 -324 449 -324 z "},"Ṯ":{"ha":783,"x_min":33,"x_max":750,"o":"m 272 0 l 272 703 l 33 703 l 33 903 l 750 903 l 750 703 l 511 703 l 511 0 l 272 0 m 178 -271 l 178 -121 l 606 -121 l 606 -271 l 178 -271 z "},"Ŧ":{"ha":783,"x_min":33,"x_max":750,"o":"m 272 0 l 272 381 l 111 381 l 111 483 l 244 492 l 272 492 l 272 703 l 33 703 l 33 903 l 750 903 l 750 703 l 511 703 l 511 492 l 672 492 l 672 381 l 511 381 l 511 0 l 272 0 z "},"Ù":{"ha":933,"x_min":94,"x_max":839,"o":"m 469 -17 q 187 94 279 -17 q 94 436 94 204 l 94 903 l 333 903 l 333 408 q 366 238 333 288 q 469 189 399 189 q 574 238 540 189 q 608 408 608 288 l 608 903 l 839 903 l 839 436 q 749 94 839 204 q 469 -17 658 -17 m 478 936 l 206 1103 l 331 1256 l 583 1056 l 478 936 z "},"Ú":{"ha":933,"x_min":94,"x_max":839,"o":"m 469 -17 q 187 94 279 -17 q 94 436 94 204 l 94 903 l 333 903 l 333 408 q 366 238 333 288 q 469 189 399 189 q 574 238 540 189 q 608 408 608 288 l 608 903 l 839 903 l 839 436 q 749 94 839 204 q 469 -17 658 -17 m 456 936 l 350 1056 l 603 1256 l 728 1103 l 456 936 z "},"Û":{"ha":933,"x_min":94,"x_max":839,"o":"m 469 -17 q 187 94 279 -17 q 94 436 94 204 l 94 903 l 333 903 l 333 408 q 366 238 333 288 q 469 189 399 189 q 574 238 540 189 q 608 408 608 288 l 608 903 l 839 903 l 839 436 q 749 94 839 204 q 469 -17 658 -17 m 219 1006 l 336 1158 l 597 1158 l 714 1006 l 611 944 l 469 1056 l 464 1056 l 322 944 l 219 1006 z "},"Ũ":{"ha":933,"x_min":94,"x_max":839,"o":"m 469 -17 q 187 94 279 -17 q 94 436 94 204 l 94 903 l 333 903 l 333 408 q 366 238 333 288 q 469 189 399 189 q 574 238 540 189 q 608 408 608 288 l 608 903 l 839 903 l 839 436 q 749 94 839 204 q 469 -17 658 -17 m 564 953 q 499 964 528 953 q 449 989 471 975 q 409 1014 426 1003 q 378 1025 392 1025 q 349 1014 361 1025 q 333 967 338 1003 l 181 978 q 199 1075 183 1035 q 240 1140 215 1115 q 299 1177 265 1165 q 369 1189 332 1189 q 434 1178 406 1189 q 485 1153 463 1167 q 524 1128 507 1139 q 556 1117 540 1117 q 584 1128 572 1117 q 600 1175 596 1139 l 753 1164 q 734 1067 750 1107 q 693 1001 718 1026 q 635 965 668 976 q 564 953 601 953 z "},"Ü":{"ha":933,"x_min":94,"x_max":839,"o":"m 469 -17 q 187 94 279 -17 q 94 436 94 204 l 94 903 l 333 903 l 333 408 q 366 238 333 288 q 469 189 399 189 q 574 238 540 189 q 608 408 608 288 l 608 903 l 839 903 l 839 436 q 749 94 839 204 q 469 -17 658 -17 m 308 964 q 230 995 260 964 q 200 1072 200 1026 q 230 1149 200 1118 q 308 1181 260 1181 q 387 1149 357 1181 q 417 1072 417 1118 q 387 995 417 1026 q 308 964 357 964 m 625 964 q 547 995 576 964 q 517 1072 517 1026 q 547 1149 517 1118 q 625 1181 576 1181 q 703 1149 674 1181 q 733 1072 733 1118 q 703 995 733 1026 q 625 964 674 964 z "},"Ū":{"ha":933,"x_min":94,"x_max":839,"o":"m 469 -17 q 187 94 279 -17 q 94 436 94 204 l 94 903 l 333 903 l 333 408 q 366 238 333 288 q 469 189 399 189 q 574 238 540 189 q 608 408 608 288 l 608 903 l 839 903 l 839 436 q 749 94 839 204 q 469 -17 658 -17 m 247 994 l 247 1144 l 686 1144 l 686 994 l 247 994 z "},"Ŭ":{"ha":933,"x_min":94,"x_max":839,"o":"m 469 -17 q 187 94 279 -17 q 94 436 94 204 l 94 903 l 333 903 l 333 408 q 366 238 333 288 q 469 189 399 189 q 574 238 540 189 q 608 408 608 288 l 608 903 l 839 903 l 839 436 q 749 94 839 204 q 469 -17 658 -17 m 467 964 q 301 1011 360 964 q 231 1158 242 1058 l 358 1181 q 397 1120 368 1140 q 467 1100 425 1100 q 537 1120 508 1100 q 575 1181 565 1140 l 703 1158 q 633 1011 692 1058 q 467 964 574 964 z "},"Ů":{"ha":933,"x_min":94,"x_max":839,"o":"m 469 -17 q 187 94 279 -17 q 94 436 94 204 l 94 903 l 333 903 l 333 408 q 366 238 333 288 q 469 189 399 189 q 574 238 540 189 q 608 408 608 288 l 608 903 l 839 903 l 839 436 q 749 94 839 204 q 469 -17 658 -17 m 467 967 q 346 1005 392 967 q 300 1108 300 1043 q 346 1212 300 1174 q 467 1250 392 1250 q 588 1212 542 1250 q 633 1108 633 1174 q 588 1005 633 1043 q 467 967 542 967 m 467 1053 q 504 1068 489 1053 q 519 1108 519 1083 q 504 1149 519 1133 q 467 1164 489 1164 q 429 1149 444 1164 q 414 1108 414 1133 q 429 1068 414 1083 q 467 1053 444 1053 z "},"Ű":{"ha":933,"x_min":94,"x_max":839,"o":"m 469 -17 q 187 94 279 -17 q 94 436 94 204 l 94 903 l 333 903 l 333 408 q 366 238 333 288 q 469 189 399 189 q 574 238 540 189 q 608 408 608 288 l 608 903 l 839 903 l 839 436 q 749 94 839 204 q 469 -17 658 -17 m 261 1014 l 406 1242 l 556 1158 l 378 958 l 261 1014 m 536 1014 l 681 1242 l 831 1158 l 653 958 l 536 1014 z "},"Ǔ":{"ha":933,"x_min":94,"x_max":839,"o":"m 469 -17 q 187 94 279 -17 q 94 436 94 204 l 94 903 l 333 903 l 333 408 q 366 238 333 288 q 469 189 399 189 q 574 238 540 189 q 608 408 608 288 l 608 903 l 839 903 l 839 436 q 749 94 839 204 q 469 -17 658 -17 m 336 972 l 219 1125 l 322 1186 l 464 1075 l 469 1075 l 611 1186 l 714 1125 l 597 972 l 336 972 z "},"Ǖ":{"ha":933,"x_min":94,"x_max":839,"o":"m 469 -17 q 187 94 279 -17 q 94 436 94 204 l 94 903 l 333 903 l 333 408 q 366 238 333 288 q 469 189 399 189 q 574 238 540 189 q 608 408 608 288 l 608 903 l 839 903 l 839 436 q 749 94 839 204 q 469 -17 658 -17 m 308 964 q 240 991 267 964 q 214 1058 214 1018 q 240 1126 214 1099 q 308 1153 267 1153 q 376 1126 350 1153 q 403 1058 403 1099 q 376 991 403 1018 q 308 964 350 964 m 247 1217 l 247 1325 l 686 1325 l 686 1217 l 247 1217 m 625 964 q 557 991 583 964 q 531 1058 531 1018 q 557 1126 531 1099 q 625 1153 583 1153 q 693 1126 667 1153 q 719 1058 719 1099 q 693 991 719 1018 q 625 964 667 964 z "},"Ǘ":{"ha":933,"x_min":94,"x_max":839,"o":"m 469 -17 q 187 94 279 -17 q 94 436 94 204 l 94 903 l 333 903 l 333 408 q 366 238 333 288 q 469 189 399 189 q 574 238 540 189 q 608 408 608 288 l 608 903 l 839 903 l 839 436 q 749 94 839 204 q 469 -17 658 -17 m 308 964 q 240 991 267 964 q 214 1058 214 1018 q 240 1126 214 1099 q 308 1153 267 1153 q 376 1126 350 1153 q 403 1058 403 1099 q 376 991 403 1018 q 308 964 350 964 m 381 1208 l 514 1422 l 661 1333 l 483 1147 l 381 1208 m 625 964 q 557 991 583 964 q 531 1058 531 1018 q 557 1126 531 1099 q 625 1153 583 1153 q 693 1126 667 1153 q 719 1058 719 1099 q 693 991 719 1018 q 625 964 667 964 z "},"Ǚ":{"ha":933,"x_min":94,"x_max":839,"o":"m 469 -17 q 187 94 279 -17 q 94 436 94 204 l 94 903 l 333 903 l 333 408 q 366 238 333 288 q 469 189 399 189 q 574 238 540 189 q 608 408 608 288 l 608 903 l 839 903 l 839 436 q 749 94 839 204 q 469 -17 658 -17 m 364 1194 l 242 1339 l 336 1400 l 464 1300 l 469 1300 l 597 1400 l 692 1339 l 569 1194 l 364 1194 m 308 964 q 240 991 267 964 q 214 1058 214 1018 q 240 1126 214 1099 q 308 1153 267 1153 q 376 1126 350 1153 q 403 1058 403 1099 q 376 991 403 1018 q 308 964 350 964 m 625 964 q 557 991 583 964 q 531 1058 531 1018 q 557 1126 531 1099 q 625 1153 583 1153 q 693 1126 667 1153 q 719 1058 719 1099 q 693 991 719 1018 q 625 964 667 964 z "},"Ǜ":{"ha":933,"x_min":94,"x_max":839,"o":"m 469 -17 q 187 94 279 -17 q 94 436 94 204 l 94 903 l 333 903 l 333 408 q 366 238 333 288 q 469 189 399 189 q 574 238 540 189 q 608 408 608 288 l 608 903 l 839 903 l 839 436 q 749 94 839 204 q 469 -17 658 -17 m 553 1208 l 450 1147 l 272 1333 l 419 1422 l 553 1208 m 308 964 q 240 991 267 964 q 214 1058 214 1018 q 240 1126 214 1099 q 308 1153 267 1153 q 376 1126 350 1153 q 403 1058 403 1099 q 376 991 403 1018 q 308 964 350 964 m 625 964 q 557 991 583 964 q 531 1058 531 1018 q 557 1126 531 1099 q 625 1153 583 1153 q 693 1126 667 1153 q 719 1058 719 1099 q 693 991 719 1018 q 625 964 667 964 z "},"Ụ":{"ha":933,"x_min":94,"x_max":839,"o":"m 469 -17 q 187 94 279 -17 q 94 436 94 204 l 94 903 l 333 903 l 333 408 q 366 238 333 288 q 469 189 399 189 q 574 238 540 189 q 608 408 608 288 l 608 903 l 839 903 l 839 436 q 749 94 839 204 q 469 -17 658 -17 m 467 -324 q 374 -290 410 -324 q 339 -204 339 -257 q 374 -118 339 -151 q 467 -85 410 -85 q 559 -118 524 -85 q 594 -204 594 -151 q 559 -290 594 -257 q 467 -324 524 -324 z "},"Ủ":{"ha":933,"x_min":94,"x_max":839,"o":"m 469 -17 q 187 94 279 -17 q 94 436 94 204 l 94 903 l 333 903 l 333 408 q 366 238 333 288 q 469 189 399 189 q 574 238 540 189 q 608 408 608 288 l 608 903 l 839 903 l 839 436 q 749 94 839 204 q 469 -17 658 -17 m 400 956 l 383 1047 q 423 1057 407 1050 q 439 1081 439 1064 q 415 1108 439 1097 q 331 1122 392 1118 l 358 1239 q 478 1226 431 1236 q 556 1198 526 1215 q 597 1157 585 1181 q 608 1106 608 1133 q 592 1041 608 1068 q 547 995 575 1014 q 481 967 518 976 q 400 956 443 957 z "},"Ų":{"ha":933,"x_min":94,"x_max":839,"o":"m 500 -317 q 380 -281 429 -317 q 331 -181 331 -246 q 342 -119 331 -147 q 367 -70 353 -92 q 397 -35 382 -49 q 419 -14 413 -21 q 174 110 254 -1 q 94 436 94 221 l 94 903 l 333 903 l 333 408 q 366 238 333 288 q 469 189 399 189 q 574 238 540 189 q 608 408 608 288 l 608 903 l 839 903 l 839 436 q 826 268 839 338 q 784 147 813 199 q 710 60 756 96 q 597 -6 664 24 q 524 -59 546 -29 q 503 -117 503 -89 q 520 -153 503 -142 q 558 -164 538 -164 q 583 -158 571 -164 q 606 -144 596 -151 l 658 -264 q 585 -302 629 -287 q 500 -317 540 -317 z "},"Ư":{"ha":961,"x_min":94,"x_max":1033,"o":"m 469 -17 q 187 94 279 -17 q 94 436 94 204 l 94 903 l 333 903 l 333 408 q 366 238 333 288 q 469 189 399 189 q 574 238 540 189 q 608 408 608 288 l 608 903 l 725 903 q 763 906 743 903 q 799 919 782 908 q 826 948 815 929 q 836 1000 836 967 q 828 1054 836 1029 q 814 1094 821 1079 l 989 1164 q 1019 1101 1006 1140 q 1033 1017 1033 1063 q 983 882 1033 929 q 839 818 933 835 l 839 436 q 749 94 839 204 q 469 -17 658 -17 z "},"Ứ":{"ha":961,"x_min":94,"x_max":1033,"o":"m 469 -17 q 187 94 279 -17 q 94 436 94 204 l 94 903 l 333 903 l 333 408 q 366 238 333 288 q 469 189 399 189 q 574 238 540 189 q 608 408 608 288 l 608 903 l 725 903 q 763 906 743 903 q 799 919 782 908 q 826 948 815 929 q 836 1000 836 967 q 828 1054 836 1029 q 814 1094 821 1079 l 989 1164 q 1019 1101 1006 1140 q 1033 1017 1033 1063 q 983 882 1033 929 q 839 818 933 835 l 839 436 q 749 94 839 204 q 469 -17 658 -17 m 456 936 l 350 1056 l 603 1256 l 728 1103 l 456 936 z "},"Ừ":{"ha":961,"x_min":94,"x_max":1033,"o":"m 469 -17 q 187 94 279 -17 q 94 436 94 204 l 94 903 l 333 903 l 333 408 q 366 238 333 288 q 469 189 399 189 q 574 238 540 189 q 608 408 608 288 l 608 903 l 725 903 q 763 906 743 903 q 799 919 782 908 q 826 948 815 929 q 836 1000 836 967 q 828 1054 836 1029 q 814 1094 821 1079 l 989 1164 q 1019 1101 1006 1140 q 1033 1017 1033 1063 q 983 882 1033 929 q 839 818 933 835 l 839 436 q 749 94 839 204 q 469 -17 658 -17 m 478 936 l 206 1103 l 331 1256 l 583 1056 l 478 936 z "},"Ử":{"ha":961,"x_min":94,"x_max":1033,"o":"m 469 -17 q 187 94 279 -17 q 94 436 94 204 l 94 903 l 333 903 l 333 408 q 366 238 333 288 q 469 189 399 189 q 574 238 540 189 q 608 408 608 288 l 608 903 l 725 903 q 763 906 743 903 q 799 919 782 908 q 826 948 815 929 q 836 1000 836 967 q 828 1054 836 1029 q 814 1094 821 1079 l 989 1164 q 1019 1101 1006 1140 q 1033 1017 1033 1063 q 983 882 1033 929 q 839 818 933 835 l 839 436 q 749 94 839 204 q 469 -17 658 -17 m 400 956 l 383 1047 q 423 1057 407 1050 q 439 1081 439 1064 q 415 1108 439 1097 q 331 1122 392 1118 l 358 1239 q 478 1226 431 1236 q 556 1198 526 1215 q 597 1157 585 1181 q 608 1106 608 1133 q 592 1041 608 1068 q 547 995 575 1014 q 481 967 518 976 q 400 956 443 957 z "},"Ữ":{"ha":961,"x_min":94,"x_max":1033,"o":"m 469 -17 q 187 94 279 -17 q 94 436 94 204 l 94 903 l 333 903 l 333 408 q 366 238 333 288 q 469 189 399 189 q 574 238 540 189 q 608 408 608 288 l 608 903 l 725 903 q 763 906 743 903 q 799 919 782 908 q 826 948 815 929 q 836 1000 836 967 q 828 1054 836 1029 q 814 1094 821 1079 l 989 1164 q 1019 1101 1006 1140 q 1033 1017 1033 1063 q 983 882 1033 929 q 839 818 933 835 l 839 436 q 749 94 839 204 q 469 -17 658 -17 m 564 953 q 499 964 528 953 q 449 989 471 975 q 409 1014 426 1003 q 378 1025 392 1025 q 349 1014 361 1025 q 333 967 338 1003 l 181 978 q 199 1075 183 1035 q 240 1140 215 1115 q 299 1177 265 1165 q 369 1189 332 1189 q 434 1178 406 1189 q 485 1153 463 1167 q 524 1128 507 1139 q 556 1117 540 1117 q 584 1128 572 1117 q 600 1175 596 1139 l 753 1164 q 734 1067 750 1107 q 693 1001 718 1026 q 635 965 668 976 q 564 953 601 953 z "},"Ự":{"ha":961,"x_min":94,"x_max":1033,"o":"m 469 -17 q 187 94 279 -17 q 94 436 94 204 l 94 903 l 333 903 l 333 408 q 366 238 333 288 q 469 189 399 189 q 574 238 540 189 q 608 408 608 288 l 608 903 l 725 903 q 763 906 743 903 q 799 919 782 908 q 826 948 815 929 q 836 1000 836 967 q 828 1054 836 1029 q 814 1094 821 1079 l 989 1164 q 1019 1101 1006 1140 q 1033 1017 1033 1063 q 983 882 1033 929 q 839 818 933 835 l 839 436 q 749 94 839 204 q 469 -17 658 -17 m 467 -324 q 374 -290 410 -324 q 339 -204 339 -257 q 374 -118 339 -151 q 467 -85 410 -85 q 559 -118 524 -85 q 594 -204 594 -151 q 559 -290 594 -257 q 467 -324 524 -324 z "},"Ẁ":{"ha":1144,"x_min":14,"x_max":1131,"o":"m 172 0 l 14 903 l 258 903 l 308 508 q 324 367 315 438 q 339 225 332 296 l 344 225 q 369 367 357 296 q 394 508 382 438 l 481 903 l 681 903 l 767 508 q 792 369 779 440 q 817 225 804 297 l 822 225 q 838 368 829 297 q 853 508 846 439 l 903 903 l 1131 903 l 981 0 l 678 0 l 608 358 q 590 465 597 411 q 575 569 582 519 l 569 569 q 555 465 563 519 q 536 358 547 411 l 469 0 l 172 0 m 583 936 l 311 1103 l 436 1256 l 689 1056 l 583 936 z "},"Ẃ":{"ha":1144,"x_min":14,"x_max":1131,"o":"m 172 0 l 14 903 l 258 903 l 308 508 q 324 367 315 438 q 339 225 332 296 l 344 225 q 369 367 357 296 q 394 508 382 438 l 481 903 l 681 903 l 767 508 q 792 369 779 440 q 817 225 804 297 l 822 225 q 838 368 829 297 q 853 508 846 439 l 903 903 l 1131 903 l 981 0 l 678 0 l 608 358 q 590 465 597 411 q 575 569 582 519 l 569 569 q 555 465 563 519 q 536 358 547 411 l 469 0 l 172 0 m 561 936 l 456 1056 l 708 1256 l 833 1103 l 561 936 z "},"Ŵ":{"ha":1144,"x_min":14,"x_max":1131,"o":"m 172 0 l 14 903 l 258 903 l 308 508 q 324 367 315 438 q 339 225 332 296 l 344 225 q 369 367 357 296 q 394 508 382 438 l 481 903 l 681 903 l 767 508 q 792 369 779 440 q 817 225 804 297 l 822 225 q 838 368 829 297 q 853 508 846 439 l 903 903 l 1131 903 l 981 0 l 678 0 l 608 358 q 590 465 597 411 q 575 569 582 519 l 569 569 q 555 465 563 519 q 536 358 547 411 l 469 0 l 172 0 m 325 1006 l 442 1158 l 703 1158 l 819 1006 l 717 944 l 575 1056 l 569 1056 l 428 944 l 325 1006 z "},"Ẅ":{"ha":1144,"x_min":14,"x_max":1131,"o":"m 172 0 l 14 903 l 258 903 l 308 508 q 324 367 315 438 q 339 225 332 296 l 344 225 q 369 367 357 296 q 394 508 382 438 l 481 903 l 681 903 l 767 508 q 792 369 779 440 q 817 225 804 297 l 822 225 q 838 368 829 297 q 853 508 846 439 l 903 903 l 1131 903 l 981 0 l 678 0 l 608 358 q 590 465 597 411 q 575 569 582 519 l 569 569 q 555 465 563 519 q 536 358 547 411 l 469 0 l 172 0 m 414 964 q 335 995 365 964 q 306 1072 306 1026 q 335 1149 306 1118 q 414 1181 365 1181 q 492 1149 463 1181 q 522 1072 522 1118 q 492 995 522 1026 q 414 964 463 964 m 731 964 q 652 995 682 964 q 622 1072 622 1026 q 652 1149 622 1118 q 731 1181 682 1181 q 809 1149 779 1181 q 839 1072 839 1118 q 809 995 839 1026 q 731 964 779 964 z "},"Ỳ":{"ha":756,"x_min":-14,"x_max":769,"o":"m 258 0 l 258 311 l -14 903 l 242 903 l 308 714 q 342 614 325 663 q 376 513 358 565 l 382 513 q 417 614 400 565 q 453 714 435 663 l 519 903 l 769 903 l 497 311 l 497 0 l 258 0 m 389 936 l 117 1103 l 242 1256 l 494 1056 l 389 936 z "},"Ý":{"ha":756,"x_min":-14,"x_max":769,"o":"m 258 0 l 258 311 l -14 903 l 242 903 l 308 714 q 342 614 325 663 q 376 513 358 565 l 382 513 q 417 614 400 565 q 453 714 435 663 l 519 903 l 769 903 l 497 311 l 497 0 l 258 0 m 367 936 l 261 1056 l 514 1256 l 639 1103 l 367 936 z "},"Ŷ":{"ha":756,"x_min":-14,"x_max":769,"o":"m 258 0 l 258 311 l -14 903 l 242 903 l 308 714 q 342 614 325 663 q 376 513 358 565 l 382 513 q 417 614 400 565 q 453 714 435 663 l 519 903 l 769 903 l 497 311 l 497 0 l 258 0 m 131 1006 l 247 1158 l 508 1158 l 625 1006 l 522 944 l 381 1056 l 375 1056 l 233 944 l 131 1006 z "},"Ÿ":{"ha":756,"x_min":-14,"x_max":769,"o":"m 258 0 l 258 311 l -14 903 l 242 903 l 308 714 q 342 614 325 663 q 376 513 358 565 l 382 513 q 417 614 400 565 q 453 714 435 663 l 519 903 l 769 903 l 497 311 l 497 0 l 258 0 m 219 964 q 141 995 171 964 q 111 1072 111 1026 q 141 1149 111 1118 q 219 1181 171 1181 q 298 1149 268 1181 q 328 1072 328 1118 q 298 995 328 1026 q 219 964 268 964 m 536 964 q 458 995 488 964 q 428 1072 428 1026 q 458 1149 428 1118 q 536 1181 488 1181 q 615 1149 585 1181 q 644 1072 644 1118 q 615 995 644 1026 q 536 964 585 964 z "},"Ẏ":{"ha":756,"x_min":-14,"x_max":769,"o":"m 258 0 l 258 311 l -14 903 l 242 903 l 308 714 q 342 614 325 663 q 376 513 358 565 l 382 513 q 417 614 400 565 q 453 714 435 663 l 519 903 l 769 903 l 497 311 l 497 0 l 258 0 m 378 967 q 282 1000 319 967 q 244 1086 244 1033 q 282 1172 244 1139 q 378 1206 319 1206 q 474 1172 436 1206 q 511 1086 511 1139 q 474 1000 511 1033 q 378 967 436 967 z "},"Ỵ":{"ha":756,"x_min":-14,"x_max":769,"o":"m 258 0 l 258 311 l -14 903 l 242 903 l 308 714 q 342 614 325 663 q 376 513 358 565 l 382 513 q 417 614 400 565 q 453 714 435 663 l 519 903 l 769 903 l 497 311 l 497 0 l 258 0 m 381 -324 q 288 -290 324 -324 q 253 -204 253 -257 q 288 -118 253 -151 q 381 -85 324 -85 q 473 -118 438 -85 q 508 -204 508 -151 q 473 -290 508 -257 q 381 -324 438 -324 z "},"Ỷ":{"ha":756,"x_min":-14,"x_max":769,"o":"m 258 0 l 258 311 l -14 903 l 242 903 l 308 714 q 342 614 325 663 q 376 513 358 565 l 382 513 q 417 614 400 565 q 453 714 435 663 l 519 903 l 769 903 l 497 311 l 497 0 l 258 0 m 311 956 l 294 1047 q 334 1057 318 1050 q 350 1081 350 1064 q 326 1108 350 1097 q 242 1122 303 1118 l 269 1239 q 390 1226 342 1236 q 467 1198 438 1215 q 508 1157 496 1181 q 519 1106 519 1133 q 503 1041 519 1068 q 458 995 486 1014 q 392 967 429 976 q 311 956 354 957 z "},"Ỹ":{"ha":756,"x_min":-14,"x_max":769,"o":"m 258 0 l 258 311 l -14 903 l 242 903 l 308 714 q 342 614 325 663 q 376 513 358 565 l 382 513 q 417 614 400 565 q 453 714 435 663 l 519 903 l 769 903 l 497 311 l 497 0 l 258 0 m 475 953 q 410 964 439 953 q 360 989 382 975 q 320 1014 338 1003 q 289 1025 303 1025 q 260 1014 272 1025 q 244 967 249 1003 l 92 978 q 110 1075 94 1035 q 151 1140 126 1115 q 210 1177 176 1165 q 281 1189 243 1189 q 345 1178 317 1189 q 396 1153 374 1167 q 435 1128 418 1139 q 467 1117 451 1117 q 495 1128 483 1117 q 511 1175 507 1139 l 664 1164 q 645 1067 661 1107 q 604 1001 629 1026 q 546 965 579 976 q 475 953 513 953 z "},"Ź":{"ha":753,"x_min":44,"x_max":711,"o":"m 44 0 l 44 144 l 414 703 l 81 703 l 81 903 l 708 903 l 708 758 l 339 200 l 711 200 l 711 0 l 44 0 m 383 936 l 278 1056 l 531 1256 l 656 1103 l 383 936 z "},"Ž":{"ha":753,"x_min":44,"x_max":711,"o":"m 44 0 l 44 144 l 414 703 l 81 703 l 81 903 l 708 903 l 708 758 l 339 200 l 711 200 l 711 0 l 44 0 m 264 972 l 147 1125 l 250 1186 l 392 1075 l 397 1075 l 539 1186 l 642 1125 l 525 972 l 264 972 z "},"Ż":{"ha":753,"x_min":44,"x_max":711,"o":"m 44 0 l 44 144 l 414 703 l 81 703 l 81 903 l 708 903 l 708 758 l 339 200 l 711 200 l 711 0 l 44 0 m 394 967 q 299 1000 336 967 q 261 1086 261 1033 q 299 1172 261 1139 q 394 1206 336 1206 q 490 1172 453 1206 q 528 1086 528 1139 q 490 1000 528 1033 q 394 967 453 967 z "},"Ẓ":{"ha":753,"x_min":44,"x_max":711,"o":"m 44 0 l 44 144 l 414 703 l 81 703 l 81 903 l 708 903 l 708 758 l 339 200 l 711 200 l 711 0 l 44 0 m 392 -324 q 299 -290 335 -324 q 264 -204 264 -257 q 299 -118 264 -151 q 392 -85 335 -85 q 484 -118 449 -85 q 519 -204 519 -151 q 484 -290 519 -257 q 392 -324 449 -324 z "},"Ẕ":{"ha":753,"x_min":44,"x_max":711,"o":"m 44 0 l 44 144 l 414 703 l 81 703 l 81 903 l 708 903 l 708 758 l 339 200 l 711 200 l 711 0 l 44 0 m 178 -271 l 178 -121 l 606 -121 l 606 -271 l 178 -271 z "},"Ð":{"ha":928,"x_min":33,"x_max":867,"o":"m 33 408 l 33 511 l 136 519 l 136 903 l 403 903 q 591 878 506 903 q 738 799 676 853 q 833 660 799 744 q 867 456 867 575 q 833 250 867 336 q 740 108 800 164 q 597 26 679 53 q 417 0 514 0 l 136 0 l 136 408 l 33 408 m 375 192 l 389 192 q 481 203 438 192 q 555 244 524 215 q 604 325 586 274 q 622 456 622 376 q 604 585 622 535 q 555 663 586 635 q 481 701 524 690 q 389 711 438 711 l 375 711 l 375 519 l 536 519 l 536 408 l 375 408 l 375 192 z "},"Þ":{"ha":875,"x_min":100,"x_max":811,"o":"m 100 0 l 100 903 l 339 903 l 339 772 l 450 772 q 588 758 522 772 q 703 708 654 743 q 782 615 753 672 q 811 472 811 557 q 781 329 811 389 q 701 231 751 269 q 586 174 651 193 q 450 156 521 156 l 339 156 l 339 0 l 100 0 m 339 344 l 439 344 q 544 378 510 344 q 578 472 578 411 q 542 558 578 533 q 439 583 506 583 l 339 583 l 339 344 z "},"Ə":{"ha":947,"x_min":67,"x_max":886,"o":"m 472 -17 q 304 13 379 -17 q 176 100 229 42 q 95 245 124 158 q 67 447 67 332 q 68 487 67 467 q 72 528 69 507 l 646 528 q 584 678 633 632 q 447 725 535 725 q 340 699 385 725 q 258 642 294 674 l 150 806 q 287 888 207 856 q 478 919 367 919 q 642 890 567 919 q 771 801 717 860 q 856 656 825 743 q 886 453 886 568 q 856 249 886 338 q 772 102 826 161 q 642 13 718 43 q 472 -17 565 -17 m 472 178 q 583 219 538 178 q 643 356 628 260 l 311 356 q 361 217 319 256 q 472 178 403 178 z "},"Ŋ":{"ha":942,"x_min":100,"x_max":881,"o":"m 575 -17 q 503 -10 542 -17 q 444 11 465 -4 l 494 217 q 518 209 506 213 q 547 206 531 206 q 581 215 565 206 q 610 252 597 225 q 629 328 622 279 q 636 458 636 378 q 600 655 636 596 q 497 714 564 714 q 415 689 460 714 q 339 608 371 664 l 339 0 l 100 0 l 100 903 l 331 903 l 331 811 q 443 894 383 868 q 571 919 503 919 q 694 894 638 919 q 792 815 750 869 q 857 672 833 760 q 881 458 881 585 q 808 103 881 224 q 575 -17 736 -17 z "},"Ĳ":{"ha":878,"x_min":100,"x_max":778,"o":"m 100 0 l 100 903 l 339 903 l 339 0 l 100 0 m 508 -261 q 431 -256 460 -261 q 378 -242 401 -250 l 419 -67 q 446 -73 435 -71 q 469 -75 457 -75 q 523 -52 507 -75 q 539 28 539 -29 l 539 903 l 778 903 l 778 36 q 765 -76 778 -22 q 722 -171 753 -129 q 638 -237 690 -212 q 508 -261 586 -261 z "},"à":{"ha":744,"x_min":53,"x_max":669,"o":"m 261 -17 q 174 1 213 -17 q 108 47 135 18 q 67 115 81 76 q 53 197 53 154 q 142 367 53 306 q 431 450 231 429 q 333 522 422 522 q 254 508 296 522 q 158 464 213 493 l 75 619 q 224 688 149 664 q 381 711 299 711 q 592 634 515 711 q 669 386 669 557 l 669 0 l 475 0 l 458 67 l 453 67 q 365 6 411 29 q 261 -17 318 -17 m 344 167 q 392 180 374 167 q 431 214 411 193 l 431 308 q 313 271 344 296 q 281 217 281 246 q 344 167 281 167 m 363 794 l 99 1014 l 260 1172 l 479 911 l 363 794 z "},"á":{"ha":744,"x_min":53,"x_max":682,"o":"m 261 -17 q 174 1 213 -17 q 108 47 135 18 q 67 115 81 76 q 53 197 53 154 q 142 367 53 306 q 431 450 231 429 q 333 522 422 522 q 254 508 296 522 q 158 464 213 493 l 75 619 q 224 688 149 664 q 381 711 299 711 q 592 634 515 711 q 669 386 669 557 l 669 0 l 475 0 l 458 67 l 453 67 q 365 6 411 29 q 261 -17 318 -17 m 344 167 q 392 180 374 167 q 431 214 411 193 l 431 308 q 313 271 344 296 q 281 217 281 246 q 344 167 281 167 m 418 794 l 301 911 l 521 1172 l 682 1014 l 418 794 z "},"â":{"ha":744,"x_min":53,"x_max":669,"o":"m 261 -17 q 174 1 213 -17 q 108 47 135 18 q 67 115 81 76 q 53 197 53 154 q 142 367 53 306 q 431 450 231 429 q 333 522 422 522 q 254 508 296 522 q 158 464 213 493 l 75 619 q 224 688 149 664 q 381 711 299 711 q 592 634 515 711 q 669 386 669 557 l 669 0 l 475 0 l 458 67 l 453 67 q 365 6 411 29 q 261 -17 318 -17 m 344 167 q 392 180 374 167 q 431 214 411 193 l 431 308 q 313 271 344 296 q 281 217 281 246 q 344 167 281 167 m 121 858 l 268 1036 l 513 1036 l 660 858 l 571 775 l 393 892 l 388 892 l 210 775 l 121 858 z "},"ã":{"ha":744,"x_min":53,"x_max":669,"o":"m 261 -17 q 174 1 213 -17 q 108 47 135 18 q 67 115 81 76 q 53 197 53 154 q 142 367 53 306 q 431 450 231 429 q 333 522 422 522 q 254 508 296 522 q 158 464 213 493 l 75 619 q 224 688 149 664 q 381 711 299 711 q 592 634 515 711 q 669 386 669 557 l 669 0 l 475 0 l 458 67 l 453 67 q 365 6 411 29 q 261 -17 318 -17 m 344 167 q 392 180 374 167 q 431 214 411 193 l 431 308 q 313 271 344 296 q 281 217 281 246 q 344 167 281 167 m 479 794 q 422 806 447 794 q 375 833 396 818 q 338 860 354 847 q 307 872 321 872 q 280 859 290 872 q 265 808 269 846 l 118 817 q 169 985 121 935 q 301 1036 218 1036 q 358 1024 332 1036 q 406 997 385 1011 q 443 970 426 982 q 474 958 460 958 q 501 972 490 958 q 515 1022 511 985 l 663 1014 q 611 845 660 896 q 479 794 563 794 z "},"ä":{"ha":744,"x_min":53,"x_max":669,"o":"m 261 -17 q 174 1 213 -17 q 108 47 135 18 q 67 115 81 76 q 53 197 53 154 q 142 367 53 306 q 431 450 231 429 q 333 522 422 522 q 254 508 296 522 q 158 464 213 493 l 75 619 q 224 688 149 664 q 381 711 299 711 q 592 634 515 711 q 669 386 669 557 l 669 0 l 475 0 l 458 67 l 453 67 q 365 6 411 29 q 261 -17 318 -17 m 344 167 q 392 180 374 167 q 431 214 411 193 l 431 308 q 313 271 344 296 q 281 217 281 246 q 344 167 281 167 m 232 781 q 152 813 183 781 q 121 892 121 844 q 152 971 121 939 q 232 1003 183 1003 q 312 971 281 1003 q 343 892 343 939 q 312 813 343 844 q 232 781 281 781 m 549 781 q 469 813 500 781 q 438 892 438 844 q 469 971 438 939 q 549 1003 500 1003 q 628 971 597 1003 q 660 892 660 939 q 628 813 660 844 q 549 781 597 781 z "},"ā":{"ha":744,"x_min":53,"x_max":669,"o":"m 261 -17 q 174 1 213 -17 q 108 47 135 18 q 67 115 81 76 q 53 197 53 154 q 142 367 53 306 q 431 450 231 429 q 333 522 422 522 q 254 508 296 522 q 158 464 213 493 l 75 619 q 224 688 149 664 q 381 711 299 711 q 592 634 515 711 q 669 386 669 557 l 669 0 l 475 0 l 458 67 l 453 67 q 365 6 411 29 q 261 -17 318 -17 m 344 167 q 392 180 374 167 q 431 214 411 193 l 431 308 q 313 271 344 296 q 281 217 281 246 q 344 167 281 167 m 176 817 l 176 967 l 604 967 l 604 817 l 176 817 z "},"ă":{"ha":744,"x_min":53,"x_max":669,"o":"m 261 -17 q 174 1 213 -17 q 108 47 135 18 q 67 115 81 76 q 53 197 53 154 q 142 367 53 306 q 431 450 231 429 q 333 522 422 522 q 254 508 296 522 q 158 464 213 493 l 75 619 q 224 688 149 664 q 381 711 299 711 q 592 634 515 711 q 669 386 669 557 l 669 0 l 475 0 l 458 67 l 453 67 q 365 6 411 29 q 261 -17 318 -17 m 344 167 q 392 180 374 167 q 431 214 411 193 l 431 308 q 313 271 344 296 q 281 217 281 246 q 344 167 281 167 m 390 794 q 210 856 268 794 q 149 1017 151 918 l 282 1039 q 315 969 289 997 q 390 942 340 942 q 466 969 440 942 q 499 1039 492 997 l 632 1017 q 571 856 629 918 q 390 794 513 794 z "},"å":{"ha":744,"x_min":53,"x_max":669,"o":"m 261 -17 q 174 1 213 -17 q 108 47 135 18 q 67 115 81 76 q 53 197 53 154 q 142 367 53 306 q 431 450 231 429 q 333 522 422 522 q 254 508 296 522 q 158 464 213 493 l 75 619 q 224 688 149 664 q 381 711 299 711 q 592 634 515 711 q 669 386 669 557 l 669 0 l 475 0 l 458 67 l 453 67 q 365 6 411 29 q 261 -17 318 -17 m 344 167 q 392 180 374 167 q 431 214 411 193 l 431 308 q 313 271 344 296 q 281 217 281 246 q 344 167 281 167 m 390 789 q 244 832 292 789 q 196 936 196 875 q 244 1040 196 997 q 390 1083 292 1083 q 537 1040 489 1083 q 585 936 585 997 q 537 832 585 875 q 390 789 489 789 m 390 875 q 428 892 413 875 q 443 936 443 908 q 428 981 443 964 q 390 997 413 997 q 353 981 368 997 q 338 936 338 964 q 353 892 338 908 q 390 875 368 875 z "},"ǎ":{"ha":744,"x_min":53,"x_max":669,"o":"m 261 -17 q 174 1 213 -17 q 108 47 135 18 q 67 115 81 76 q 53 197 53 154 q 142 367 53 306 q 431 450 231 429 q 333 522 422 522 q 254 508 296 522 q 158 464 213 493 l 75 619 q 224 688 149 664 q 381 711 299 711 q 592 634 515 711 q 669 386 669 557 l 669 0 l 475 0 l 458 67 l 453 67 q 365 6 411 29 q 261 -17 318 -17 m 344 167 q 392 180 374 167 q 431 214 411 193 l 431 308 q 313 271 344 296 q 281 217 281 246 q 344 167 281 167 m 268 803 l 121 981 l 210 1064 l 388 947 l 393 947 l 571 1064 l 660 981 l 513 803 l 268 803 z "},"ạ":{"ha":744,"x_min":53,"x_max":669,"o":"m 261 -17 q 174 1 213 -17 q 108 47 135 18 q 67 115 81 76 q 53 197 53 154 q 142 367 53 306 q 431 450 231 429 q 333 522 422 522 q 254 508 296 522 q 158 464 213 493 l 75 619 q 224 688 149 664 q 381 711 299 711 q 592 634 515 711 q 669 386 669 557 l 669 0 l 475 0 l 458 67 l 453 67 q 365 6 411 29 q 261 -17 318 -17 m 344 167 q 392 180 374 167 q 431 214 411 193 l 431 308 q 313 271 344 296 q 281 217 281 246 q 344 167 281 167 m 367 -324 q 274 -290 310 -324 q 239 -204 239 -257 q 274 -118 239 -151 q 367 -85 310 -85 q 459 -118 424 -85 q 494 -204 494 -151 q 459 -290 494 -257 q 367 -324 424 -324 z "},"ả":{"ha":744,"x_min":53,"x_max":669,"o":"m 261 -17 q 174 1 213 -17 q 108 47 135 18 q 67 115 81 76 q 53 197 53 154 q 142 367 53 306 q 431 450 231 429 q 333 522 422 522 q 254 508 296 522 q 158 464 213 493 l 75 619 q 224 688 149 664 q 381 711 299 711 q 592 634 515 711 q 669 386 669 557 l 669 0 l 475 0 l 458 67 l 453 67 q 365 6 411 29 q 261 -17 318 -17 m 344 167 q 392 180 374 167 q 431 214 411 193 l 431 308 q 313 271 344 296 q 281 217 281 246 q 344 167 281 167 m 324 786 l 307 878 q 347 890 331 881 q 363 919 363 899 q 339 957 363 943 q 254 975 315 971 l 268 1119 q 395 1103 344 1117 q 477 1065 446 1089 q 522 1008 508 1040 q 535 936 535 975 q 518 872 535 899 q 472 826 501 844 q 405 797 443 807 q 324 786 367 788 z "},"ấ":{"ha":744,"x_min":53,"x_max":799,"o":"m 261 -17 q 174 1 213 -17 q 108 47 135 18 q 67 115 81 76 q 53 197 53 154 q 142 367 53 306 q 431 450 231 429 q 333 522 422 522 q 254 508 296 522 q 158 464 213 493 l 75 619 q 224 688 149 664 q 381 711 299 711 q 592 634 515 711 q 669 386 669 557 l 669 0 l 475 0 l 458 67 l 453 67 q 365 6 411 29 q 261 -17 318 -17 m 344 167 q 392 180 374 167 q 431 214 411 193 l 431 308 q 313 271 344 296 q 281 217 281 246 q 344 167 281 167 m 246 783 l 171 867 l 296 994 l 485 994 l 610 867 l 535 783 l 393 869 l 388 869 l 246 783 m 568 956 l 674 1136 l 799 1056 l 657 886 l 568 956 z "},"ầ":{"ha":744,"x_min":-18,"x_max":669,"o":"m 261 -17 q 174 1 213 -17 q 108 47 135 18 q 67 115 81 76 q 53 197 53 154 q 142 367 53 306 q 431 450 231 429 q 333 522 422 522 q 254 508 296 522 q 158 464 213 493 l 75 619 q 224 688 149 664 q 381 711 299 711 q 592 634 515 711 q 669 386 669 557 l 669 0 l 475 0 l 458 67 l 453 67 q 365 6 411 29 q 261 -17 318 -17 m 344 167 q 392 180 374 167 q 431 214 411 193 l 431 308 q 313 271 344 296 q 281 217 281 246 q 344 167 281 167 m 246 783 l 171 867 l 296 994 l 485 994 l 610 867 l 535 783 l 393 869 l 388 869 l 246 783 m 213 956 l 124 886 l -18 1056 l 107 1136 l 213 956 z "},"ẩ":{"ha":744,"x_min":53,"x_max":768,"o":"m 261 -17 q 174 1 213 -17 q 108 47 135 18 q 67 115 81 76 q 53 197 53 154 q 142 367 53 306 q 431 450 231 429 q 333 522 422 522 q 254 508 296 522 q 158 464 213 493 l 75 619 q 224 688 149 664 q 381 711 299 711 q 592 634 515 711 q 669 386 669 557 l 669 0 l 475 0 l 458 67 l 453 67 q 365 6 411 29 q 261 -17 318 -17 m 344 167 q 392 180 374 167 q 431 214 411 193 l 431 308 q 313 271 344 296 q 281 217 281 246 q 344 167 281 167 m 246 783 l 171 867 l 296 994 l 485 994 l 610 867 l 535 783 l 393 869 l 388 869 l 246 783 m 593 900 l 579 978 q 606 988 596 981 q 615 1011 615 994 q 597 1038 615 1028 q 526 1053 579 1049 l 549 1150 q 655 1138 613 1147 q 722 1115 697 1129 q 758 1080 747 1100 q 768 1036 768 1060 q 754 976 768 1000 q 717 936 740 951 q 661 913 693 921 q 593 900 629 904 z "},"ẫ":{"ha":744,"x_min":53,"x_max":669,"o":"m 261 -17 q 174 1 213 -17 q 108 47 135 18 q 67 115 81 76 q 53 197 53 154 q 142 367 53 306 q 431 450 231 429 q 333 522 422 522 q 254 508 296 522 q 158 464 213 493 l 75 619 q 224 688 149 664 q 381 711 299 711 q 592 634 515 711 q 669 386 669 557 l 669 0 l 475 0 l 458 67 l 453 67 q 365 6 411 29 q 261 -17 318 -17 m 344 167 q 392 180 374 167 q 431 214 411 193 l 431 308 q 313 271 344 296 q 281 217 281 246 q 344 167 281 167 m 246 783 l 171 867 l 296 981 l 485 981 l 610 867 l 535 783 l 393 856 l 388 856 l 246 783 m 179 1017 q 224 1145 189 1107 q 313 1183 258 1183 q 361 1174 340 1183 q 398 1154 382 1165 q 427 1134 414 1143 q 454 1125 440 1125 q 479 1136 469 1125 q 496 1175 489 1147 l 601 1164 q 557 1035 592 1074 q 468 997 522 997 q 419 1006 440 997 q 383 1026 399 1015 q 353 1047 367 1038 q 326 1056 340 1056 q 301 1044 311 1056 q 285 1006 292 1033 l 179 1017 z "},"ậ":{"ha":744,"x_min":53,"x_max":669,"o":"m 261 -17 q 174 1 213 -17 q 108 47 135 18 q 67 115 81 76 q 53 197 53 154 q 142 367 53 306 q 431 450 231 429 q 333 522 422 522 q 254 508 296 522 q 158 464 213 493 l 75 619 q 224 688 149 664 q 381 711 299 711 q 592 634 515 711 q 669 386 669 557 l 669 0 l 475 0 l 458 67 l 453 67 q 365 6 411 29 q 261 -17 318 -17 m 344 167 q 392 180 374 167 q 431 214 411 193 l 431 308 q 313 271 344 296 q 281 217 281 246 q 344 167 281 167 m 121 858 l 268 1036 l 513 1036 l 660 858 l 571 775 l 393 892 l 388 892 l 210 775 l 121 858 m 367 -324 q 274 -290 310 -324 q 239 -204 239 -257 q 274 -118 239 -151 q 367 -85 310 -85 q 459 -118 424 -85 q 494 -204 494 -151 q 459 -290 494 -257 q 367 -324 424 -324 z "},"ắ":{"ha":744,"x_min":53,"x_max":669,"o":"m 261 -17 q 174 1 213 -17 q 108 47 135 18 q 67 115 81 76 q 53 197 53 154 q 142 367 53 306 q 431 450 231 429 q 333 522 422 522 q 254 508 296 522 q 158 464 213 493 l 75 619 q 224 688 149 664 q 381 711 299 711 q 592 634 515 711 q 669 386 669 557 l 669 0 l 475 0 l 458 67 l 453 67 q 365 6 411 29 q 261 -17 318 -17 m 344 167 q 392 180 374 167 q 431 214 411 193 l 431 308 q 313 271 344 296 q 281 217 281 246 q 344 167 281 167 m 410 981 l 307 1050 l 440 1256 l 579 1153 l 410 981 m 390 794 q 210 856 268 794 q 149 1017 151 918 l 268 1039 q 304 959 275 990 q 390 928 333 928 q 476 959 447 928 q 513 1039 506 990 l 632 1017 q 571 856 629 918 q 390 794 513 794 z "},"ằ":{"ha":744,"x_min":53,"x_max":669,"o":"m 261 -17 q 174 1 213 -17 q 108 47 135 18 q 67 115 81 76 q 53 197 53 154 q 142 367 53 306 q 431 450 231 429 q 333 522 422 522 q 254 508 296 522 q 158 464 213 493 l 75 619 q 224 688 149 664 q 381 711 299 711 q 592 634 515 711 q 669 386 669 557 l 669 0 l 475 0 l 458 67 l 453 67 q 365 6 411 29 q 261 -17 318 -17 m 344 167 q 392 180 374 167 q 431 214 411 193 l 431 308 q 313 271 344 296 q 281 217 281 246 q 344 167 281 167 m 371 981 l 201 1153 l 340 1256 l 474 1050 l 371 981 m 390 794 q 210 856 268 794 q 149 1017 151 918 l 268 1039 q 304 959 275 990 q 390 928 333 928 q 476 959 447 928 q 513 1039 506 990 l 632 1017 q 571 856 629 918 q 390 794 513 794 z "},"ẳ":{"ha":744,"x_min":53,"x_max":669,"o":"m 261 -17 q 174 1 213 -17 q 108 47 135 18 q 67 115 81 76 q 53 197 53 154 q 142 367 53 306 q 431 450 231 429 q 333 522 422 522 q 254 508 296 522 q 158 464 213 493 l 75 619 q 224 688 149 664 q 381 711 299 711 q 592 634 515 711 q 669 386 669 557 l 669 0 l 475 0 l 458 67 l 453 67 q 365 6 411 29 q 261 -17 318 -17 m 344 167 q 392 180 374 167 q 431 214 411 193 l 431 308 q 313 271 344 296 q 281 217 281 246 q 344 167 281 167 m 338 976 l 324 1054 q 350 1064 340 1057 q 360 1088 360 1071 q 342 1115 360 1104 q 271 1129 324 1125 l 293 1256 q 399 1242 357 1253 q 467 1212 442 1231 q 502 1168 492 1193 q 513 1113 513 1143 q 499 1052 513 1076 q 461 1013 485 1028 q 406 989 438 997 q 338 976 374 981 m 390 794 q 210 856 268 794 q 149 1017 151 918 l 268 1039 q 304 959 275 990 q 390 928 333 928 q 476 959 447 928 q 513 1039 506 990 l 632 1017 q 571 856 629 918 q 390 794 513 794 z "},"ẵ":{"ha":744,"x_min":53,"x_max":669,"o":"m 261 -17 q 174 1 213 -17 q 108 47 135 18 q 67 115 81 76 q 53 197 53 154 q 142 367 53 306 q 431 450 231 429 q 333 522 422 522 q 254 508 296 522 q 158 464 213 493 l 75 619 q 224 688 149 664 q 381 711 299 711 q 592 634 515 711 q 669 386 669 557 l 669 0 l 475 0 l 458 67 l 453 67 q 365 6 411 29 q 261 -17 318 -17 m 344 167 q 392 180 374 167 q 431 214 411 193 l 431 308 q 313 271 344 296 q 281 217 281 246 q 344 167 281 167 m 390 794 q 295 807 335 794 q 228 842 256 819 q 188 893 201 864 q 171 956 174 922 l 285 975 q 315 931 292 950 q 390 911 338 911 q 466 931 443 911 q 496 975 489 950 l 610 956 q 593 893 607 922 q 552 842 579 864 q 485 807 525 819 q 390 794 446 794 m 165 1014 q 214 1142 175 1104 q 313 1181 253 1181 q 361 1172 340 1181 q 398 1151 382 1163 q 427 1131 414 1140 q 454 1122 440 1122 q 479 1133 469 1122 q 496 1172 489 1144 l 615 1161 q 567 1033 606 1071 q 468 994 528 994 q 419 1003 440 994 q 383 1024 399 1013 q 353 1044 367 1035 q 326 1053 340 1053 q 301 1042 311 1053 q 285 1003 292 1031 l 165 1014 z "},"ặ":{"ha":744,"x_min":53,"x_max":669,"o":"m 261 -17 q 174 1 213 -17 q 108 47 135 18 q 67 115 81 76 q 53 197 53 154 q 142 367 53 306 q 431 450 231 429 q 333 522 422 522 q 254 508 296 522 q 158 464 213 493 l 75 619 q 224 688 149 664 q 381 711 299 711 q 592 634 515 711 q 669 386 669 557 l 669 0 l 475 0 l 458 67 l 453 67 q 365 6 411 29 q 261 -17 318 -17 m 344 167 q 392 180 374 167 q 431 214 411 193 l 431 308 q 313 271 344 296 q 281 217 281 246 q 344 167 281 167 m 390 794 q 210 856 268 794 q 149 1017 151 918 l 282 1039 q 315 969 289 997 q 390 942 340 942 q 466 969 440 942 q 499 1039 492 997 l 632 1017 q 571 856 629 918 q 390 794 513 794 m 367 -324 q 274 -290 310 -324 q 239 -204 239 -257 q 274 -118 239 -151 q 367 -85 310 -85 q 459 -118 424 -85 q 494 -204 494 -151 q 459 -290 494 -257 q 367 -324 424 -324 z "},"ą":{"ha":744,"x_min":53,"x_max":697,"o":"m 544 -294 q 434 -262 479 -294 q 389 -164 389 -229 q 399 -107 389 -133 q 423 -60 408 -81 q 452 -26 438 -40 q 478 -6 467 -12 l 458 67 l 453 67 q 365 6 411 29 q 261 -17 318 -17 q 174 1 213 -17 q 108 47 135 18 q 67 115 81 76 q 53 197 53 154 q 142 367 53 306 q 431 450 231 429 q 333 522 422 522 q 254 508 296 522 q 158 464 213 493 l 75 619 q 224 688 149 664 q 381 711 299 711 q 592 634 515 711 q 669 386 669 557 l 669 0 q 573 -48 599 -17 q 547 -108 547 -79 q 565 -144 547 -133 q 603 -156 582 -156 q 628 -151 615 -156 q 650 -139 642 -146 l 697 -244 q 624 -281 668 -268 q 544 -294 581 -294 m 344 167 q 392 180 374 167 q 431 214 411 193 l 431 308 q 313 271 344 296 q 281 217 281 246 q 344 167 281 167 z "},"æ":{"ha":1092,"x_min":58,"x_max":1042,"o":"m 267 -17 q 179 1 218 -17 q 113 47 140 18 q 72 115 86 76 q 58 197 58 154 q 146 368 58 306 q 433 451 233 431 q 408 505 429 488 q 339 522 386 522 q 260 508 301 522 q 164 464 218 493 l 81 619 q 226 688 154 664 q 372 711 297 711 q 482 688 433 711 q 564 622 531 664 q 656 689 610 667 q 761 711 703 711 q 885 684 832 711 q 972 610 938 657 q 1024 501 1007 564 q 1042 369 1042 439 q 1038 313 1042 338 q 1032 275 1035 288 l 650 275 q 705 193 665 217 q 797 169 744 169 q 866 183 833 169 q 936 217 899 196 l 1017 64 q 891 3 960 24 q 764 -17 822 -17 q 631 10 690 -17 q 528 83 572 36 q 458 35 490 54 q 394 5 425 17 q 333 -12 364 -7 q 267 -17 301 -17 m 350 167 q 405 178 381 167 q 450 208 429 189 q 433 282 438 246 l 431 308 q 319 272 351 296 q 286 217 286 247 q 350 167 286 167 m 650 419 l 839 419 q 820 498 839 465 q 753 531 801 531 q 685 506 713 531 q 650 419 658 481 z "},"ǽ":{"ha":1092,"x_min":58,"x_max":1042,"o":"m 267 -17 q 179 1 218 -17 q 113 47 140 18 q 72 115 86 76 q 58 197 58 154 q 146 368 58 306 q 433 451 233 431 q 408 505 429 488 q 339 522 386 522 q 260 508 301 522 q 164 464 218 493 l 81 619 q 226 688 154 664 q 372 711 297 711 q 482 688 433 711 q 564 622 531 664 q 656 689 610 667 q 761 711 703 711 q 885 684 832 711 q 972 610 938 657 q 1024 501 1007 564 q 1042 369 1042 439 q 1038 313 1042 338 q 1032 275 1035 288 l 650 275 q 705 193 665 217 q 797 169 744 169 q 866 183 833 169 q 936 217 899 196 l 1017 64 q 891 3 960 24 q 764 -17 822 -17 q 631 10 690 -17 q 528 83 572 36 q 458 35 490 54 q 394 5 425 17 q 333 -12 364 -7 q 267 -17 301 -17 m 350 167 q 405 178 381 167 q 450 208 429 189 q 433 282 438 246 l 431 308 q 319 272 351 296 q 286 217 286 247 q 350 167 286 167 m 650 419 l 839 419 q 820 498 839 465 q 753 531 801 531 q 685 506 713 531 q 650 419 658 481 m 597 794 l 481 911 l 700 1172 l 861 1014 l 597 794 z "},"ǣ":{"ha":1092,"x_min":58,"x_max":1042,"o":"m 267 -17 q 179 1 218 -17 q 113 47 140 18 q 72 115 86 76 q 58 197 58 154 q 146 368 58 306 q 433 451 233 431 q 408 505 429 488 q 339 522 386 522 q 260 508 301 522 q 164 464 218 493 l 81 619 q 226 688 154 664 q 372 711 297 711 q 482 688 433 711 q 564 622 531 664 q 656 689 610 667 q 761 711 703 711 q 885 684 832 711 q 972 610 938 657 q 1024 501 1007 564 q 1042 369 1042 439 q 1038 313 1042 338 q 1032 275 1035 288 l 650 275 q 705 193 665 217 q 797 169 744 169 q 866 183 833 169 q 936 217 899 196 l 1017 64 q 891 3 960 24 q 764 -17 822 -17 q 631 10 690 -17 q 528 83 572 36 q 458 35 490 54 q 394 5 425 17 q 333 -12 364 -7 q 267 -17 301 -17 m 350 167 q 405 178 381 167 q 450 208 429 189 q 433 282 438 246 l 431 308 q 319 272 351 296 q 286 217 286 247 q 350 167 286 167 m 650 419 l 839 419 q 820 498 839 465 q 753 531 801 531 q 685 506 713 531 q 650 419 658 481 m 356 817 l 356 967 l 783 967 l 783 817 l 356 817 z "},"ƀ":{"ha":808,"x_min":-11,"x_max":756,"o":"m 467 -17 q 376 6 421 -17 q 292 75 332 29 l 286 75 l 267 0 l 81 0 l 81 764 l -11 764 l -11 867 l 81 874 l 81 967 l 319 967 l 319 875 l 547 875 l 547 764 l 319 764 l 319 669 l 314 569 q 394 621 350 603 q 485 639 439 639 q 596 616 546 639 q 681 552 646 593 q 736 453 717 511 q 756 326 756 396 q 731 183 756 247 q 667 75 707 119 q 574 7 626 31 q 467 -17 522 -17 m 408 178 q 481 213 450 178 q 511 322 511 247 q 414 444 511 444 q 365 433 386 444 q 319 394 343 422 l 319 211 q 363 185 340 192 q 408 178 385 178 z "},"ḇ":{"ha":806,"x_min":81,"x_max":756,"o":"m 467 -17 q 376 6 421 -17 q 292 75 332 29 l 286 75 l 267 0 l 81 0 l 81 967 l 319 967 l 319 742 l 314 642 q 394 693 350 675 q 485 711 439 711 q 596 686 546 711 q 681 615 646 661 q 736 504 717 569 q 756 360 756 439 q 731 199 756 269 q 667 81 707 129 q 574 8 626 33 q 467 -17 522 -17 m 408 178 q 481 217 450 178 q 511 356 511 256 q 487 479 511 442 q 414 517 463 517 q 365 506 386 517 q 319 467 343 494 l 319 211 q 363 185 340 192 q 408 178 385 178 m 199 -271 l 199 -121 l 626 -121 l 626 -271 l 199 -271 z "},"ç":{"ha":656,"x_min":44,"x_max":625,"o":"m 394 -17 q 257 8 321 -17 q 146 78 193 32 q 72 193 99 125 q 44 347 44 261 q 75 501 44 433 q 157 616 106 569 q 276 687 208 663 q 417 711 343 711 q 529 692 479 711 q 619 639 579 672 l 508 486 q 467 513 485 506 q 431 519 450 519 q 326 473 364 519 q 289 347 289 426 q 327 222 289 268 q 422 175 365 175 q 480 188 451 175 q 533 219 508 200 l 625 64 q 510 1 572 18 q 394 -17 449 -17 m 249 -339 l 232 -247 q 341 -231 311 -243 q 371 -189 371 -218 q 350 -156 371 -171 q 265 -133 329 -142 l 335 6 l 471 6 l 432 -83 q 513 -120 486 -96 q 540 -189 540 -144 q 464 -299 540 -264 q 249 -339 388 -335 z "},"ć":{"ha":656,"x_min":44,"x_max":701,"o":"m 394 -17 q 257 8 321 -17 q 146 78 193 32 q 72 193 99 125 q 44 347 44 261 q 75 501 44 433 q 157 616 106 569 q 276 687 208 663 q 417 711 343 711 q 529 692 479 711 q 619 639 579 672 l 508 486 q 467 513 485 506 q 431 519 450 519 q 326 473 364 519 q 289 347 289 426 q 327 222 289 268 q 422 175 365 175 q 480 188 451 175 q 533 219 508 200 l 625 64 q 510 1 572 18 q 394 -17 449 -17 m 438 794 l 321 911 l 540 1172 l 701 1014 l 438 794 z "},"ĉ":{"ha":656,"x_min":44,"x_max":679,"o":"m 394 -17 q 257 8 321 -17 q 146 78 193 32 q 72 193 99 125 q 44 347 44 261 q 75 501 44 433 q 157 616 106 569 q 276 687 208 663 q 417 711 343 711 q 529 692 479 711 q 619 639 579 672 l 508 486 q 467 513 485 506 q 431 519 450 519 q 326 473 364 519 q 289 347 289 426 q 327 222 289 268 q 422 175 365 175 q 480 188 451 175 q 533 219 508 200 l 625 64 q 510 1 572 18 q 394 -17 449 -17 m 140 858 l 288 1036 l 532 1036 l 679 858 l 590 775 l 413 892 l 407 892 l 229 775 l 140 858 z "},"č":{"ha":656,"x_min":44,"x_max":679,"o":"m 394 -17 q 257 8 321 -17 q 146 78 193 32 q 72 193 99 125 q 44 347 44 261 q 75 501 44 433 q 157 616 106 569 q 276 687 208 663 q 417 711 343 711 q 529 692 479 711 q 619 639 579 672 l 508 486 q 467 513 485 506 q 431 519 450 519 q 326 473 364 519 q 289 347 289 426 q 327 222 289 268 q 422 175 365 175 q 480 188 451 175 q 533 219 508 200 l 625 64 q 510 1 572 18 q 394 -17 449 -17 m 288 803 l 140 981 l 229 1064 l 407 947 l 413 947 l 590 1064 l 679 981 l 532 803 l 288 803 z "},"ċ":{"ha":656,"x_min":44,"x_max":625,"o":"m 394 -17 q 257 8 321 -17 q 146 78 193 32 q 72 193 99 125 q 44 347 44 261 q 75 501 44 433 q 157 616 106 569 q 276 687 208 663 q 417 711 343 711 q 529 692 479 711 q 619 639 579 672 l 508 486 q 467 513 485 506 q 431 519 450 519 q 326 473 364 519 q 289 347 289 426 q 327 222 289 268 q 422 175 365 175 q 480 188 451 175 q 533 219 508 200 l 625 64 q 510 1 572 18 q 394 -17 449 -17 m 410 781 q 317 814 353 781 q 282 900 282 847 q 317 986 282 953 q 410 1019 353 1019 q 502 986 467 1019 q 538 900 538 953 q 502 814 538 847 q 410 781 467 781 z "},"ď":{"ha":875,"x_min":50,"x_max":919,"o":"m 333 -17 q 216 8 268 -17 q 127 81 164 33 q 70 195 90 128 q 50 347 50 263 q 74 500 50 432 q 138 615 99 568 q 229 686 178 661 q 333 711 281 711 q 426 692 390 711 q 494 642 463 674 l 486 742 l 486 967 l 725 967 l 725 0 l 531 0 l 514 64 l 508 64 q 426 6 472 28 q 333 -17 379 -17 m 397 178 q 446 188 425 178 q 486 228 467 199 l 486 483 q 440 510 465 503 q 392 517 415 517 q 324 479 354 517 q 294 350 294 442 q 322 217 294 256 q 397 178 349 178 m 778 761 l 769 1075 l 919 1075 l 917 972 l 878 761 l 778 761 z "},"ḍ":{"ha":806,"x_min":50,"x_max":725,"o":"m 333 -17 q 216 8 268 -17 q 127 81 164 33 q 70 195 90 128 q 50 347 50 263 q 74 500 50 432 q 138 615 99 568 q 229 686 178 661 q 333 711 281 711 q 426 692 390 711 q 494 642 463 674 l 486 742 l 486 967 l 725 967 l 725 0 l 531 0 l 514 64 l 508 64 q 426 6 472 28 q 333 -17 379 -17 m 397 178 q 446 188 425 178 q 486 228 467 199 l 486 483 q 440 510 465 503 q 392 517 415 517 q 324 479 354 517 q 294 350 294 442 q 322 217 294 256 q 397 178 349 178 m 439 -324 q 347 -290 382 -324 q 311 -204 311 -257 q 347 -118 311 -151 q 439 -85 382 -85 q 531 -118 496 -85 q 567 -204 567 -151 q 531 -290 567 -257 q 439 -324 496 -324 z "},"ḏ":{"ha":806,"x_min":50,"x_max":725,"o":"m 333 -17 q 216 8 268 -17 q 127 81 164 33 q 70 195 90 128 q 50 347 50 263 q 74 500 50 432 q 138 615 99 568 q 229 686 178 661 q 333 711 281 711 q 426 692 390 711 q 494 642 463 674 l 486 742 l 486 967 l 725 967 l 725 0 l 531 0 l 514 64 l 508 64 q 426 6 472 28 q 333 -17 379 -17 m 397 178 q 446 188 425 178 q 486 228 467 199 l 486 483 q 440 510 465 503 q 392 517 415 517 q 324 479 354 517 q 294 350 294 442 q 322 217 294 256 q 397 178 349 178 m 225 -271 l 225 -121 l 653 -121 l 653 -271 l 225 -271 z "},"đ":{"ha":806,"x_min":50,"x_max":817,"o":"m 333 -17 q 216 7 268 -17 q 127 74 164 31 q 70 179 90 118 q 50 314 50 240 q 74 447 50 386 q 138 549 99 507 q 229 615 178 592 q 333 639 281 639 q 426 620 390 639 q 494 569 463 601 l 486 669 l 486 764 l 286 764 l 286 875 l 486 875 l 486 967 l 725 967 l 725 875 l 817 875 l 817 772 l 725 765 l 725 0 l 525 0 l 511 56 l 506 56 q 426 3 471 22 q 333 -17 382 -17 m 397 178 q 446 188 425 178 q 486 228 467 199 l 486 411 q 440 438 465 431 q 392 444 415 444 q 324 414 354 444 q 294 317 294 383 q 322 212 294 246 q 397 178 349 178 z "},"è":{"ha":731,"x_min":44,"x_max":681,"o":"m 403 -17 q 261 8 326 -17 q 148 78 196 32 q 72 193 100 125 q 44 347 44 261 q 73 499 44 432 q 148 614 101 567 q 254 686 194 661 q 378 711 314 711 q 511 685 454 711 q 606 613 568 658 q 662 506 643 567 q 681 375 681 444 q 677 315 681 343 q 671 275 674 288 l 275 275 q 335 188 292 213 q 436 164 378 164 q 506 174 472 164 q 578 206 540 185 l 656 64 q 530 3 599 24 q 403 -17 461 -17 m 272 431 l 478 431 q 458 501 478 471 q 383 531 438 531 q 313 507 343 531 q 272 431 283 483 m 350 794 l 86 1014 l 247 1172 l 467 911 l 350 794 z "},"é":{"ha":731,"x_min":44,"x_max":681,"o":"m 403 -17 q 261 8 326 -17 q 148 78 196 32 q 72 193 100 125 q 44 347 44 261 q 73 499 44 432 q 148 614 101 567 q 254 686 194 661 q 378 711 314 711 q 511 685 454 711 q 606 613 568 658 q 662 506 643 567 q 681 375 681 444 q 677 315 681 343 q 671 275 674 288 l 275 275 q 335 188 292 213 q 436 164 378 164 q 506 174 472 164 q 578 206 540 185 l 656 64 q 530 3 599 24 q 403 -17 461 -17 m 272 431 l 478 431 q 458 501 478 471 q 383 531 438 531 q 313 507 343 531 q 272 431 283 483 m 406 794 l 289 911 l 508 1172 l 669 1014 l 406 794 z "},"ê":{"ha":731,"x_min":44,"x_max":681,"o":"m 403 -17 q 261 8 326 -17 q 148 78 196 32 q 72 193 100 125 q 44 347 44 261 q 73 499 44 432 q 148 614 101 567 q 254 686 194 661 q 378 711 314 711 q 511 685 454 711 q 606 613 568 658 q 662 506 643 567 q 681 375 681 444 q 677 315 681 343 q 671 275 674 288 l 275 275 q 335 188 292 213 q 436 164 378 164 q 506 174 472 164 q 578 206 540 185 l 656 64 q 530 3 599 24 q 403 -17 461 -17 m 272 431 l 478 431 q 458 501 478 471 q 383 531 438 531 q 313 507 343 531 q 272 431 283 483 m 108 858 l 256 1036 l 500 1036 l 647 858 l 558 775 l 381 892 l 375 892 l 197 775 l 108 858 z "},"ě":{"ha":731,"x_min":44,"x_max":681,"o":"m 403 -17 q 261 8 326 -17 q 148 78 196 32 q 72 193 100 125 q 44 347 44 261 q 73 499 44 432 q 148 614 101 567 q 254 686 194 661 q 378 711 314 711 q 511 685 454 711 q 606 613 568 658 q 662 506 643 567 q 681 375 681 444 q 677 315 681 343 q 671 275 674 288 l 275 275 q 335 188 292 213 q 436 164 378 164 q 506 174 472 164 q 578 206 540 185 l 656 64 q 530 3 599 24 q 403 -17 461 -17 m 272 431 l 478 431 q 458 501 478 471 q 383 531 438 531 q 313 507 343 531 q 272 431 283 483 m 256 803 l 108 981 l 197 1064 l 375 947 l 381 947 l 558 1064 l 647 981 l 500 803 l 256 803 z "},"ë":{"ha":731,"x_min":44,"x_max":681,"o":"m 403 -17 q 261 8 326 -17 q 148 78 196 32 q 72 193 100 125 q 44 347 44 261 q 73 499 44 432 q 148 614 101 567 q 254 686 194 661 q 378 711 314 711 q 511 685 454 711 q 606 613 568 658 q 662 506 643 567 q 681 375 681 444 q 677 315 681 343 q 671 275 674 288 l 275 275 q 335 188 292 213 q 436 164 378 164 q 506 174 472 164 q 578 206 540 185 l 656 64 q 530 3 599 24 q 403 -17 461 -17 m 272 431 l 478 431 q 458 501 478 471 q 383 531 438 531 q 313 507 343 531 q 272 431 283 483 m 219 781 q 140 813 171 781 q 108 892 108 844 q 140 971 108 939 q 219 1003 171 1003 q 299 971 268 1003 q 331 892 331 939 q 299 813 331 844 q 219 781 268 781 m 536 781 q 456 813 488 781 q 425 892 425 844 q 456 971 425 939 q 536 1003 488 1003 q 616 971 585 1003 q 647 892 647 939 q 616 813 647 844 q 536 781 585 781 z "},"ē":{"ha":731,"x_min":44,"x_max":681,"o":"m 403 -17 q 261 8 326 -17 q 148 78 196 32 q 72 193 100 125 q 44 347 44 261 q 73 499 44 432 q 148 614 101 567 q 254 686 194 661 q 378 711 314 711 q 511 685 454 711 q 606 613 568 658 q 662 506 643 567 q 681 375 681 444 q 677 315 681 343 q 671 275 674 288 l 275 275 q 335 188 292 213 q 436 164 378 164 q 506 174 472 164 q 578 206 540 185 l 656 64 q 530 3 599 24 q 403 -17 461 -17 m 272 431 l 478 431 q 458 501 478 471 q 383 531 438 531 q 313 507 343 531 q 272 431 283 483 m 164 817 l 164 967 l 592 967 l 592 817 l 164 817 z "},"ĕ":{"ha":731,"x_min":44,"x_max":681,"o":"m 403 -17 q 261 8 326 -17 q 148 78 196 32 q 72 193 100 125 q 44 347 44 261 q 73 499 44 432 q 148 614 101 567 q 254 686 194 661 q 378 711 314 711 q 511 685 454 711 q 606 613 568 658 q 662 506 643 567 q 681 375 681 444 q 677 315 681 343 q 671 275 674 288 l 275 275 q 335 188 292 213 q 436 164 378 164 q 506 174 472 164 q 578 206 540 185 l 656 64 q 530 3 599 24 q 403 -17 461 -17 m 272 431 l 478 431 q 458 501 478 471 q 383 531 438 531 q 313 507 343 531 q 272 431 283 483 m 378 794 q 197 856 256 794 q 136 1017 139 918 l 269 1039 q 302 969 276 997 q 378 942 328 942 q 453 969 428 942 q 486 1039 479 997 l 619 1017 q 558 856 617 918 q 378 794 500 794 z "},"ė":{"ha":731,"x_min":44,"x_max":681,"o":"m 403 -17 q 261 8 326 -17 q 148 78 196 32 q 72 193 100 125 q 44 347 44 261 q 73 499 44 432 q 148 614 101 567 q 254 686 194 661 q 378 711 314 711 q 511 685 454 711 q 606 613 568 658 q 662 506 643 567 q 681 375 681 444 q 677 315 681 343 q 671 275 674 288 l 275 275 q 335 188 292 213 q 436 164 378 164 q 506 174 472 164 q 578 206 540 185 l 656 64 q 530 3 599 24 q 403 -17 461 -17 m 272 431 l 478 431 q 458 501 478 471 q 383 531 438 531 q 313 507 343 531 q 272 431 283 483 m 378 781 q 285 814 321 781 q 250 900 250 847 q 285 986 250 953 q 378 1019 321 1019 q 470 986 435 1019 q 506 900 506 953 q 470 814 506 847 q 378 781 435 781 z "},"ẹ":{"ha":731,"x_min":44,"x_max":681,"o":"m 403 -17 q 261 8 326 -17 q 148 78 196 32 q 72 193 100 125 q 44 347 44 261 q 73 499 44 432 q 148 614 101 567 q 254 686 194 661 q 378 711 314 711 q 511 685 454 711 q 606 613 568 658 q 662 506 643 567 q 681 375 681 444 q 677 315 681 343 q 671 275 674 288 l 275 275 q 335 188 292 213 q 436 164 378 164 q 506 174 472 164 q 578 206 540 185 l 656 64 q 530 3 599 24 q 403 -17 461 -17 m 272 431 l 478 431 q 458 501 478 471 q 383 531 438 531 q 313 507 343 531 q 272 431 283 483 m 378 -324 q 285 -290 321 -324 q 250 -204 250 -257 q 285 -118 250 -151 q 378 -85 321 -85 q 470 -118 435 -85 q 506 -204 506 -151 q 470 -290 506 -257 q 378 -324 435 -324 z "},"ẻ":{"ha":731,"x_min":44,"x_max":681,"o":"m 403 -17 q 261 8 326 -17 q 148 78 196 32 q 72 193 100 125 q 44 347 44 261 q 73 499 44 432 q 148 614 101 567 q 254 686 194 661 q 378 711 314 711 q 511 685 454 711 q 606 613 568 658 q 662 506 643 567 q 681 375 681 444 q 677 315 681 343 q 671 275 674 288 l 275 275 q 335 188 292 213 q 436 164 378 164 q 506 174 472 164 q 578 206 540 185 l 656 64 q 530 3 599 24 q 403 -17 461 -17 m 272 431 l 478 431 q 458 501 478 471 q 383 531 438 531 q 313 507 343 531 q 272 431 283 483 m 311 786 l 294 878 q 334 890 318 881 q 350 919 350 899 q 326 957 350 943 q 242 975 303 971 l 256 1119 q 383 1103 332 1117 q 465 1065 433 1089 q 509 1008 496 1040 q 522 936 522 975 q 506 872 522 899 q 460 826 489 844 q 392 797 431 807 q 311 786 354 788 z "},"ẽ":{"ha":731,"x_min":44,"x_max":681,"o":"m 403 -17 q 261 8 326 -17 q 148 78 196 32 q 72 193 100 125 q 44 347 44 261 q 73 499 44 432 q 148 614 101 567 q 254 686 194 661 q 378 711 314 711 q 511 685 454 711 q 606 613 568 658 q 662 506 643 567 q 681 375 681 444 q 677 315 681 343 q 671 275 674 288 l 275 275 q 335 188 292 213 q 436 164 378 164 q 506 174 472 164 q 578 206 540 185 l 656 64 q 530 3 599 24 q 403 -17 461 -17 m 272 431 l 478 431 q 458 501 478 471 q 383 531 438 531 q 313 507 343 531 q 272 431 283 483 m 467 794 q 409 806 435 794 q 363 833 383 818 q 325 860 342 847 q 294 872 308 872 q 267 859 278 872 q 253 808 257 846 l 106 817 q 157 985 108 935 q 289 1036 206 1036 q 346 1024 319 1036 q 393 997 372 1011 q 431 970 414 982 q 461 958 447 958 q 488 972 478 958 q 503 1022 499 985 l 650 1014 q 599 845 647 896 q 467 794 550 794 z "},"ế":{"ha":731,"x_min":44,"x_max":786,"o":"m 403 -17 q 261 8 326 -17 q 148 78 196 32 q 72 193 100 125 q 44 347 44 261 q 73 499 44 432 q 148 614 101 567 q 254 686 194 661 q 378 711 314 711 q 511 685 454 711 q 606 613 568 658 q 662 506 643 567 q 681 375 681 444 q 677 315 681 343 q 671 275 674 288 l 275 275 q 335 188 292 213 q 436 164 378 164 q 506 174 472 164 q 578 206 540 185 l 656 64 q 530 3 599 24 q 403 -17 461 -17 m 272 431 l 478 431 q 458 501 478 471 q 383 531 438 531 q 313 507 343 531 q 272 431 283 483 m 233 783 l 158 867 l 283 994 l 472 994 l 597 867 l 522 783 l 381 869 l 375 869 l 233 783 m 556 956 l 661 1136 l 786 1056 l 644 886 l 556 956 z "},"ề":{"ha":731,"x_min":-31,"x_max":681,"o":"m 403 -17 q 261 8 326 -17 q 148 78 196 32 q 72 193 100 125 q 44 347 44 261 q 73 499 44 432 q 148 614 101 567 q 254 686 194 661 q 378 711 314 711 q 511 685 454 711 q 606 613 568 658 q 662 506 643 567 q 681 375 681 444 q 677 315 681 343 q 671 275 674 288 l 275 275 q 335 188 292 213 q 436 164 378 164 q 506 174 472 164 q 578 206 540 185 l 656 64 q 530 3 599 24 q 403 -17 461 -17 m 272 431 l 478 431 q 458 501 478 471 q 383 531 438 531 q 313 507 343 531 q 272 431 283 483 m 233 783 l 158 867 l 283 994 l 472 994 l 597 867 l 522 783 l 381 869 l 375 869 l 233 783 m 200 956 l 111 886 l -31 1056 l 94 1136 l 200 956 z "},"ể":{"ha":731,"x_min":44,"x_max":756,"o":"m 403 -17 q 261 8 326 -17 q 148 78 196 32 q 72 193 100 125 q 44 347 44 261 q 73 499 44 432 q 148 614 101 567 q 254 686 194 661 q 378 711 314 711 q 511 685 454 711 q 606 613 568 658 q 662 506 643 567 q 681 375 681 444 q 677 315 681 343 q 671 275 674 288 l 275 275 q 335 188 292 213 q 436 164 378 164 q 506 174 472 164 q 578 206 540 185 l 656 64 q 530 3 599 24 q 403 -17 461 -17 m 272 431 l 478 431 q 458 501 478 471 q 383 531 438 531 q 313 507 343 531 q 272 431 283 483 m 233 783 l 158 867 l 283 994 l 472 994 l 597 867 l 522 783 l 381 869 l 375 869 l 233 783 m 581 900 l 567 978 q 593 988 583 981 q 603 1011 603 994 q 585 1038 603 1028 q 514 1053 567 1049 l 536 1150 q 642 1138 600 1147 q 710 1115 685 1129 q 745 1080 735 1100 q 756 1036 756 1060 q 742 976 756 1000 q 704 936 728 951 q 649 913 681 921 q 581 900 617 904 z "},"ễ":{"ha":731,"x_min":44,"x_max":681,"o":"m 403 -17 q 261 8 326 -17 q 148 78 196 32 q 72 193 100 125 q 44 347 44 261 q 73 499 44 432 q 148 614 101 567 q 254 686 194 661 q 378 711 314 711 q 511 685 454 711 q 606 613 568 658 q 662 506 643 567 q 681 375 681 444 q 677 315 681 343 q 671 275 674 288 l 275 275 q 335 188 292 213 q 436 164 378 164 q 506 174 472 164 q 578 206 540 185 l 656 64 q 530 3 599 24 q 403 -17 461 -17 m 272 431 l 478 431 q 458 501 478 471 q 383 531 438 531 q 313 507 343 531 q 272 431 283 483 m 233 783 l 158 867 l 283 981 l 472 981 l 597 867 l 522 783 l 381 856 l 375 856 l 233 783 m 167 1017 q 211 1145 176 1107 q 300 1183 246 1183 q 349 1174 328 1183 q 385 1154 369 1165 q 415 1134 401 1143 q 442 1125 428 1125 q 467 1136 457 1125 q 483 1175 476 1147 l 589 1164 q 544 1035 579 1074 q 456 997 510 997 q 407 1006 428 997 q 370 1026 386 1015 q 341 1047 354 1038 q 314 1056 328 1056 q 289 1044 299 1056 q 272 1006 279 1033 l 167 1017 z "},"ệ":{"ha":731,"x_min":44,"x_max":681,"o":"m 403 -17 q 261 8 326 -17 q 148 78 196 32 q 72 193 100 125 q 44 347 44 261 q 73 499 44 432 q 148 614 101 567 q 254 686 194 661 q 378 711 314 711 q 511 685 454 711 q 606 613 568 658 q 662 506 643 567 q 681 375 681 444 q 677 315 681 343 q 671 275 674 288 l 275 275 q 335 188 292 213 q 436 164 378 164 q 506 174 472 164 q 578 206 540 185 l 656 64 q 530 3 599 24 q 403 -17 461 -17 m 272 431 l 478 431 q 458 501 478 471 q 383 531 438 531 q 313 507 343 531 q 272 431 283 483 m 108 858 l 256 1036 l 500 1036 l 647 858 l 558 775 l 381 892 l 375 892 l 197 775 l 108 858 m 378 -324 q 285 -290 321 -324 q 250 -204 250 -257 q 285 -118 250 -151 q 378 -85 321 -85 q 470 -118 435 -85 q 506 -204 506 -151 q 470 -290 506 -257 q 378 -324 435 -324 z "},"ę":{"ha":731,"x_min":44,"x_max":681,"o":"m 506 -294 q 397 -262 440 -294 q 353 -164 353 -229 q 378 -76 353 -114 q 428 -14 403 -37 q 412 -17 417 -17 q 403 -17 407 -17 q 261 8 326 -17 q 148 78 196 32 q 72 193 100 125 q 44 347 44 261 q 73 499 44 432 q 148 614 101 567 q 254 686 194 661 q 378 711 314 711 q 511 685 454 711 q 606 613 568 658 q 662 506 643 567 q 681 375 681 444 q 677 315 681 343 q 671 275 674 288 l 275 275 q 335 188 292 213 q 436 164 378 164 q 506 174 472 164 q 578 206 540 185 l 656 64 q 581 9 610 32 q 536 -33 553 -14 q 514 -71 519 -53 q 508 -108 508 -89 q 525 -144 508 -132 q 565 -156 542 -156 q 590 -151 578 -156 q 611 -139 601 -146 l 658 -244 q 585 -281 629 -268 q 506 -294 542 -294 m 272 431 l 478 431 q 458 501 478 471 q 383 531 438 531 q 313 507 343 531 q 272 431 283 483 z "},"ḗ":{"ha":731,"x_min":44,"x_max":681,"o":"m 403 -17 q 261 8 326 -17 q 148 78 196 32 q 72 193 100 125 q 44 347 44 261 q 73 499 44 432 q 148 614 101 567 q 254 686 194 661 q 378 711 314 711 q 511 685 454 711 q 606 613 568 658 q 662 506 643 567 q 681 375 681 444 q 677 315 681 343 q 671 275 674 288 l 275 275 q 335 188 292 213 q 436 164 378 164 q 506 174 472 164 q 578 206 540 185 l 656 64 q 530 3 599 24 q 403 -17 461 -17 m 272 431 l 478 431 q 458 501 478 471 q 383 531 438 531 q 313 507 343 531 q 272 431 283 483 m 342 994 l 264 1089 l 469 1239 l 564 1122 l 342 994 m 164 817 l 164 967 l 592 967 l 592 817 l 164 817 z "},"ǵ":{"ha":758,"x_min":42,"x_max":736,"o":"m 333 -286 q 221 -277 274 -286 q 128 -247 168 -268 q 65 -194 89 -226 q 42 -114 42 -161 q 139 19 42 -32 l 139 25 q 93 72 111 44 q 75 144 75 100 q 96 215 75 181 q 153 275 117 250 l 153 281 q 87 351 115 306 q 58 458 58 397 q 83 570 58 522 q 150 649 108 618 q 245 696 192 681 q 356 711 299 711 q 467 694 417 711 l 725 694 l 725 522 l 625 522 q 633 490 629 510 q 636 450 636 471 q 614 345 636 389 q 554 274 592 301 q 465 233 517 246 q 356 219 414 219 q 278 229 321 219 q 264 212 267 219 q 261 189 261 204 q 283 156 261 165 q 358 147 306 147 l 463 147 q 665 105 593 147 q 736 -33 736 63 q 708 -137 736 -90 q 627 -217 679 -183 q 501 -268 575 -250 q 333 -286 426 -286 m 356 361 q 410 385 389 361 q 431 458 431 408 q 410 530 431 507 q 356 553 389 553 q 301 530 322 553 q 281 458 281 507 q 301 385 281 408 q 356 361 322 361 m 372 -139 q 469 -122 431 -139 q 508 -75 508 -104 q 484 -40 508 -47 q 415 -33 460 -33 l 361 -33 q 298 -31 319 -33 q 261 -25 276 -29 q 242 -49 249 -37 q 236 -75 236 -60 q 274 -124 236 -108 q 372 -139 311 -139 m 422 794 l 306 911 l 525 1172 l 686 1014 l 422 794 z "},"ĝ":{"ha":758,"x_min":42,"x_max":736,"o":"m 333 -286 q 221 -277 274 -286 q 128 -247 168 -268 q 65 -194 89 -226 q 42 -114 42 -161 q 139 19 42 -32 l 139 25 q 93 72 111 44 q 75 144 75 100 q 96 215 75 181 q 153 275 117 250 l 153 281 q 87 351 115 306 q 58 458 58 397 q 83 570 58 522 q 150 649 108 618 q 245 696 192 681 q 356 711 299 711 q 467 694 417 711 l 725 694 l 725 522 l 625 522 q 633 490 629 510 q 636 450 636 471 q 614 345 636 389 q 554 274 592 301 q 465 233 517 246 q 356 219 414 219 q 278 229 321 219 q 264 212 267 219 q 261 189 261 204 q 283 156 261 165 q 358 147 306 147 l 463 147 q 665 105 593 147 q 736 -33 736 63 q 708 -137 736 -90 q 627 -217 679 -183 q 501 -268 575 -250 q 333 -286 426 -286 m 356 361 q 410 385 389 361 q 431 458 431 408 q 410 530 431 507 q 356 553 389 553 q 301 530 322 553 q 281 458 281 507 q 301 385 281 408 q 356 361 322 361 m 372 -139 q 469 -122 431 -139 q 508 -75 508 -104 q 484 -40 508 -47 q 415 -33 460 -33 l 361 -33 q 298 -31 319 -33 q 261 -25 276 -29 q 242 -49 249 -37 q 236 -75 236 -60 q 274 -124 236 -108 q 372 -139 311 -139 m 125 858 l 272 1036 l 517 1036 l 664 858 l 575 775 l 397 892 l 392 892 l 214 775 l 125 858 z "},"ğ":{"ha":758,"x_min":42,"x_max":736,"o":"m 333 -286 q 221 -277 274 -286 q 128 -247 168 -268 q 65 -194 89 -226 q 42 -114 42 -161 q 139 19 42 -32 l 139 25 q 93 72 111 44 q 75 144 75 100 q 96 215 75 181 q 153 275 117 250 l 153 281 q 87 351 115 306 q 58 458 58 397 q 83 570 58 522 q 150 649 108 618 q 245 696 192 681 q 356 711 299 711 q 467 694 417 711 l 725 694 l 725 522 l 625 522 q 633 490 629 510 q 636 450 636 471 q 614 345 636 389 q 554 274 592 301 q 465 233 517 246 q 356 219 414 219 q 278 229 321 219 q 264 212 267 219 q 261 189 261 204 q 283 156 261 165 q 358 147 306 147 l 463 147 q 665 105 593 147 q 736 -33 736 63 q 708 -137 736 -90 q 627 -217 679 -183 q 501 -268 575 -250 q 333 -286 426 -286 m 356 361 q 410 385 389 361 q 431 458 431 408 q 410 530 431 507 q 356 553 389 553 q 301 530 322 553 q 281 458 281 507 q 301 385 281 408 q 356 361 322 361 m 372 -139 q 469 -122 431 -139 q 508 -75 508 -104 q 484 -40 508 -47 q 415 -33 460 -33 l 361 -33 q 298 -31 319 -33 q 261 -25 276 -29 q 242 -49 249 -37 q 236 -75 236 -60 q 274 -124 236 -108 q 372 -139 311 -139 m 394 794 q 214 856 272 794 q 153 1017 156 918 l 286 1039 q 319 969 293 997 q 394 942 344 942 q 470 969 444 942 q 503 1039 496 997 l 636 1017 q 575 856 633 918 q 394 794 517 794 z "},"ġ":{"ha":758,"x_min":42,"x_max":736,"o":"m 333 -286 q 221 -277 274 -286 q 128 -247 168 -268 q 65 -194 89 -226 q 42 -114 42 -161 q 139 19 42 -32 l 139 25 q 93 72 111 44 q 75 144 75 100 q 96 215 75 181 q 153 275 117 250 l 153 281 q 87 351 115 306 q 58 458 58 397 q 83 570 58 522 q 150 649 108 618 q 245 696 192 681 q 356 711 299 711 q 467 694 417 711 l 725 694 l 725 522 l 625 522 q 633 490 629 510 q 636 450 636 471 q 614 345 636 389 q 554 274 592 301 q 465 233 517 246 q 356 219 414 219 q 278 229 321 219 q 264 212 267 219 q 261 189 261 204 q 283 156 261 165 q 358 147 306 147 l 463 147 q 665 105 593 147 q 736 -33 736 63 q 708 -137 736 -90 q 627 -217 679 -183 q 501 -268 575 -250 q 333 -286 426 -286 m 356 361 q 410 385 389 361 q 431 458 431 408 q 410 530 431 507 q 356 553 389 553 q 301 530 322 553 q 281 458 281 507 q 301 385 281 408 q 356 361 322 361 m 372 -139 q 469 -122 431 -139 q 508 -75 508 -104 q 484 -40 508 -47 q 415 -33 460 -33 l 361 -33 q 298 -31 319 -33 q 261 -25 276 -29 q 242 -49 249 -37 q 236 -75 236 -60 q 274 -124 236 -108 q 372 -139 311 -139 m 394 781 q 302 814 338 781 q 267 900 267 847 q 302 986 267 953 q 394 1019 338 1019 q 487 986 451 1019 q 522 900 522 953 q 487 814 522 847 q 394 781 451 781 z "},"ģ":{"ha":758,"x_min":42,"x_max":736,"o":"m 333 -286 q 221 -277 274 -286 q 128 -247 168 -268 q 65 -194 89 -226 q 42 -114 42 -161 q 139 19 42 -32 l 139 25 q 93 72 111 44 q 75 144 75 100 q 96 215 75 181 q 153 275 117 250 l 153 281 q 87 351 115 306 q 58 458 58 397 q 83 570 58 522 q 150 649 108 618 q 245 696 192 681 q 356 711 299 711 q 467 694 417 711 l 725 694 l 725 522 l 625 522 q 633 490 629 510 q 636 450 636 471 q 614 345 636 389 q 554 274 592 301 q 465 233 517 246 q 356 219 414 219 q 278 229 321 219 q 264 212 267 219 q 261 189 261 204 q 283 156 261 165 q 358 147 306 147 l 463 147 q 665 105 593 147 q 736 -33 736 63 q 708 -137 736 -90 q 627 -217 679 -183 q 501 -268 575 -250 q 333 -286 426 -286 m 356 361 q 410 385 389 361 q 431 458 431 408 q 410 530 431 507 q 356 553 389 553 q 301 530 322 553 q 281 458 281 507 q 301 385 281 408 q 356 361 322 361 m 372 -139 q 469 -122 431 -139 q 508 -75 508 -104 q 484 -40 508 -47 q 415 -33 460 -33 l 361 -33 q 298 -31 319 -33 q 261 -25 276 -29 q 242 -49 249 -37 q 236 -75 236 -60 q 274 -124 236 -108 q 372 -139 311 -139 m 461 786 q 362 800 401 790 q 298 824 322 810 q 263 859 274 839 q 253 906 253 879 q 329 1016 253 981 q 544 1056 406 1051 l 561 964 q 452 949 482 960 q 422 914 422 938 q 441 885 422 897 q 506 869 460 874 l 461 786 z "},"ǧ":{"ha":758,"x_min":42,"x_max":736,"o":"m 333 -286 q 221 -277 274 -286 q 128 -247 168 -268 q 65 -194 89 -226 q 42 -114 42 -161 q 139 19 42 -32 l 139 25 q 93 72 111 44 q 75 144 75 100 q 96 215 75 181 q 153 275 117 250 l 153 281 q 87 351 115 306 q 58 458 58 397 q 83 570 58 522 q 150 649 108 618 q 245 696 192 681 q 356 711 299 711 q 467 694 417 711 l 725 694 l 725 522 l 625 522 q 633 490 629 510 q 636 450 636 471 q 614 345 636 389 q 554 274 592 301 q 465 233 517 246 q 356 219 414 219 q 278 229 321 219 q 264 212 267 219 q 261 189 261 204 q 283 156 261 165 q 358 147 306 147 l 463 147 q 665 105 593 147 q 736 -33 736 63 q 708 -137 736 -90 q 627 -217 679 -183 q 501 -268 575 -250 q 333 -286 426 -286 m 356 361 q 410 385 389 361 q 431 458 431 408 q 410 530 431 507 q 356 553 389 553 q 301 530 322 553 q 281 458 281 507 q 301 385 281 408 q 356 361 322 361 m 372 -139 q 469 -122 431 -139 q 508 -75 508 -104 q 484 -40 508 -47 q 415 -33 460 -33 l 361 -33 q 298 -31 319 -33 q 261 -25 276 -29 q 242 -49 249 -37 q 236 -75 236 -60 q 274 -124 236 -108 q 372 -139 311 -139 m 272 803 l 125 981 l 214 1064 l 392 947 l 397 947 l 575 1064 l 664 981 l 517 803 l 272 803 z "},"ḡ":{"ha":758,"x_min":42,"x_max":736,"o":"m 333 -286 q 221 -277 274 -286 q 128 -247 168 -268 q 65 -194 89 -226 q 42 -114 42 -161 q 139 19 42 -32 l 139 25 q 93 72 111 44 q 75 144 75 100 q 96 215 75 181 q 153 275 117 250 l 153 281 q 87 351 115 306 q 58 458 58 397 q 83 570 58 522 q 150 649 108 618 q 245 696 192 681 q 356 711 299 711 q 467 694 417 711 l 725 694 l 725 522 l 625 522 q 633 490 629 510 q 636 450 636 471 q 614 345 636 389 q 554 274 592 301 q 465 233 517 246 q 356 219 414 219 q 278 229 321 219 q 264 212 267 219 q 261 189 261 204 q 283 156 261 165 q 358 147 306 147 l 463 147 q 665 105 593 147 q 736 -33 736 63 q 708 -137 736 -90 q 627 -217 679 -183 q 501 -268 575 -250 q 333 -286 426 -286 m 356 361 q 410 385 389 361 q 431 458 431 408 q 410 530 431 507 q 356 553 389 553 q 301 530 322 553 q 281 458 281 507 q 301 385 281 408 q 356 361 322 361 m 372 -139 q 469 -122 431 -139 q 508 -75 508 -104 q 484 -40 508 -47 q 415 -33 460 -33 l 361 -33 q 298 -31 319 -33 q 261 -25 276 -29 q 242 -49 249 -37 q 236 -75 236 -60 q 274 -124 236 -108 q 372 -139 311 -139 m 181 817 l 181 967 l 608 967 l 608 817 l 181 817 z "},"ĥ":{"ha":808,"x_min":-50,"x_max":733,"o":"m 81 0 l 81 967 l 319 967 l 319 742 l 308 622 q 395 683 344 654 q 517 711 446 711 q 682 634 631 711 q 733 428 733 557 l 733 0 l 494 0 l 494 397 q 478 486 494 464 q 425 508 461 508 q 369 494 392 508 q 319 456 347 481 l 319 0 l 81 0 m -50 1075 l 67 1228 l 328 1228 l 444 1075 l 342 1014 l 200 1125 l 194 1125 l 53 1014 l -50 1075 z "},"ḥ":{"ha":808,"x_min":81,"x_max":733,"o":"m 81 0 l 81 967 l 319 967 l 319 742 l 308 622 q 395 683 344 654 q 517 711 446 711 q 682 634 631 711 q 733 428 733 557 l 733 0 l 494 0 l 494 397 q 478 486 494 464 q 425 508 461 508 q 369 494 392 508 q 319 456 347 481 l 319 0 l 81 0 m 411 -324 q 319 -290 354 -324 q 283 -204 283 -257 q 319 -118 283 -151 q 411 -85 354 -85 q 503 -118 468 -85 q 539 -204 539 -151 q 503 -290 539 -257 q 411 -324 468 -324 z "},"ẖ":{"ha":808,"x_min":81,"x_max":733,"o":"m 81 0 l 81 967 l 319 967 l 319 742 l 308 622 q 395 683 344 654 q 517 711 446 711 q 682 634 631 711 q 733 428 733 557 l 733 0 l 494 0 l 494 397 q 478 486 494 464 q 425 508 461 508 q 369 494 392 508 q 319 456 347 481 l 319 0 l 81 0 m 197 -271 l 197 -121 l 625 -121 l 625 -271 l 197 -271 z "},"ḫ":{"ha":808,"x_min":81,"x_max":733,"o":"m 81 0 l 81 967 l 319 967 l 319 742 l 308 622 q 395 683 344 654 q 517 711 446 711 q 682 634 631 711 q 733 428 733 557 l 733 0 l 494 0 l 494 397 q 478 486 494 464 q 425 508 461 508 q 369 494 392 508 q 319 456 347 481 l 319 0 l 81 0 m 411 -324 q 231 -262 289 -324 q 169 -101 172 -200 l 303 -79 q 335 -149 310 -121 q 411 -176 361 -176 q 487 -149 461 -176 q 519 -79 513 -121 l 653 -101 q 592 -262 650 -200 q 411 -324 533 -324 z "},"ħ":{"ha":808,"x_min":-11,"x_max":733,"o":"m 81 0 l 81 764 l -11 764 l -11 867 l 81 874 l 81 967 l 319 967 l 319 875 l 547 875 l 547 764 l 319 764 l 319 669 l 308 550 q 395 610 344 582 q 517 639 446 639 q 682 562 631 639 q 733 356 733 485 l 733 0 l 494 0 l 494 325 q 478 414 494 392 q 425 436 461 436 q 369 422 392 436 q 319 383 347 408 l 319 0 l 81 0 z "},"ì":{"ha":400,"x_min":-92,"x_max":319,"o":"m 81 0 l 81 694 l 319 694 l 319 0 l 81 0 m 172 794 l -92 1014 l 69 1172 l 289 911 l 172 794 z "},"í":{"ha":400,"x_min":81,"x_max":492,"o":"m 81 0 l 81 694 l 319 694 l 319 0 l 81 0 m 228 794 l 111 911 l 331 1172 l 492 1014 l 228 794 z "},"î":{"ha":400,"x_min":-69,"x_max":469,"o":"m 81 0 l 81 694 l 319 694 l 319 0 l 81 0 m -69 858 l 78 1036 l 322 1036 l 469 858 l 381 775 l 203 892 l 197 892 l 19 775 l -69 858 z "},"ĩ":{"ha":400,"x_min":-72,"x_max":472,"o":"m 81 0 l 81 694 l 319 694 l 319 0 l 81 0 m 289 794 q 231 806 257 794 q 185 833 206 818 q 147 860 164 847 q 117 872 131 872 q 90 859 100 872 q 75 808 79 846 l -72 817 q -21 985 -69 935 q 111 1036 28 1036 q 168 1024 142 1036 q 215 997 194 1011 q 253 970 236 982 q 283 958 269 958 q 310 972 300 958 q 325 1022 321 985 l 472 1014 q 421 845 469 896 q 289 794 372 794 z "},"ï":{"ha":400,"x_min":-69,"x_max":469,"o":"m 81 0 l 81 694 l 319 694 l 319 0 l 81 0 m 42 781 q -38 813 -7 781 q -69 892 -69 844 q -38 971 -69 939 q 42 1003 -7 1003 q 122 971 90 1003 q 153 892 153 939 q 122 813 153 844 q 42 781 90 781 m 358 781 q 278 813 310 781 q 247 892 247 844 q 278 971 247 939 q 358 1003 310 1003 q 438 971 407 1003 q 469 892 469 939 q 438 813 469 844 q 358 781 407 781 z "},"ī":{"ha":400,"x_min":-14,"x_max":414,"o":"m 81 0 l 81 694 l 319 694 l 319 0 l 81 0 m -14 817 l -14 967 l 414 967 l 414 817 l -14 817 z "},"ǐ":{"ha":400,"x_min":-69,"x_max":469,"o":"m 81 0 l 81 694 l 319 694 l 319 0 l 81 0 m 78 803 l -69 981 l 19 1064 l 197 947 l 203 947 l 381 1064 l 469 981 l 322 803 l 78 803 z "},"ỉ":{"ha":400,"x_min":64,"x_max":344,"o":"m 81 0 l 81 694 l 319 694 l 319 0 l 81 0 m 133 786 l 117 878 q 156 890 140 881 q 172 919 172 899 q 149 957 172 943 q 64 975 125 971 l 78 1119 q 205 1103 154 1117 q 287 1065 256 1089 q 331 1008 318 1040 q 344 936 344 975 q 328 872 344 899 q 282 826 311 844 q 215 797 253 807 q 133 786 176 788 z "},"ị":{"ha":400,"x_min":67,"x_max":333,"o":"m 81 0 l 81 694 l 319 694 l 319 0 l 81 0 m 200 781 q 104 814 142 781 q 67 900 67 847 q 104 986 67 953 q 200 1019 142 1019 q 296 986 258 1019 q 333 900 333 953 q 296 814 333 847 q 200 781 258 781 m 200 -324 q 108 -290 143 -324 q 72 -204 72 -257 q 108 -118 72 -151 q 200 -85 143 -85 q 292 -118 257 -85 q 328 -204 328 -151 q 292 -290 328 -257 q 200 -324 257 -324 z "},"į":{"ha":400,"x_min":58,"x_max":367,"o":"m 214 -294 q 103 -262 149 -294 q 58 -164 58 -229 q 68 -107 58 -133 q 92 -60 78 -81 q 122 -24 106 -39 q 150 0 138 -8 l 81 0 l 81 694 l 319 694 l 319 0 q 238 -48 258 -17 q 217 -108 217 -79 q 233 -144 217 -132 q 274 -156 250 -156 q 297 -151 285 -156 q 319 -139 308 -146 l 367 -244 q 294 -281 338 -268 q 214 -294 250 -294 m 200 781 q 104 814 142 781 q 67 900 67 847 q 104 986 67 953 q 200 1019 142 1019 q 296 986 258 1019 q 333 900 333 953 q 296 814 333 847 q 200 781 258 781 z "},"ĭ":{"ha":400,"x_min":-42,"x_max":442,"o":"m 81 0 l 81 694 l 319 694 l 319 0 l 81 0 m 200 794 q 19 856 78 794 q -42 1017 -39 918 l 92 1039 q 124 969 99 997 q 200 942 150 942 q 276 969 250 942 q 308 1039 301 997 l 442 1017 q 381 856 439 918 q 200 794 322 794 z "},"ı":{"ha":400,"x_min":81,"x_max":319,"o":"m 81 0 l 81 694 l 319 694 l 319 0 l 81 0 z "},"ĵ":{"ha":403,"x_min":-78,"x_max":472,"o":"m 53 -261 q -25 -256 4 -261 q -78 -242 -54 -250 l -36 -67 q -10 -73 -21 -71 q 14 -75 1 -75 q 67 -52 51 -75 q 83 28 83 -29 l 83 694 l 322 694 l 322 36 q 310 -76 322 -22 q 266 -171 297 -129 q 183 -237 235 -212 q 53 -261 131 -261 m -67 858 l 81 1036 l 325 1036 l 472 858 l 383 775 l 206 892 l 200 892 l 22 775 l -67 858 z "},"ķ":{"ha":789,"x_min":81,"x_max":783,"o":"m 81 0 l 81 967 l 314 967 l 314 453 l 319 453 l 511 694 l 769 694 l 522 406 l 783 0 l 525 0 l 386 247 l 314 167 l 314 0 l 81 0 m 272 -339 l 256 -247 q 365 -232 335 -243 q 394 -197 394 -221 q 376 -169 394 -181 q 311 -153 357 -157 l 356 -69 q 455 -83 415 -74 q 519 -108 494 -93 q 553 -142 543 -122 q 564 -189 564 -162 q 488 -299 564 -264 q 272 -339 411 -335 z "},"ḳ":{"ha":789,"x_min":81,"x_max":783,"o":"m 81 0 l 81 967 l 314 967 l 314 453 l 319 453 l 511 694 l 769 694 l 522 406 l 783 0 l 525 0 l 386 247 l 314 167 l 314 0 l 81 0 m 422 -324 q 330 -290 365 -324 q 294 -204 294 -257 q 330 -118 294 -151 q 422 -85 365 -85 q 515 -118 479 -85 q 550 -204 550 -151 q 515 -290 550 -257 q 422 -324 479 -324 z "},"ḵ":{"ha":789,"x_min":81,"x_max":783,"o":"m 81 0 l 81 967 l 314 967 l 314 453 l 319 453 l 511 694 l 769 694 l 522 406 l 783 0 l 525 0 l 386 247 l 314 167 l 314 0 l 81 0 m 208 -271 l 208 -121 l 636 -121 l 636 -271 l 208 -271 z "},"ĸ":{"ha":789,"x_min":81,"x_max":783,"o":"m 81 0 l 81 694 l 319 694 l 319 447 l 325 447 l 511 694 l 769 694 l 528 406 l 783 0 l 525 0 l 386 239 l 319 158 l 319 0 l 81 0 z "},"ĺ":{"ha":414,"x_min":81,"x_max":468,"o":"m 294 -17 q 192 2 233 -17 q 126 56 151 21 q 91 138 101 90 q 81 244 81 186 l 81 967 l 319 967 l 319 236 q 333 188 319 200 q 358 175 346 175 q 370 175 365 175 q 383 178 375 175 l 411 3 q 363 -11 392 -6 q 294 -17 335 -17 m 196 1014 l 90 1133 l 343 1333 l 468 1181 l 196 1014 z "},"ľ":{"ha":469,"x_min":81,"x_max":514,"o":"m 294 -17 q 192 2 233 -17 q 126 56 151 21 q 91 138 101 90 q 81 244 81 186 l 81 967 l 319 967 l 319 236 q 333 188 319 200 q 358 175 346 175 q 370 175 365 175 q 383 178 375 175 l 411 3 q 363 -11 392 -6 q 294 -17 335 -17 m 372 761 l 364 1075 l 514 1075 l 511 972 l 472 761 l 372 761 z "},"ŀ":{"ha":678,"x_min":81,"x_max":678,"o":"m 294 -17 q 192 2 233 -17 q 126 56 151 21 q 91 138 101 90 q 81 244 81 186 l 81 967 l 319 967 l 319 236 q 333 188 319 200 q 358 175 346 175 q 370 175 365 175 q 383 178 375 175 l 411 3 q 363 -11 392 -6 q 294 -17 335 -17 m 539 314 q 439 356 478 314 q 400 458 400 397 q 439 561 400 519 q 539 603 478 603 q 639 561 600 603 q 678 458 678 519 q 639 356 678 397 q 539 314 600 314 z "},"ļ":{"ha":414,"x_min":81,"x_max":417,"o":"m 294 -17 q 192 2 233 -17 q 126 56 151 21 q 91 138 101 90 q 81 244 81 186 l 81 967 l 319 967 l 319 236 q 333 188 319 200 q 358 175 346 175 q 370 175 365 175 q 383 178 375 175 l 411 3 q 363 -11 392 -6 q 294 -17 335 -17 m 125 -339 l 108 -247 q 217 -232 188 -243 q 247 -197 247 -221 q 228 -169 247 -181 q 164 -153 210 -157 l 208 -69 q 308 -83 268 -74 q 372 -108 347 -93 q 406 -142 396 -122 q 417 -189 417 -162 q 340 -299 417 -264 q 125 -339 264 -335 z "},"ḷ":{"ha":414,"x_min":81,"x_max":411,"o":"m 294 -17 q 192 2 233 -17 q 126 56 151 21 q 91 138 101 90 q 81 244 81 186 l 81 967 l 319 967 l 319 236 q 333 188 319 200 q 358 175 346 175 q 370 175 365 175 q 383 178 375 175 l 411 3 q 363 -11 392 -6 q 294 -17 335 -17 m 275 -324 q 183 -290 218 -324 q 147 -204 147 -257 q 183 -118 147 -151 q 275 -85 218 -85 q 367 -118 332 -85 q 403 -204 403 -151 q 367 -290 403 -257 q 275 -324 332 -324 z "},"ḹ":{"ha":414,"x_min":-15,"x_max":413,"o":"m 294 -17 q 192 2 233 -17 q 126 56 151 21 q 91 138 101 90 q 81 244 81 186 l 81 967 l 319 967 l 319 236 q 333 188 319 200 q 358 175 346 175 q 370 175 365 175 q 383 178 375 175 l 411 3 q 363 -11 392 -6 q 294 -17 335 -17 m -15 1106 l -15 1256 l 413 1256 l 413 1106 l -15 1106 m 275 -324 q 183 -290 218 -324 q 147 -204 147 -257 q 183 -118 147 -151 q 275 -85 218 -85 q 367 -118 332 -85 q 403 -204 403 -151 q 367 -290 403 -257 q 275 -324 332 -324 z "},"ḻ":{"ha":414,"x_min":61,"x_max":489,"o":"m 294 -17 q 192 2 233 -17 q 126 56 151 21 q 91 138 101 90 q 81 244 81 186 l 81 967 l 319 967 l 319 236 q 333 188 319 200 q 358 175 346 175 q 370 175 365 175 q 383 178 375 175 l 411 3 q 363 -11 392 -6 q 294 -17 335 -17 m 61 -271 l 61 -121 l 489 -121 l 489 -271 l 61 -271 z "},"ł":{"ha":442,"x_min":-39,"x_max":481,"o":"m 311 -17 q 209 2 250 -17 q 143 56 168 21 q 108 138 118 90 q 97 244 97 186 l 97 354 l 42 322 l -39 469 l 97 544 l 97 967 l 336 967 l 336 658 l 400 694 l 481 547 l 336 469 l 336 236 q 349 188 336 200 q 375 175 363 175 q 387 175 382 175 q 400 178 392 175 l 428 3 q 380 -11 408 -6 q 311 -17 351 -17 z "},"ḿ":{"ha":1206,"x_min":81,"x_max":1131,"o":"m 81 0 l 81 694 l 275 694 l 292 610 l 297 610 q 387 681 339 650 q 506 711 435 711 q 623 683 576 711 q 697 600 669 654 q 790 678 740 644 q 911 711 840 711 q 1078 634 1025 711 q 1131 428 1131 557 l 1131 0 l 892 0 l 892 397 q 875 486 892 464 q 822 508 858 508 q 725 456 778 508 l 725 0 l 486 0 l 486 397 q 469 486 486 464 q 417 508 453 508 q 319 456 372 508 l 319 0 l 81 0 m 647 794 l 531 911 l 750 1172 l 911 1014 l 647 794 z "},"ṁ":{"ha":1206,"x_min":81,"x_max":1131,"o":"m 81 0 l 81 694 l 275 694 l 292 610 l 297 610 q 387 681 339 650 q 506 711 435 711 q 623 683 576 711 q 697 600 669 654 q 790 678 740 644 q 911 711 840 711 q 1078 634 1025 711 q 1131 428 1131 557 l 1131 0 l 892 0 l 892 397 q 875 486 892 464 q 822 508 858 508 q 725 456 778 508 l 725 0 l 486 0 l 486 397 q 469 486 486 464 q 417 508 453 508 q 319 456 372 508 l 319 0 l 81 0 m 619 781 q 527 814 563 781 q 492 900 492 847 q 527 986 492 953 q 619 1019 563 1019 q 712 986 676 1019 q 747 900 747 953 q 712 814 747 847 q 619 781 676 781 z "},"ṃ":{"ha":1206,"x_min":81,"x_max":1131,"o":"m 81 0 l 81 694 l 275 694 l 292 610 l 297 610 q 387 681 339 650 q 506 711 435 711 q 623 683 576 711 q 697 600 669 654 q 790 678 740 644 q 911 711 840 711 q 1078 634 1025 711 q 1131 428 1131 557 l 1131 0 l 892 0 l 892 397 q 875 486 892 464 q 822 508 858 508 q 725 456 778 508 l 725 0 l 486 0 l 486 397 q 469 486 486 464 q 417 508 453 508 q 319 456 372 508 l 319 0 l 81 0 m 617 -324 q 524 -290 560 -324 q 489 -204 489 -257 q 524 -118 489 -151 q 617 -85 560 -85 q 709 -118 674 -85 q 744 -204 744 -151 q 709 -290 744 -257 q 617 -324 674 -324 z "},"ń":{"ha":808,"x_min":81,"x_max":733,"o":"m 81 0 l 81 694 l 275 694 l 292 611 l 297 611 q 392 681 339 651 q 517 711 446 711 q 682 634 631 711 q 733 428 733 557 l 733 0 l 494 0 l 494 397 q 478 486 494 464 q 425 508 461 508 q 369 494 392 508 q 319 456 347 481 l 319 0 l 81 0 m 464 794 l 347 911 l 567 1172 l 728 1014 l 464 794 z "},"ǹ":{"ha":808,"x_min":81,"x_max":733,"o":"m 81 0 l 81 694 l 275 694 l 292 611 l 297 611 q 392 681 339 651 q 517 711 446 711 q 682 634 631 711 q 733 428 733 557 l 733 0 l 494 0 l 494 397 q 478 486 494 464 q 425 508 461 508 q 369 494 392 508 q 319 456 347 481 l 319 0 l 81 0 m 408 794 l 144 1014 l 306 1172 l 525 911 l 408 794 z "},"ň":{"ha":808,"x_min":81,"x_max":733,"o":"m 81 0 l 81 694 l 275 694 l 292 611 l 297 611 q 392 681 339 651 q 517 711 446 711 q 682 634 631 711 q 733 428 733 557 l 733 0 l 494 0 l 494 397 q 478 486 494 464 q 425 508 461 508 q 369 494 392 508 q 319 456 347 481 l 319 0 l 81 0 m 314 803 l 167 981 l 256 1064 l 433 947 l 439 947 l 617 1064 l 706 981 l 558 803 l 314 803 z "},"ñ":{"ha":808,"x_min":81,"x_max":733,"o":"m 81 0 l 81 694 l 275 694 l 292 611 l 297 611 q 392 681 339 651 q 517 711 446 711 q 682 634 631 711 q 733 428 733 557 l 733 0 l 494 0 l 494 397 q 478 486 494 464 q 425 508 461 508 q 369 494 392 508 q 319 456 347 481 l 319 0 l 81 0 m 525 794 q 467 806 493 794 q 421 833 442 818 q 383 860 400 847 q 353 872 367 872 q 326 859 336 872 q 311 808 315 846 l 164 817 q 215 985 167 935 q 347 1036 264 1036 q 404 1024 378 1036 q 451 997 431 1011 q 489 970 472 982 q 519 958 506 958 q 547 972 536 958 q 561 1022 557 985 l 708 1014 q 657 845 706 896 q 525 794 608 794 z "},"ņ":{"ha":808,"x_min":81,"x_max":733,"o":"m 81 0 l 81 694 l 275 694 l 292 611 l 297 611 q 392 681 339 651 q 517 711 446 711 q 682 634 631 711 q 733 428 733 557 l 733 0 l 494 0 l 494 397 q 478 486 494 464 q 425 508 461 508 q 369 494 392 508 q 319 456 347 481 l 319 0 l 81 0 m 261 -339 l 244 -247 q 353 -232 324 -243 q 383 -197 383 -221 q 365 -169 383 -181 q 300 -153 346 -157 l 344 -69 q 444 -83 404 -74 q 508 -108 483 -93 q 542 -142 532 -122 q 553 -189 553 -162 q 476 -299 553 -264 q 261 -339 400 -335 z "},"ṅ":{"ha":808,"x_min":81,"x_max":733,"o":"m 81 0 l 81 694 l 275 694 l 292 611 l 297 611 q 392 681 339 651 q 517 711 446 711 q 682 634 631 711 q 733 428 733 557 l 733 0 l 494 0 l 494 397 q 478 486 494 464 q 425 508 461 508 q 369 494 392 508 q 319 456 347 481 l 319 0 l 81 0 m 436 781 q 344 814 379 781 q 308 900 308 847 q 344 986 308 953 q 436 1019 379 1019 q 528 986 493 1019 q 564 900 564 953 q 528 814 564 847 q 436 781 493 781 z "},"ṇ":{"ha":808,"x_min":81,"x_max":733,"o":"m 81 0 l 81 694 l 275 694 l 292 611 l 297 611 q 392 681 339 651 q 517 711 446 711 q 682 634 631 711 q 733 428 733 557 l 733 0 l 494 0 l 494 397 q 478 486 494 464 q 425 508 461 508 q 369 494 392 508 q 319 456 347 481 l 319 0 l 81 0 m 411 -324 q 319 -290 354 -324 q 283 -204 283 -257 q 319 -118 283 -151 q 411 -85 354 -85 q 503 -118 468 -85 q 539 -204 539 -151 q 503 -290 539 -257 q 411 -324 468 -324 z "},"ṉ":{"ha":808,"x_min":81,"x_max":733,"o":"m 81 0 l 81 694 l 275 694 l 292 611 l 297 611 q 392 681 339 651 q 517 711 446 711 q 682 634 631 711 q 733 428 733 557 l 733 0 l 494 0 l 494 397 q 478 486 494 464 q 425 508 461 508 q 369 494 392 508 q 319 456 347 481 l 319 0 l 81 0 m 197 -271 l 197 -121 l 625 -121 l 625 -271 l 197 -271 z "},"ŉ":{"ha":1225,"x_min":103,"x_max":1150,"o":"m 497 0 l 497 694 l 692 694 l 708 611 l 714 611 q 809 681 756 651 q 933 711 863 711 q 1099 634 1047 711 q 1150 428 1150 557 l 1150 0 l 911 0 l 911 397 q 894 486 911 464 q 842 508 878 508 q 786 494 808 508 q 736 456 764 481 l 736 0 l 497 0 m 153 447 l 103 550 q 203 622 169 579 q 236 726 236 664 q 222 725 232 725 q 138 756 172 725 q 103 839 103 786 q 136 932 103 897 q 222 967 169 967 q 333 913 296 967 q 369 764 369 860 q 317 580 369 660 q 153 447 264 500 z "},"ò":{"ha":778,"x_min":44,"x_max":733,"o":"m 389 -17 q 260 8 322 -17 q 149 78 197 32 q 73 193 101 125 q 44 347 44 261 q 73 501 44 433 q 149 616 101 569 q 260 687 197 663 q 389 711 322 711 q 517 687 456 711 q 627 616 579 663 q 704 501 675 569 q 733 347 733 433 q 704 193 733 261 q 627 78 675 125 q 517 8 579 32 q 389 -17 456 -17 m 389 175 q 466 222 443 175 q 489 347 489 268 q 466 473 489 426 q 389 519 443 519 q 312 473 335 519 q 289 347 289 426 q 312 222 289 268 q 389 175 335 175 m 361 794 l 97 1014 l 258 1172 l 478 911 l 361 794 z "},"ó":{"ha":778,"x_min":44,"x_max":733,"o":"m 389 -17 q 260 8 322 -17 q 149 78 197 32 q 73 193 101 125 q 44 347 44 261 q 73 501 44 433 q 149 616 101 569 q 260 687 197 663 q 389 711 322 711 q 517 687 456 711 q 627 616 579 663 q 704 501 675 569 q 733 347 733 433 q 704 193 733 261 q 627 78 675 125 q 517 8 579 32 q 389 -17 456 -17 m 389 175 q 466 222 443 175 q 489 347 489 268 q 466 473 489 426 q 389 519 443 519 q 312 473 335 519 q 289 347 289 426 q 312 222 289 268 q 389 175 335 175 m 417 794 l 300 911 l 519 1172 l 681 1014 l 417 794 z "},"ô":{"ha":778,"x_min":44,"x_max":733,"o":"m 389 -17 q 260 8 322 -17 q 149 78 197 32 q 73 193 101 125 q 44 347 44 261 q 73 501 44 433 q 149 616 101 569 q 260 687 197 663 q 389 711 322 711 q 517 687 456 711 q 627 616 579 663 q 704 501 675 569 q 733 347 733 433 q 704 193 733 261 q 627 78 675 125 q 517 8 579 32 q 389 -17 456 -17 m 389 175 q 466 222 443 175 q 489 347 489 268 q 466 473 489 426 q 389 519 443 519 q 312 473 335 519 q 289 347 289 426 q 312 222 289 268 q 389 175 335 175 m 119 858 l 267 1036 l 511 1036 l 658 858 l 569 775 l 392 892 l 386 892 l 208 775 l 119 858 z "},"õ":{"ha":778,"x_min":44,"x_max":733,"o":"m 389 -17 q 260 8 322 -17 q 149 78 197 32 q 73 193 101 125 q 44 347 44 261 q 73 501 44 433 q 149 616 101 569 q 260 687 197 663 q 389 711 322 711 q 517 687 456 711 q 627 616 579 663 q 704 501 675 569 q 733 347 733 433 q 704 193 733 261 q 627 78 675 125 q 517 8 579 32 q 389 -17 456 -17 m 389 175 q 466 222 443 175 q 489 347 489 268 q 466 473 489 426 q 389 519 443 519 q 312 473 335 519 q 289 347 289 426 q 312 222 289 268 q 389 175 335 175 m 478 794 q 420 806 446 794 q 374 833 394 818 q 336 860 353 847 q 306 872 319 872 q 278 859 289 872 q 264 808 268 846 l 117 817 q 168 985 119 935 q 300 1036 217 1036 q 357 1024 331 1036 q 404 997 383 1011 q 442 970 425 982 q 472 958 458 958 q 499 972 489 958 q 514 1022 510 985 l 661 1014 q 610 845 658 896 q 478 794 561 794 z "},"ö":{"ha":778,"x_min":44,"x_max":733,"o":"m 389 -17 q 260 8 322 -17 q 149 78 197 32 q 73 193 101 125 q 44 347 44 261 q 73 501 44 433 q 149 616 101 569 q 260 687 197 663 q 389 711 322 711 q 517 687 456 711 q 627 616 579 663 q 704 501 675 569 q 733 347 733 433 q 704 193 733 261 q 627 78 675 125 q 517 8 579 32 q 389 -17 456 -17 m 389 175 q 466 222 443 175 q 489 347 489 268 q 466 473 489 426 q 389 519 443 519 q 312 473 335 519 q 289 347 289 426 q 312 222 289 268 q 389 175 335 175 m 231 781 q 151 813 182 781 q 119 892 119 844 q 151 971 119 939 q 231 1003 182 1003 q 310 971 279 1003 q 342 892 342 939 q 310 813 342 844 q 231 781 279 781 m 547 781 q 467 813 499 781 q 436 892 436 844 q 467 971 436 939 q 547 1003 499 1003 q 627 971 596 1003 q 658 892 658 939 q 627 813 658 844 q 547 781 596 781 z "},"ō":{"ha":778,"x_min":44,"x_max":733,"o":"m 389 -17 q 260 8 322 -17 q 149 78 197 32 q 73 193 101 125 q 44 347 44 261 q 73 501 44 433 q 149 616 101 569 q 260 687 197 663 q 389 711 322 711 q 517 687 456 711 q 627 616 579 663 q 704 501 675 569 q 733 347 733 433 q 704 193 733 261 q 627 78 675 125 q 517 8 579 32 q 389 -17 456 -17 m 389 175 q 466 222 443 175 q 489 347 489 268 q 466 473 489 426 q 389 519 443 519 q 312 473 335 519 q 289 347 289 426 q 312 222 289 268 q 389 175 335 175 m 175 817 l 175 967 l 603 967 l 603 817 l 175 817 z "},"ő":{"ha":778,"x_min":44,"x_max":736,"o":"m 389 -17 q 260 8 322 -17 q 149 78 197 32 q 73 193 101 125 q 44 347 44 261 q 73 501 44 433 q 149 616 101 569 q 260 687 197 663 q 389 711 322 711 q 517 687 456 711 q 627 616 579 663 q 704 501 675 569 q 733 347 733 433 q 704 193 733 261 q 627 78 675 125 q 517 8 579 32 q 389 -17 456 -17 m 389 175 q 466 222 443 175 q 489 347 489 268 q 466 473 489 426 q 389 519 443 519 q 312 473 335 519 q 289 347 289 426 q 312 222 289 268 q 389 175 335 175 m 317 783 l 192 839 l 314 1094 l 472 1025 l 317 783 m 581 783 l 456 839 l 578 1094 l 736 1025 l 581 783 z "},"ǒ":{"ha":778,"x_min":44,"x_max":733,"o":"m 389 -17 q 260 8 322 -17 q 149 78 197 32 q 73 193 101 125 q 44 347 44 261 q 73 501 44 433 q 149 616 101 569 q 260 687 197 663 q 389 711 322 711 q 517 687 456 711 q 627 616 579 663 q 704 501 675 569 q 733 347 733 433 q 704 193 733 261 q 627 78 675 125 q 517 8 579 32 q 389 -17 456 -17 m 389 175 q 466 222 443 175 q 489 347 489 268 q 466 473 489 426 q 389 519 443 519 q 312 473 335 519 q 289 347 289 426 q 312 222 289 268 q 389 175 335 175 m 267 803 l 119 981 l 208 1064 l 386 947 l 392 947 l 569 1064 l 658 981 l 511 803 l 267 803 z "},"ọ":{"ha":778,"x_min":44,"x_max":733,"o":"m 389 -17 q 260 8 322 -17 q 149 78 197 32 q 73 193 101 125 q 44 347 44 261 q 73 501 44 433 q 149 616 101 569 q 260 687 197 663 q 389 711 322 711 q 517 687 456 711 q 627 616 579 663 q 704 501 675 569 q 733 347 733 433 q 704 193 733 261 q 627 78 675 125 q 517 8 579 32 q 389 -17 456 -17 m 389 175 q 466 222 443 175 q 489 347 489 268 q 466 473 489 426 q 389 519 443 519 q 312 473 335 519 q 289 347 289 426 q 312 222 289 268 q 389 175 335 175 m 389 -324 q 297 -290 332 -324 q 261 -204 261 -257 q 297 -118 261 -151 q 389 -85 332 -85 q 481 -118 446 -85 q 517 -204 517 -151 q 481 -290 517 -257 q 389 -324 446 -324 z "},"ỏ":{"ha":778,"x_min":44,"x_max":733,"o":"m 389 -17 q 260 8 322 -17 q 149 78 197 32 q 73 193 101 125 q 44 347 44 261 q 73 501 44 433 q 149 616 101 569 q 260 687 197 663 q 389 711 322 711 q 517 687 456 711 q 627 616 579 663 q 704 501 675 569 q 733 347 733 433 q 704 193 733 261 q 627 78 675 125 q 517 8 579 32 q 389 -17 456 -17 m 389 175 q 466 222 443 175 q 489 347 489 268 q 466 473 489 426 q 389 519 443 519 q 312 473 335 519 q 289 347 289 426 q 312 222 289 268 q 389 175 335 175 m 322 786 l 306 878 q 345 890 329 881 q 361 919 361 899 q 338 957 361 943 q 253 975 314 971 l 267 1119 q 394 1103 343 1117 q 476 1065 444 1089 q 520 1008 507 1040 q 533 936 533 975 q 517 872 533 899 q 471 826 500 844 q 403 797 442 807 q 322 786 365 788 z "},"ố":{"ha":778,"x_min":44,"x_max":797,"o":"m 389 -17 q 260 8 322 -17 q 149 78 197 32 q 73 193 101 125 q 44 347 44 261 q 73 501 44 433 q 149 616 101 569 q 260 687 197 663 q 389 711 322 711 q 517 687 456 711 q 627 616 579 663 q 704 501 675 569 q 733 347 733 433 q 704 193 733 261 q 627 78 675 125 q 517 8 579 32 q 389 -17 456 -17 m 389 175 q 466 222 443 175 q 489 347 489 268 q 466 473 489 426 q 389 519 443 519 q 312 473 335 519 q 289 347 289 426 q 312 222 289 268 q 389 175 335 175 m 244 783 l 169 867 l 294 994 l 483 994 l 608 867 l 533 783 l 392 869 l 386 869 l 244 783 m 567 956 l 672 1136 l 797 1056 l 656 886 l 567 956 z "},"ồ":{"ha":778,"x_min":-19,"x_max":733,"o":"m 389 -17 q 260 8 322 -17 q 149 78 197 32 q 73 193 101 125 q 44 347 44 261 q 73 501 44 433 q 149 616 101 569 q 260 687 197 663 q 389 711 322 711 q 517 687 456 711 q 627 616 579 663 q 704 501 675 569 q 733 347 733 433 q 704 193 733 261 q 627 78 675 125 q 517 8 579 32 q 389 -17 456 -17 m 389 175 q 466 222 443 175 q 489 347 489 268 q 466 473 489 426 q 389 519 443 519 q 312 473 335 519 q 289 347 289 426 q 312 222 289 268 q 389 175 335 175 m 244 783 l 169 867 l 294 994 l 483 994 l 608 867 l 533 783 l 392 869 l 386 869 l 244 783 m 211 956 l 122 886 l -19 1056 l 106 1136 l 211 956 z "},"ổ":{"ha":778,"x_min":44,"x_max":767,"o":"m 389 -17 q 260 8 322 -17 q 149 78 197 32 q 73 193 101 125 q 44 347 44 261 q 73 501 44 433 q 149 616 101 569 q 260 687 197 663 q 389 711 322 711 q 517 687 456 711 q 627 616 579 663 q 704 501 675 569 q 733 347 733 433 q 704 193 733 261 q 627 78 675 125 q 517 8 579 32 q 389 -17 456 -17 m 389 175 q 466 222 443 175 q 489 347 489 268 q 466 473 489 426 q 389 519 443 519 q 312 473 335 519 q 289 347 289 426 q 312 222 289 268 q 389 175 335 175 m 244 783 l 169 867 l 294 994 l 483 994 l 608 867 l 533 783 l 392 869 l 386 869 l 244 783 m 592 900 l 578 978 q 604 988 594 981 q 614 1011 614 994 q 596 1038 614 1028 q 525 1053 578 1049 l 547 1150 q 653 1138 611 1147 q 721 1115 696 1129 q 756 1080 746 1100 q 767 1036 767 1060 q 753 976 767 1000 q 715 936 739 951 q 660 913 692 921 q 592 900 628 904 z "},"ỗ":{"ha":778,"x_min":44,"x_max":733,"o":"m 389 -17 q 260 8 322 -17 q 149 78 197 32 q 73 193 101 125 q 44 347 44 261 q 73 501 44 433 q 149 616 101 569 q 260 687 197 663 q 389 711 322 711 q 517 687 456 711 q 627 616 579 663 q 704 501 675 569 q 733 347 733 433 q 704 193 733 261 q 627 78 675 125 q 517 8 579 32 q 389 -17 456 -17 m 389 175 q 466 222 443 175 q 489 347 489 268 q 466 473 489 426 q 389 519 443 519 q 312 473 335 519 q 289 347 289 426 q 312 222 289 268 q 389 175 335 175 m 244 783 l 169 867 l 294 981 l 483 981 l 608 867 l 533 783 l 392 856 l 386 856 l 244 783 m 178 1017 q 222 1145 188 1107 q 311 1183 257 1183 q 360 1174 339 1183 q 397 1154 381 1165 q 426 1134 413 1143 q 453 1125 439 1125 q 478 1136 468 1125 q 494 1175 488 1147 l 600 1164 q 556 1035 590 1074 q 467 997 521 997 q 418 1006 439 997 q 381 1026 397 1015 q 352 1047 365 1038 q 325 1056 339 1056 q 300 1044 310 1056 q 283 1006 290 1033 l 178 1017 z "},"ộ":{"ha":778,"x_min":44,"x_max":733,"o":"m 389 -17 q 260 8 322 -17 q 149 78 197 32 q 73 193 101 125 q 44 347 44 261 q 73 501 44 433 q 149 616 101 569 q 260 687 197 663 q 389 711 322 711 q 517 687 456 711 q 627 616 579 663 q 704 501 675 569 q 733 347 733 433 q 704 193 733 261 q 627 78 675 125 q 517 8 579 32 q 389 -17 456 -17 m 389 175 q 466 222 443 175 q 489 347 489 268 q 466 473 489 426 q 389 519 443 519 q 312 473 335 519 q 289 347 289 426 q 312 222 289 268 q 389 175 335 175 m 119 858 l 267 1036 l 511 1036 l 658 858 l 569 775 l 392 892 l 386 892 l 208 775 l 119 858 m 389 -324 q 297 -290 332 -324 q 261 -204 261 -257 q 297 -118 261 -151 q 389 -85 332 -85 q 481 -118 446 -85 q 517 -204 517 -151 q 481 -290 517 -257 q 389 -324 446 -324 z "},"ŏ":{"ha":778,"x_min":44,"x_max":733,"o":"m 389 -17 q 260 8 322 -17 q 149 78 197 32 q 73 193 101 125 q 44 347 44 261 q 73 501 44 433 q 149 616 101 569 q 260 687 197 663 q 389 711 322 711 q 517 687 456 711 q 627 616 579 663 q 704 501 675 569 q 733 347 733 433 q 704 193 733 261 q 627 78 675 125 q 517 8 579 32 q 389 -17 456 -17 m 389 175 q 466 222 443 175 q 489 347 489 268 q 466 473 489 426 q 389 519 443 519 q 312 473 335 519 q 289 347 289 426 q 312 222 289 268 q 389 175 335 175 m 389 794 q 208 856 267 794 q 147 1017 150 918 l 281 1039 q 313 969 288 997 q 389 942 339 942 q 465 969 439 942 q 497 1039 490 997 l 631 1017 q 569 856 628 918 q 389 794 511 794 z "},"ṓ":{"ha":778,"x_min":44,"x_max":733,"o":"m 389 -17 q 260 8 322 -17 q 149 78 197 32 q 73 193 101 125 q 44 347 44 261 q 73 501 44 433 q 149 616 101 569 q 260 687 197 663 q 389 711 322 711 q 517 687 456 711 q 627 616 579 663 q 704 501 675 569 q 733 347 733 433 q 704 193 733 261 q 627 78 675 125 q 517 8 579 32 q 389 -17 456 -17 m 389 175 q 466 222 443 175 q 489 347 489 268 q 466 473 489 426 q 389 519 443 519 q 312 473 335 519 q 289 347 289 426 q 312 222 289 268 q 389 175 335 175 m 353 994 l 275 1089 l 481 1239 l 575 1122 l 353 994 m 175 817 l 175 967 l 603 967 l 603 817 l 175 817 z "},"ø":{"ha":778,"x_min":44,"x_max":733,"o":"m 389 -17 q 207 35 290 -17 l 150 -36 l 64 31 l 125 107 q 66 212 88 151 q 44 347 44 272 q 73 501 44 433 q 149 616 101 569 q 260 687 197 663 q 389 711 322 711 q 569 661 488 711 l 628 733 l 714 667 l 651 589 q 711 483 689 544 q 733 347 733 422 q 704 193 733 261 q 627 78 675 125 q 517 8 579 32 q 389 -17 456 -17 m 275 361 q 276 328 275 343 q 278 299 276 313 l 449 510 q 389 528 425 528 q 305 482 335 528 q 275 361 275 436 m 389 167 q 473 213 443 167 q 503 333 503 258 q 499 399 503 369 l 328 186 q 389 167 351 167 z "},"œ":{"ha":1133,"x_min":44,"x_max":1083,"o":"m 372 -17 q 244 8 304 -17 q 140 78 185 32 q 70 193 96 125 q 44 347 44 261 q 71 501 44 433 q 143 616 97 569 q 249 687 189 663 q 378 711 310 711 q 500 683 449 711 q 592 608 551 654 q 690 685 636 658 q 803 711 744 711 q 926 684 874 711 q 1014 610 979 657 q 1066 501 1049 564 q 1083 369 1083 439 q 1080 313 1083 338 q 1074 275 1076 288 l 692 275 q 747 193 707 217 q 839 169 786 169 q 908 183 875 169 q 978 217 940 196 l 1058 64 q 933 3 1001 24 q 806 -17 864 -17 q 694 10 749 -17 q 594 86 639 36 q 498 10 550 36 q 372 -17 446 -17 m 378 175 q 448 222 424 175 q 472 347 472 268 q 448 473 472 426 q 378 519 424 519 q 309 473 332 519 q 286 347 286 426 q 309 222 286 268 q 378 175 332 175 m 692 419 l 881 419 q 862 498 881 465 q 794 531 843 531 q 727 506 754 531 q 692 419 700 481 z "},"ơ":{"ha":778,"x_min":44,"x_max":806,"o":"m 389 -17 q 260 8 322 -17 q 149 78 197 32 q 73 193 101 125 q 44 347 44 261 q 73 501 44 433 q 149 616 101 569 q 260 687 197 663 q 389 711 322 711 q 525 683 461 711 q 585 721 561 694 q 608 806 608 747 q 601 851 608 831 q 586 886 594 872 l 761 961 q 792 902 778 940 q 806 822 806 864 q 758 685 806 738 q 635 608 710 632 q 706 497 679 563 q 733 347 733 431 q 704 193 733 261 q 627 78 675 125 q 517 8 579 32 q 389 -17 456 -17 m 389 175 q 466 222 443 175 q 489 347 489 268 q 466 473 489 426 q 389 519 443 519 q 312 473 335 519 q 289 347 289 426 q 312 222 289 268 q 389 175 335 175 z "},"ớ":{"ha":778,"x_min":44,"x_max":806,"o":"m 389 -17 q 260 8 322 -17 q 149 78 197 32 q 73 193 101 125 q 44 347 44 261 q 73 501 44 433 q 149 616 101 569 q 260 687 197 663 q 389 711 322 711 q 525 683 461 711 q 585 721 561 694 q 608 806 608 747 q 601 851 608 831 q 586 886 594 872 l 761 961 q 792 902 778 940 q 806 822 806 864 q 758 685 806 738 q 635 608 710 632 q 706 497 679 563 q 733 347 733 431 q 704 193 733 261 q 627 78 675 125 q 517 8 579 32 q 389 -17 456 -17 m 389 175 q 466 222 443 175 q 489 347 489 268 q 466 473 489 426 q 389 519 443 519 q 312 473 335 519 q 289 347 289 426 q 312 222 289 268 q 389 175 335 175 m 417 794 l 300 911 l 519 1172 l 681 1014 l 417 794 z "},"ờ":{"ha":778,"x_min":44,"x_max":806,"o":"m 389 -17 q 260 8 322 -17 q 149 78 197 32 q 73 193 101 125 q 44 347 44 261 q 73 501 44 433 q 149 616 101 569 q 260 687 197 663 q 389 711 322 711 q 525 683 461 711 q 585 721 561 694 q 608 806 608 747 q 601 851 608 831 q 586 886 594 872 l 761 961 q 792 902 778 940 q 806 822 806 864 q 758 685 806 738 q 635 608 710 632 q 706 497 679 563 q 733 347 733 431 q 704 193 733 261 q 627 78 675 125 q 517 8 579 32 q 389 -17 456 -17 m 389 175 q 466 222 443 175 q 489 347 489 268 q 466 473 489 426 q 389 519 443 519 q 312 473 335 519 q 289 347 289 426 q 312 222 289 268 q 389 175 335 175 m 361 794 l 97 1014 l 258 1172 l 478 911 l 361 794 z "},"ở":{"ha":778,"x_min":44,"x_max":806,"o":"m 389 -17 q 260 8 322 -17 q 149 78 197 32 q 73 193 101 125 q 44 347 44 261 q 73 501 44 433 q 149 616 101 569 q 260 687 197 663 q 389 711 322 711 q 525 683 461 711 q 585 721 561 694 q 608 806 608 747 q 601 851 608 831 q 586 886 594 872 l 761 961 q 792 902 778 940 q 806 822 806 864 q 758 685 806 738 q 635 608 710 632 q 706 497 679 563 q 733 347 733 431 q 704 193 733 261 q 627 78 675 125 q 517 8 579 32 q 389 -17 456 -17 m 389 175 q 466 222 443 175 q 489 347 489 268 q 466 473 489 426 q 389 519 443 519 q 312 473 335 519 q 289 347 289 426 q 312 222 289 268 q 389 175 335 175 m 322 786 l 306 878 q 345 890 329 881 q 361 919 361 899 q 338 957 361 943 q 253 975 314 971 l 267 1119 q 394 1103 343 1117 q 476 1065 444 1089 q 520 1008 507 1040 q 533 936 533 975 q 517 872 533 899 q 471 826 500 844 q 403 797 442 807 q 322 786 365 788 z "},"ỡ":{"ha":778,"x_min":44,"x_max":806,"o":"m 389 -17 q 260 8 322 -17 q 149 78 197 32 q 73 193 101 125 q 44 347 44 261 q 73 501 44 433 q 149 616 101 569 q 260 687 197 663 q 389 711 322 711 q 525 683 461 711 q 585 721 561 694 q 608 806 608 747 q 601 851 608 831 q 586 886 594 872 l 761 961 q 792 902 778 940 q 806 822 806 864 q 758 685 806 738 q 635 608 710 632 q 706 497 679 563 q 733 347 733 431 q 704 193 733 261 q 627 78 675 125 q 517 8 579 32 q 389 -17 456 -17 m 389 175 q 466 222 443 175 q 489 347 489 268 q 466 473 489 426 q 389 519 443 519 q 312 473 335 519 q 289 347 289 426 q 312 222 289 268 q 389 175 335 175 m 422 794 q 365 806 390 794 q 318 833 339 818 q 281 860 297 847 q 250 872 264 872 q 223 859 233 872 q 208 808 213 846 l 61 817 q 113 985 64 935 q 244 1036 161 1036 q 301 1024 275 1036 q 349 997 328 1011 q 386 970 369 982 q 417 958 403 958 q 444 972 433 958 q 458 1022 454 985 l 606 1014 q 554 845 603 896 q 422 794 506 794 z "},"ợ":{"ha":778,"x_min":44,"x_max":806,"o":"m 389 -17 q 260 8 322 -17 q 149 78 197 32 q 73 193 101 125 q 44 347 44 261 q 73 501 44 433 q 149 616 101 569 q 260 687 197 663 q 389 711 322 711 q 525 683 461 711 q 585 721 561 694 q 608 806 608 747 q 601 851 608 831 q 586 886 594 872 l 761 961 q 792 902 778 940 q 806 822 806 864 q 758 685 806 738 q 635 608 710 632 q 706 497 679 563 q 733 347 733 431 q 704 193 733 261 q 627 78 675 125 q 517 8 579 32 q 389 -17 456 -17 m 389 175 q 466 222 443 175 q 489 347 489 268 q 466 473 489 426 q 389 519 443 519 q 312 473 335 519 q 289 347 289 426 q 312 222 289 268 q 389 175 335 175 m 389 -324 q 297 -290 332 -324 q 261 -204 261 -257 q 297 -118 261 -151 q 389 -85 332 -85 q 481 -118 446 -85 q 517 -204 517 -151 q 481 -290 517 -257 q 389 -324 446 -324 z "},"ǫ":{"ha":778,"x_min":44,"x_max":733,"o":"m 414 -294 q 303 -262 349 -294 q 258 -164 258 -229 q 284 -73 258 -111 q 335 -12 310 -35 q 224 24 276 -4 q 131 99 171 53 q 68 207 92 144 q 44 347 44 269 q 73 501 44 433 q 149 616 101 569 q 260 687 197 663 q 389 711 322 711 q 517 687 456 711 q 627 616 579 663 q 704 501 675 569 q 733 347 733 433 q 717 226 733 279 q 670 131 700 172 q 599 58 640 89 q 506 3 557 26 q 435 -51 454 -21 q 417 -108 417 -81 q 434 -144 417 -133 q 472 -156 451 -156 q 497 -151 485 -156 q 519 -139 510 -146 l 567 -244 q 494 -281 538 -268 q 414 -294 450 -294 m 389 175 q 466 222 443 175 q 489 347 489 268 q 466 473 489 426 q 389 519 443 519 q 312 473 335 519 q 289 347 289 426 q 312 222 289 268 q 389 175 335 175 z "},"ŕ":{"ha":581,"x_min":81,"x_max":650,"o":"m 81 0 l 81 694 l 275 694 l 292 575 l 297 575 q 390 678 336 646 q 494 711 443 711 q 546 708 526 711 q 581 697 565 704 l 542 492 q 505 499 522 496 q 464 503 488 503 q 385 477 426 503 q 319 386 344 451 l 319 0 l 81 0 m 386 794 l 269 911 l 489 1172 l 650 1014 l 386 794 z "},"ŗ":{"ha":581,"x_min":33,"x_max":581,"o":"m 81 0 l 81 694 l 275 694 l 292 575 l 297 575 q 390 678 336 646 q 494 711 443 711 q 546 708 526 711 q 581 697 565 704 l 542 492 q 505 499 522 496 q 464 503 488 503 q 385 477 426 503 q 319 386 344 451 l 319 0 l 81 0 m 50 -339 l 33 -247 q 142 -232 113 -243 q 172 -197 172 -221 q 153 -169 172 -181 q 89 -153 135 -157 l 133 -69 q 233 -83 193 -74 q 297 -108 272 -93 q 331 -142 321 -122 q 342 -189 342 -162 q 265 -299 342 -264 q 50 -339 189 -335 z "},"ř":{"ha":581,"x_min":81,"x_max":628,"o":"m 81 0 l 81 694 l 275 694 l 292 575 l 297 575 q 390 678 336 646 q 494 711 443 711 q 546 708 526 711 q 581 697 565 704 l 542 492 q 505 499 522 496 q 464 503 488 503 q 385 477 426 503 q 319 386 344 451 l 319 0 l 81 0 m 236 803 l 89 981 l 178 1064 l 356 947 l 361 947 l 539 1064 l 628 981 l 481 803 l 236 803 z "},"ṙ":{"ha":581,"x_min":81,"x_max":581,"o":"m 81 0 l 81 694 l 275 694 l 292 575 l 297 575 q 390 678 336 646 q 494 711 443 711 q 546 708 526 711 q 581 697 565 704 l 542 492 q 505 499 522 496 q 464 503 488 503 q 385 477 426 503 q 319 386 344 451 l 319 0 l 81 0 m 358 781 q 266 814 301 781 q 231 900 231 847 q 266 986 231 953 q 358 1019 301 1019 q 451 986 415 1019 q 486 900 486 953 q 451 814 486 847 q 358 781 415 781 z "},"ṛ":{"ha":581,"x_min":72,"x_max":581,"o":"m 81 0 l 81 694 l 275 694 l 292 575 l 297 575 q 390 678 336 646 q 494 711 443 711 q 546 708 526 711 q 581 697 565 704 l 542 492 q 505 499 522 496 q 464 503 488 503 q 385 477 426 503 q 319 386 344 451 l 319 0 l 81 0 m 200 -324 q 108 -290 143 -324 q 72 -204 72 -257 q 108 -118 72 -151 q 200 -85 143 -85 q 292 -118 257 -85 q 328 -204 328 -151 q 292 -290 328 -257 q 200 -324 257 -324 z "},"ṝ":{"ha":581,"x_min":72,"x_max":581,"o":"m 81 0 l 81 694 l 275 694 l 292 575 l 297 575 q 390 678 336 646 q 494 711 443 711 q 546 708 526 711 q 581 697 565 704 l 542 492 q 505 499 522 496 q 464 503 488 503 q 385 477 426 503 q 319 386 344 451 l 319 0 l 81 0 m 144 817 l 144 967 l 572 967 l 572 817 l 144 817 m 200 -324 q 108 -290 143 -324 q 72 -204 72 -257 q 108 -118 72 -151 q 200 -85 143 -85 q 292 -118 257 -85 q 328 -204 328 -151 q 292 -290 328 -257 q 200 -324 257 -324 z "},"ṟ":{"ha":581,"x_min":-14,"x_max":581,"o":"m 81 0 l 81 694 l 275 694 l 292 575 l 297 575 q 390 678 336 646 q 494 711 443 711 q 546 708 526 711 q 581 697 565 704 l 542 492 q 505 499 522 496 q 464 503 488 503 q 385 477 426 503 q 319 386 344 451 l 319 0 l 81 0 m -14 -271 l -14 -121 l 414 -121 l 414 -271 l -14 -271 z "}}}
